{"glyphs":{"0":{"ha":803,"x_min":87,"x_max":716,"o":"m 157 674 l 157 187 q 203 102 157 141 q 316 64 248 64 l 487 64 q 600 102 555 64 q 646 187 646 141 l 646 674 q 600 759 646 720 q 487 798 555 798 l 316 798 q 203 759 248 798 q 157 674 157 720 m 716 209 q 648 54 716 114 q 475 -7 579 -7 l 328 -7 q 155 54 224 -7 q 87 209 87 114 l 87 654 q 155 809 87 749 q 328 869 224 869 l 475 869 q 648 809 579 869 q 716 654 716 749 l 716 209 z "},"1":{"ha":803,"x_min":273,"x_max":449,"o":"m 378 814 l 345 781 q 305 762 326 762 q 280 772 288 762 q 273 792 273 781 q 292 827 273 810 l 374 911 q 412 929 395 929 q 437 920 425 929 q 449 891 449 910 l 449 34 q 414 -9 449 -9 q 378 34 378 -9 l 378 814 z "},"2":{"ha":803,"x_min":88,"x_max":716,"o":"m 716 624 q 660 501 716 556 q 522 405 604 446 q 359 319 441 363 q 220 210 278 275 q 159 64 161 145 l 669 64 q 716 27 716 64 q 669 -7 716 -7 l 88 -7 l 88 60 q 146 230 88 156 q 285 349 203 304 q 448 433 366 395 q 588 519 530 472 q 646 624 646 567 q 598 768 646 736 q 423 799 551 799 l 232 799 q 174 781 189 799 q 159 718 159 762 q 122 670 159 670 q 88 718 88 670 q 119 834 88 799 q 222 869 151 869 l 423 869 q 645 820 574 869 q 716 624 716 770 z "},"3":{"ha":803,"x_min":87,"x_max":716,"o":"m 458 799 l 345 799 q 219 776 281 799 q 157 715 157 753 q 122 670 157 670 q 87 718 87 670 q 154 824 87 779 q 335 869 221 869 l 444 869 q 654 812 591 869 q 716 612 716 754 q 656 514 716 567 q 544 442 597 461 q 655 363 594 427 q 716 251 716 298 q 654 51 716 109 q 444 -7 591 -7 l 335 -7 q 154 39 221 -7 q 87 144 87 84 q 122 193 87 193 q 157 148 157 193 q 219 87 157 110 q 345 64 281 64 l 458 64 q 606 105 566 64 q 647 225 647 146 q 560 351 647 297 q 395 406 473 406 q 342 442 342 406 q 395 477 342 477 q 563 522 479 477 q 647 637 647 567 q 606 758 647 716 q 458 799 566 799 z "},"4":{"ha":803,"x_min":84,"x_max":719,"o":"m 675 231 l 600 231 l 600 33 q 564 -9 600 -9 q 528 33 528 -9 l 528 231 l 84 231 l 84 316 l 510 869 l 600 869 l 600 301 l 675 301 q 719 266 719 301 q 675 231 719 231 m 155 301 l 528 301 l 528 785 l 155 301 z "},"5":{"ha":803,"x_min":94,"x_max":709,"o":"m 126 164 q 170 138 133 164 q 269 85 208 111 q 395 58 330 58 q 575 125 511 58 q 639 311 639 191 q 618 413 639 369 q 563 480 597 457 q 496 514 529 503 q 430 525 463 525 l 102 525 l 114 694 q 156 831 121 792 q 269 869 191 869 l 609 869 q 652 833 652 869 q 609 799 652 799 l 260 799 q 209 781 227 799 q 187 718 191 764 l 179 595 l 418 595 q 621 518 532 595 q 709 311 709 441 q 622 74 709 160 q 395 -12 534 -12 q 201 35 309 -12 q 94 129 94 83 q 104 153 94 142 q 126 164 115 164 z "},"6":{"ha":803,"x_min":87,"x_max":716,"o":"m 87 283 q 117 505 87 401 q 189 674 146 609 q 278 786 231 739 q 361 853 326 833 q 412 873 396 873 q 452 842 452 873 q 422 806 452 821 q 287 694 351 769 q 189 509 222 618 q 401 581 275 581 q 627 497 537 581 q 716 285 716 414 q 627 71 716 155 q 401 -12 537 -12 q 176 71 264 -12 q 87 283 87 153 m 157 285 q 222 120 157 182 q 401 58 288 58 q 581 120 515 58 q 646 285 646 182 q 581 448 646 387 q 401 510 515 510 q 222 448 288 510 q 157 285 157 387 z "},"7":{"ha":803,"x_min":99,"x_max":704,"o":"m 366 -14 q 340 -6 353 -14 q 327 19 327 1 q 334 47 327 33 l 620 806 l 245 806 q 186 787 202 806 q 170 724 170 769 q 134 677 170 677 q 99 724 99 677 q 131 841 99 806 q 235 876 163 876 l 669 876 q 704 845 704 876 q 699 817 704 833 l 403 22 q 366 -14 389 -14 z "},"8":{"ha":803,"x_min":87,"x_max":716,"o":"m 169 330 q 163 312 169 330 q 157 236 157 294 q 169 142 157 178 q 212 90 180 107 q 279 68 243 73 q 381 64 315 64 l 423 64 q 525 68 490 64 q 591 90 560 73 q 634 142 623 107 q 646 236 646 178 q 598 378 646 347 q 423 410 551 410 l 381 410 q 279 405 316 410 q 212 382 243 400 q 169 330 180 365 m 716 236 q 696 111 716 160 q 635 36 677 61 q 545 2 594 11 q 423 -7 496 -7 l 381 -7 q 281 -2 323 -7 q 201 18 240 3 q 139 60 163 34 q 101 130 115 85 q 87 236 87 174 q 174 442 87 388 q 87 640 87 490 q 102 746 87 703 q 139 813 117 789 q 203 850 161 837 q 282 866 244 863 q 381 869 320 869 l 423 869 q 521 866 483 869 q 600 850 559 863 q 664 813 642 837 q 701 746 686 789 q 716 640 716 703 q 631 442 716 490 q 716 236 716 388 m 646 640 q 641 699 646 674 q 630 741 636 723 q 608 769 624 758 q 578 786 591 780 q 536 795 566 792 q 486 798 507 798 q 423 799 465 799 l 381 799 q 296 798 321 799 q 236 789 270 796 q 189 764 202 781 q 167 718 176 747 q 157 640 157 688 q 167 563 157 593 q 189 516 176 533 q 235 491 202 499 q 296 481 269 483 q 381 480 323 480 l 423 480 q 495 481 472 480 q 550 486 518 481 q 595 500 582 491 q 622 528 608 510 q 641 573 636 545 q 646 640 646 601 z "},"9":{"ha":803,"x_min":87,"x_max":716,"o":"m 87 639 q 113 745 87 700 q 174 812 138 789 q 261 849 210 836 q 348 866 312 863 q 423 869 384 869 q 716 637 716 869 q 673 368 716 494 q 562 158 631 241 q 407 26 494 75 q 231 -22 320 -22 q 189 15 189 -22 q 231 50 189 50 q 334 74 278 50 q 449 143 391 98 q 556 270 507 189 q 628 453 605 351 q 423 410 559 410 q 87 639 87 410 m 423 799 q 157 639 157 799 q 181 553 157 587 q 248 504 205 518 q 330 485 292 490 q 423 480 369 480 q 595 521 544 480 q 646 637 646 562 q 423 799 646 799 z "}," ":{"ha":353,"x_min":0,"x_max":0,"o":""},"!":{"ha":331,"x_min":96,"x_max":236,"o":"m 165 -16 q 120 0 144 -16 q 96 39 96 16 q 120 79 96 62 q 165 95 144 95 q 212 79 189 95 q 236 39 236 62 q 213 0 236 16 q 165 -16 190 -16 m 130 836 q 165 880 130 880 q 201 836 201 880 l 201 267 q 164 222 201 222 q 130 267 130 222 l 130 836 z "},"\"":{"ha":400,"x_min":96,"x_max":304,"o":"m 267 587 q 233 632 233 587 l 233 834 q 269 879 233 879 q 304 834 304 879 l 304 632 q 267 587 304 587 m 130 587 q 96 632 96 587 l 96 834 q 132 879 96 879 q 165 834 165 879 l 165 632 q 130 587 165 587 z "},"#":{"ha":818,"x_min":60,"x_max":758,"o":"m 465 821 q 461 798 465 814 l 384 591 l 552 591 l 636 822 q 673 854 648 854 q 699 844 689 854 q 708 819 708 833 q 704 798 708 810 l 628 591 l 713 591 q 758 556 758 591 q 713 521 758 521 l 602 521 l 537 342 l 671 342 q 716 305 716 342 q 671 271 716 271 l 511 271 l 427 41 q 391 8 416 8 q 355 43 355 8 q 359 65 355 53 l 437 271 l 267 271 l 184 41 q 148 8 174 8 q 114 42 114 8 q 118 65 114 49 l 194 271 l 104 271 q 60 307 60 271 q 104 342 60 342 l 220 342 l 285 521 l 145 521 q 102 557 102 521 q 145 591 102 591 l 311 591 l 395 822 q 430 854 408 854 q 465 821 465 854 m 359 521 l 294 342 l 461 342 l 526 521 l 359 521 z "},"$":{"ha":796,"x_min":83,"x_max":715,"o":"m 218 121 q 146 133 175 121 q 104 169 118 145 q 87 216 91 193 q 83 271 83 239 q 118 317 83 317 q 153 274 153 317 q 170 209 153 227 q 228 191 186 191 l 369 191 l 369 408 l 258 408 q 83 586 83 408 q 123 708 83 666 q 258 750 163 750 l 369 750 l 369 827 q 404 872 369 872 q 439 829 439 872 l 439 751 l 576 751 q 648 739 620 751 q 690 703 677 727 q 708 656 704 680 q 712 601 712 633 q 677 555 712 555 q 642 598 642 555 q 625 663 642 646 q 567 680 609 680 l 439 680 l 439 479 l 541 479 q 675 426 636 479 q 715 293 715 373 q 541 122 715 122 l 439 122 l 439 34 q 403 -9 439 -9 q 369 33 369 -9 l 369 121 l 218 121 m 564 408 l 439 408 l 439 191 l 564 191 q 644 290 644 191 q 622 375 644 342 q 564 408 600 408 m 233 479 l 369 479 l 369 680 l 233 680 q 153 589 153 680 q 176 507 153 536 q 233 479 198 479 z "},"%":{"ha":758,"x_min":94,"x_max":666,"o":"m 498 248 q 510 220 498 232 q 538 208 522 208 q 568 220 556 208 q 579 248 579 232 q 567 277 579 266 q 538 289 555 289 q 510 277 522 289 q 498 248 498 266 m 457 170 q 440 186 457 170 q 423 248 423 202 q 457 327 423 294 q 538 359 491 359 q 617 327 585 359 q 650 248 650 294 q 617 170 650 202 q 538 137 585 137 q 457 170 491 137 m 194 661 q 188 654 194 661 q 182 632 182 648 q 194 604 182 616 q 222 591 206 591 q 250 603 237 591 q 263 632 263 614 q 250 661 263 650 q 222 673 237 673 q 194 661 206 673 m 143 553 q 126 570 143 553 q 110 632 110 586 q 143 711 110 678 q 222 743 176 743 q 303 711 270 743 q 336 632 336 678 q 303 553 336 586 q 222 521 270 521 q 143 553 176 521 m 632 716 q 654 706 643 716 q 666 682 666 696 q 650 650 666 667 l 161 180 q 127 164 144 164 q 105 174 117 164 q 94 198 94 184 q 110 231 94 214 l 600 700 q 632 716 617 716 z "},"&":{"ha":689,"x_min":53,"x_max":651,"o":"m 524 716 q 513 692 524 703 q 488 682 503 682 q 456 703 472 682 q 428 748 441 723 q 389 793 415 773 q 328 814 362 814 q 212 768 264 814 q 160 646 160 722 q 212 538 160 597 l 532 170 q 571 308 571 228 q 608 357 571 357 q 640 308 640 357 q 579 114 640 199 l 642 43 q 651 15 651 33 q 642 -9 651 -1 q 621 -16 632 -16 q 581 5 601 -16 l 533 61 q 336 -19 442 -19 q 243 -5 290 -19 q 153 39 197 9 q 81 122 109 68 q 53 247 53 176 q 81 378 53 313 q 167 484 109 444 l 152 502 q 87 646 87 581 q 163 817 87 749 q 330 884 240 884 q 412 861 373 884 q 473 808 450 838 q 510 751 496 777 q 524 716 524 726 m 487 114 l 213 433 q 123 247 123 376 q 189 98 123 145 q 336 52 254 52 q 487 114 416 52 z "},"'":{"ha":263,"x_min":96,"x_max":165,"o":"m 130 587 q 96 632 96 587 l 96 834 q 132 879 96 879 q 165 834 165 879 l 165 632 q 130 587 165 587 z "},"(":{"ha":336,"x_min":99,"x_max":275,"o":"m 170 682 l 170 180 q 170 109 170 134 q 176 60 171 83 q 185 29 180 38 q 205 14 190 20 q 233 7 220 8 q 275 7 247 7 l 275 -64 q 199 -57 227 -64 q 145 -26 171 -50 q 109 47 119 -3 q 99 180 99 98 l 99 682 q 109 815 99 765 q 145 889 119 865 q 199 920 171 913 q 275 926 227 926 l 275 856 q 233 855 247 856 q 205 848 220 854 q 185 833 190 842 q 176 802 180 825 q 170 754 171 780 q 170 682 170 728 z "},")":{"ha":336,"x_min":61,"x_max":237,"o":"m 167 682 q 166 754 167 728 q 161 802 165 780 q 151 833 156 825 q 132 848 146 842 q 103 855 117 854 q 61 856 90 856 l 61 926 q 138 920 110 926 q 191 889 165 913 q 227 815 217 865 q 237 682 237 765 l 237 180 q 227 47 237 98 q 191 -26 217 -3 q 138 -57 165 -50 q 61 -64 110 -64 l 61 7 q 103 7 90 7 q 132 14 117 8 q 151 29 146 20 q 161 60 156 38 q 166 109 165 83 q 167 180 167 134 l 167 682 z "},"*":{"ha":538,"x_min":88,"x_max":450,"o":"m 416 548 q 389 556 406 548 l 304 605 l 304 507 q 269 463 304 463 q 233 507 233 463 l 233 605 l 148 556 q 121 548 132 548 q 98 559 107 548 q 88 582 88 570 q 113 617 88 602 l 198 667 l 113 715 q 88 750 88 730 q 96 772 88 760 q 121 784 104 784 q 148 776 132 784 l 233 727 l 233 825 q 270 869 233 869 q 304 825 304 869 l 304 727 l 389 776 q 416 784 406 784 q 441 773 431 784 q 450 750 450 762 q 425 715 450 731 l 340 667 l 425 617 q 450 582 450 601 q 441 560 450 572 q 416 548 433 548 z "},"+":{"ha":703,"x_min":52,"x_max":652,"o":"m 387 27 q 351 -16 387 -16 q 316 27 316 -16 l 316 277 l 94 277 q 52 313 52 277 q 94 349 52 349 l 316 349 l 316 597 q 353 642 316 642 q 387 597 387 642 l 387 349 l 606 349 q 652 311 652 349 q 640 286 652 296 q 606 277 627 277 l 387 277 l 387 27 z "},",":{"ha":285,"x_min":66,"x_max":193,"o":"m 193 56 q 186 30 193 42 l 130 -83 q 96 -115 117 -115 q 66 -81 66 -115 q 71 -60 66 -76 l 103 58 q 137 90 113 90 q 172 81 152 90 q 193 56 193 73 z "},"-":{"ha":618,"x_min":99,"x_max":519,"o":"m 99 313 q 141 349 99 349 l 473 349 q 519 311 519 349 q 507 286 519 296 q 473 277 494 277 l 141 277 q 99 313 99 277 z "},".":{"ha":315,"x_min":88,"x_max":227,"o":"m 157 95 q 203 79 179 95 q 227 39 227 62 q 203 0 227 16 q 157 -16 179 -16 q 111 0 134 -16 q 88 39 88 16 q 111 79 88 62 q 157 95 134 95 z "},"/":{"ha":487,"x_min":58,"x_max":429,"o":"m 429 849 q 425 825 429 838 l 129 14 q 94 -18 118 -18 q 70 -10 81 -18 q 58 15 58 -3 q 62 39 58 23 l 358 850 q 392 882 369 882 q 416 874 404 882 q 429 849 429 867 z "},":":{"ha":336,"x_min":99,"x_max":237,"o":"m 168 164 q 214 148 190 164 q 237 109 237 132 q 214 69 237 85 q 168 53 190 53 q 122 69 145 53 q 99 109 99 85 q 122 148 99 132 q 168 164 145 164 m 168 643 q 214 627 190 643 q 237 587 237 610 q 214 548 237 564 q 168 532 190 532 q 122 548 145 532 q 99 587 99 564 q 122 627 99 610 q 168 643 145 643 z "},";":{"ha":340,"x_min":99,"x_max":237,"o":"m 235 125 q 228 99 235 111 l 172 -14 q 138 -46 159 -46 q 109 -12 109 -46 q 113 9 109 -7 l 145 127 q 179 159 155 159 q 214 151 194 159 q 235 125 235 142 m 168 643 q 214 627 190 643 q 237 587 237 610 q 214 548 237 564 q 168 532 190 532 q 122 548 145 532 q 99 587 99 564 q 122 627 99 610 q 168 643 145 643 z "},"<":{"ha":719,"x_min":45,"x_max":624,"o":"m 591 121 q 563 130 578 121 l 69 415 q 45 452 45 430 q 69 486 45 472 l 563 770 q 590 779 574 779 q 614 770 605 779 q 624 747 624 761 q 616 725 624 736 q 598 709 608 713 l 149 452 l 597 191 q 624 157 624 178 q 616 134 624 148 q 591 121 608 121 z "},"=":{"ha":635,"x_min":107,"x_max":528,"o":"m 107 521 q 149 556 107 556 l 481 556 q 528 518 528 556 q 515 494 528 503 q 481 484 502 484 l 149 484 q 107 521 107 484 m 107 381 q 149 416 107 416 l 481 416 q 528 378 528 416 q 515 354 528 363 q 481 345 502 345 l 149 345 q 107 381 107 345 z "},">":{"ha":719,"x_min":95,"x_max":674,"o":"m 127 121 q 103 134 111 121 q 95 157 95 148 q 122 191 95 178 l 570 452 l 121 709 q 103 725 111 713 q 95 747 95 736 q 104 770 95 761 q 129 779 114 779 q 156 770 145 779 l 650 486 q 674 452 674 472 q 650 415 674 430 l 156 130 q 127 121 141 121 z "},"?":{"ha":727,"x_min":52,"x_max":670,"o":"m 340 95 q 386 79 362 95 q 410 39 410 62 q 386 0 410 16 q 340 -16 362 -16 q 294 0 317 -16 q 271 39 271 16 q 294 79 271 62 q 340 95 317 95 m 376 263 q 340 218 376 218 q 305 263 305 218 l 305 458 l 518 517 q 576 564 553 526 q 600 656 600 602 q 568 762 600 713 q 468 810 536 810 l 342 810 q 260 807 290 810 q 199 795 229 804 q 155 768 170 787 q 132 718 141 749 q 123 639 123 686 q 88 594 123 594 q 52 639 52 594 q 71 764 52 715 q 133 838 91 814 q 222 871 175 863 q 342 880 270 880 l 445 880 q 617 814 564 880 q 670 656 670 749 q 631 515 670 566 q 498 439 593 465 l 376 406 l 376 263 z "},"@":{"ha":804,"x_min":95,"x_max":712,"o":"m 384 -7 q 174 82 252 -7 q 95 327 95 171 l 95 536 q 174 781 95 692 q 384 869 252 869 l 423 869 q 633 781 555 869 q 712 536 712 692 q 711 465 712 492 q 703 405 709 438 q 684 351 696 372 q 649 310 671 331 q 595 277 627 289 q 516 258 563 266 q 408 251 469 251 q 273 297 309 251 q 237 450 237 343 q 273 602 237 556 q 408 648 309 648 q 544 602 507 648 q 581 450 581 556 q 567 339 581 381 q 626 389 610 351 q 642 536 642 427 q 586 730 642 661 q 423 799 530 799 l 384 799 q 220 730 275 799 q 165 536 165 661 l 165 327 q 220 133 165 202 q 384 64 275 64 l 566 64 q 625 82 608 64 q 642 148 642 100 q 675 193 642 193 q 712 144 712 193 q 707 90 712 113 q 690 43 703 66 q 648 6 677 19 q 575 -7 618 -7 l 384 -7 m 408 321 q 492 347 475 321 q 510 450 510 373 q 492 553 510 528 q 408 578 475 578 q 326 553 343 578 q 308 450 308 528 q 326 347 308 372 q 408 321 343 321 z "},"A":{"ha":773,"x_min":33,"x_max":741,"o":"m 429 863 l 736 34 q 741 12 741 22 q 728 -14 741 -5 q 705 -22 716 -22 q 669 9 682 -22 l 572 270 l 201 270 l 104 9 q 68 -22 91 -22 q 45 -14 57 -22 q 33 12 33 -5 q 37 34 33 22 l 345 863 l 429 863 m 385 760 l 228 340 l 545 340 l 385 760 z "},"B":{"ha":821,"x_min":114,"x_max":743,"o":"m 184 450 l 184 71 l 442 71 q 624 101 575 71 q 673 241 673 132 l 673 279 q 625 420 673 389 q 450 450 578 450 l 184 450 m 114 49 l 114 814 q 146 863 114 863 l 391 863 q 614 821 541 863 q 686 659 686 779 q 620 507 686 556 q 713 432 682 484 q 743 283 743 380 l 743 244 q 671 49 743 98 q 442 0 598 0 l 146 0 q 114 49 114 0 m 391 521 q 566 547 515 521 q 616 652 616 572 q 566 762 616 738 q 391 785 517 785 l 184 785 l 184 521 l 391 521 z "},"C":{"ha":803,"x_min":98,"x_max":727,"o":"m 591 0 l 400 0 q 170 49 243 0 q 98 244 98 98 l 98 618 q 170 814 98 765 q 392 863 241 863 l 591 863 q 664 850 635 863 q 706 813 693 837 q 723 766 719 789 q 727 711 727 743 q 692 663 727 663 q 656 708 656 663 q 640 774 656 755 q 582 792 624 792 l 392 792 q 290 787 327 792 q 222 765 254 783 q 180 712 191 747 q 168 618 168 677 l 168 244 q 217 101 168 132 q 400 71 266 71 l 582 71 q 641 90 625 71 q 656 155 656 109 q 692 199 656 199 q 727 151 727 199 q 723 96 727 119 q 706 50 719 73 q 664 13 693 26 q 591 0 635 0 z "},"D":{"ha":841,"x_min":114,"x_max":743,"o":"m 743 618 l 743 244 q 671 49 743 98 q 442 0 598 0 l 146 0 q 114 49 114 0 l 114 814 q 146 863 114 863 l 450 863 q 572 854 524 863 q 663 819 621 845 q 724 744 704 793 q 743 618 743 694 m 673 244 l 673 618 q 625 761 673 730 q 450 792 578 792 l 184 792 l 184 71 l 442 71 q 624 101 575 71 q 673 244 673 132 z "},"E":{"ha":811,"x_min":114,"x_max":743,"o":"m 184 450 l 184 71 l 697 71 q 743 33 743 71 q 697 0 743 0 l 146 0 q 114 49 114 0 l 114 814 q 146 863 114 863 l 697 863 q 743 825 743 863 q 697 792 743 792 l 184 792 l 184 521 l 536 521 q 585 483 585 521 q 536 450 585 450 l 184 450 z "},"F":{"ha":783,"x_min":114,"x_max":743,"o":"m 184 37 q 149 -9 184 -9 q 114 38 114 -9 l 114 814 q 146 863 114 863 l 697 863 q 743 825 743 863 q 697 792 743 792 l 184 792 l 184 521 l 536 521 q 585 483 585 521 q 536 450 585 450 l 184 450 l 184 37 z "},"G":{"ha":822,"x_min":98,"x_max":727,"o":"m 656 334 l 479 334 q 430 368 430 334 q 479 404 430 404 l 727 404 l 727 148 q 701 41 727 81 q 591 0 674 0 l 392 0 q 269 9 317 0 q 178 42 220 18 q 117 115 137 66 q 98 240 98 164 l 98 623 q 170 814 98 766 q 400 863 243 863 l 591 863 q 664 850 635 863 q 706 813 693 837 q 723 766 719 789 q 727 712 727 743 q 692 663 727 663 q 656 709 656 663 q 641 773 656 754 q 582 792 625 792 l 400 792 q 217 762 266 792 q 168 621 168 731 l 168 241 q 216 101 168 132 q 392 71 264 71 l 582 71 q 641 89 625 71 q 656 152 656 107 l 656 334 z "},"H":{"ha":857,"x_min":114,"x_max":743,"o":"m 184 37 q 149 -9 184 -9 q 114 37 114 -9 l 114 825 q 146 872 114 872 q 184 825 184 872 l 184 500 l 673 500 l 673 825 q 707 872 673 872 q 743 825 743 872 l 743 37 q 709 -9 743 -9 q 673 37 673 -9 l 673 430 l 184 430 l 184 37 z "},"I":{"ha":298,"x_min":114,"x_max":184,"o":"m 184 34 q 148 -9 184 -9 q 114 34 114 -9 l 114 827 q 149 872 114 872 q 184 827 184 872 l 184 34 z "},"J":{"ha":746,"x_min":43,"x_max":636,"o":"m 340 60 q 517 90 469 60 q 566 231 566 121 l 566 829 q 601 872 566 872 q 636 827 636 872 l 636 229 q 616 104 636 153 q 555 31 597 56 q 465 -2 514 7 q 340 -11 415 -11 q 216 -2 266 -11 q 125 32 167 7 q 63 106 83 57 q 43 233 43 156 q 81 278 43 278 q 115 233 115 278 q 163 90 115 121 q 340 60 210 60 z "},"K":{"ha":703,"x_min":114,"x_max":697,"o":"m 682 56 q 697 24 697 38 q 685 1 697 11 q 662 -9 673 -9 q 628 11 644 -9 l 256 437 l 184 350 l 184 34 q 148 -9 184 -9 q 114 34 114 -9 l 114 827 q 149 872 114 872 q 184 827 184 872 l 184 448 l 538 852 q 572 872 553 872 q 595 863 583 872 q 606 840 606 853 q 593 807 606 825 l 304 483 l 682 56 z "},"L":{"ha":700,"x_min":114,"x_max":667,"o":"m 146 0 q 114 47 114 0 l 114 829 q 149 872 114 872 q 184 829 184 872 l 184 71 l 623 71 q 667 34 667 71 q 623 0 667 0 l 146 0 z "},"M":{"ha":886,"x_min":114,"x_max":772,"o":"m 442 378 q 419 389 427 378 l 184 739 l 184 38 q 149 -9 184 -9 q 114 37 114 -9 l 114 825 q 146 872 114 872 q 187 846 171 872 l 442 469 l 699 846 q 738 872 716 872 q 772 825 772 872 l 772 37 q 735 -9 772 -9 q 701 38 701 -9 l 701 739 l 467 389 q 442 378 458 378 z "},"N":{"ha":857,"x_min":114,"x_max":743,"o":"m 709 -9 q 682 0 690 -9 l 184 736 l 184 35 q 149 -9 184 -9 q 114 37 114 -9 l 114 825 q 146 872 114 872 q 187 846 171 872 l 673 130 l 673 823 q 707 872 673 872 q 743 825 743 872 l 743 37 q 709 -9 743 -9 z "},"O":{"ha":806,"x_min":88,"x_max":718,"o":"m 629 74 q 585 31 629 74 q 403 -12 541 -12 q 176 73 264 -12 q 88 309 88 159 l 88 553 q 176 789 88 704 q 403 875 264 875 q 629 789 541 875 q 718 553 718 703 l 718 309 q 629 74 718 160 m 583 738 q 551 771 583 738 q 403 804 519 804 q 222 738 286 804 q 159 552 159 671 l 159 311 q 222 125 159 191 q 403 58 286 58 q 583 125 519 58 q 647 311 647 191 l 647 552 q 583 738 647 671 z "},"P":{"ha":732,"x_min":114,"x_max":686,"o":"m 184 34 q 148 -9 184 -9 q 114 34 114 -9 l 114 814 q 146 863 114 863 l 392 863 q 612 818 538 863 q 686 652 686 773 q 625 497 686 551 q 452 444 563 444 l 184 444 l 184 34 m 392 514 q 566 541 517 514 q 616 652 616 568 q 566 766 616 739 q 392 792 515 792 l 184 792 l 184 514 l 392 514 z "},"Q":{"ha":806,"x_min":88,"x_max":718,"o":"m 583 738 q 551 771 583 738 q 403 804 519 804 q 222 738 286 804 q 159 552 159 671 l 159 311 q 222 125 159 191 q 403 58 286 58 q 551 98 495 58 l 475 168 q 457 199 457 183 q 467 224 457 213 q 492 235 477 235 q 528 217 509 235 l 601 145 q 647 311 647 208 l 647 552 q 583 738 647 671 m 403 -12 q 176 73 264 -12 q 88 309 88 159 l 88 553 q 176 789 88 704 q 403 875 264 875 q 629 789 541 875 q 718 553 718 703 l 718 309 q 651 96 718 178 l 699 50 q 713 18 713 33 q 704 -5 713 5 q 681 -16 694 -16 q 648 -1 663 -16 l 601 46 q 403 -12 519 -12 z "},"R":{"ha":772,"x_min":114,"x_max":697,"o":"m 391 507 q 566 534 517 507 q 616 646 616 562 q 566 759 616 732 q 391 785 515 785 l 184 785 l 184 507 l 391 507 m 528 450 q 614 305 572 407 q 677 126 656 203 q 697 34 697 49 q 687 3 697 15 q 661 -9 677 -9 q 635 3 644 -9 q 627 34 627 16 q 608 123 627 52 q 543 294 589 195 q 439 437 496 393 l 184 437 l 184 34 q 148 -9 184 -9 q 114 34 114 -9 l 114 814 q 146 863 114 863 l 391 863 q 612 818 538 863 q 686 652 686 773 q 528 450 686 483 z "},"S":{"ha":812,"x_min":83,"x_max":728,"o":"m 153 652 q 177 559 153 598 q 235 514 201 521 l 556 445 q 688 361 647 425 q 728 212 728 297 q 675 55 728 121 q 498 -11 621 -11 l 385 -11 q 258 -2 308 -11 q 165 32 208 7 q 102 106 122 57 q 83 233 83 156 q 121 278 83 278 q 155 233 155 278 q 203 90 155 121 q 385 60 251 60 l 524 60 q 627 109 595 60 q 658 213 658 157 q 631 321 658 279 q 576 369 605 362 l 258 439 q 123 511 163 460 q 83 654 83 562 q 138 809 83 745 q 323 873 194 873 l 426 873 q 553 865 503 873 q 646 831 602 856 q 709 758 689 807 q 728 632 728 709 q 692 587 728 587 q 656 632 656 587 q 609 774 656 745 q 426 803 562 803 l 293 803 q 186 755 220 803 q 153 652 153 708 z "},"T":{"ha":652,"x_min":37,"x_max":616,"o":"m 571 863 q 616 826 616 863 q 571 792 616 792 l 365 792 l 365 34 q 326 -9 365 -9 q 290 34 290 -9 l 290 792 l 81 792 q 37 827 37 792 q 81 863 37 863 l 571 863 z "},"U":{"ha":841,"x_min":106,"x_max":735,"o":"m 665 829 q 701 872 665 872 q 735 827 735 872 l 735 309 q 647 74 735 160 q 420 -12 559 -12 q 194 73 282 -12 q 106 309 106 159 l 106 827 q 141 872 106 872 q 176 829 176 872 l 176 311 q 240 125 176 191 q 420 58 304 58 q 601 125 537 58 q 665 311 665 191 l 665 829 z "},"V":{"ha":773,"x_min":33,"x_max":741,"o":"m 388 103 l 669 853 q 705 884 682 884 q 728 876 716 884 q 741 850 741 868 q 736 829 741 841 l 429 0 l 345 0 l 37 829 q 33 850 33 841 q 45 876 33 868 q 68 884 57 884 q 104 853 91 884 l 388 103 z "},"W":{"ha":1241,"x_min":37,"x_max":1204,"o":"m 901 98 l 1134 850 q 1172 880 1145 880 q 1204 854 1204 880 q 1199 830 1204 846 l 939 0 l 860 0 l 620 750 l 381 0 l 304 0 l 42 836 q 37 860 37 852 q 69 886 37 886 q 107 856 96 886 l 343 98 l 581 849 q 620 884 593 884 q 662 849 651 884 l 901 98 z "},"X":{"ha":758,"x_min":49,"x_max":709,"o":"m 674 872 q 697 864 685 872 q 709 837 709 856 q 699 808 709 821 l 423 430 l 699 53 q 709 23 709 38 q 698 -1 709 8 q 674 -9 686 -9 q 640 12 656 -9 l 378 376 l 118 12 q 83 -9 102 -9 q 60 0 71 -9 q 49 23 49 9 q 60 53 49 38 l 335 430 l 60 808 q 49 837 49 821 q 61 864 49 856 q 83 872 73 872 q 118 848 100 872 l 378 486 l 640 848 q 674 872 659 872 z "},"Y":{"ha":707,"x_min":23,"x_max":682,"o":"m 317 418 l 34 810 q 23 838 23 826 q 34 863 23 853 q 57 872 45 872 q 91 848 72 872 l 353 486 l 613 848 q 648 872 631 872 q 671 862 659 872 q 682 838 682 852 q 671 810 682 826 l 389 418 l 389 33 q 353 -9 389 -9 q 317 33 317 -9 l 317 418 z "},"Z":{"ha":753,"x_min":61,"x_max":690,"o":"m 62 0 l 62 69 l 606 806 l 110 806 q 61 841 61 806 q 110 876 61 876 l 690 876 l 690 804 l 149 71 l 643 71 q 690 34 690 71 q 643 0 690 0 l 62 0 z "},"[":{"ha":346,"x_min":109,"x_max":285,"o":"m 179 856 l 179 7 l 285 7 l 285 -64 l 109 -64 l 109 926 l 285 926 l 285 856 l 179 856 z "},"\\":{"ha":487,"x_min":58,"x_max":429,"o":"m 129 850 l 425 39 q 429 15 429 23 q 416 -10 429 -3 q 392 -18 404 -18 q 358 14 369 -18 l 62 825 q 58 849 58 838 q 70 874 58 867 q 94 882 81 882 q 129 850 118 882 z "},"]":{"ha":346,"x_min":61,"x_max":237,"o":"m 167 7 l 167 856 l 61 856 l 61 926 l 237 926 l 237 -64 l 61 -64 l 61 7 l 167 7 z "},"^":{"ha":601,"x_min":109,"x_max":492,"o":"m 301 788 l 179 517 q 140 488 164 488 q 117 497 126 488 q 109 519 109 506 q 111 536 109 525 l 260 869 l 342 869 l 490 536 q 492 519 492 530 q 461 488 492 488 q 422 517 437 488 l 301 788 z "},"_":{"ha":644,"x_min":-7,"x_max":651,"o":"m -7 -27 q 38 7 -7 7 l 606 7 q 651 -30 651 7 q 606 -64 651 -64 l 38 -64 q -7 -27 -7 -64 z "},"`":{"ha":288,"x_min":39,"x_max":250,"o":"m 73 926 q 107 906 90 926 l 237 750 q 250 719 250 735 q 239 694 250 704 q 216 685 228 685 q 182 705 201 685 l 52 861 q 39 891 39 876 q 50 916 39 906 q 73 926 61 926 z "},"a":{"ha":751,"x_min":81,"x_max":654,"o":"m 384 330 q 277 325 315 330 q 208 303 240 320 q 163 252 175 286 q 152 160 152 218 q 175 98 152 125 q 227 71 198 71 l 353 71 q 525 132 467 71 q 583 309 583 194 l 583 330 l 384 330 m 384 400 l 583 400 l 583 477 q 568 537 583 519 q 509 555 552 555 l 317 555 q 152 473 152 555 q 115 426 152 426 q 81 473 81 426 q 144 589 81 552 q 308 625 206 625 l 518 625 q 625 587 597 625 q 654 454 654 549 l 654 37 q 618 -9 654 -9 q 583 38 583 -9 l 583 85 q 353 0 506 0 l 227 0 q 122 45 163 0 q 81 167 81 91 q 155 352 81 304 q 384 400 229 400 z "},"b":{"ha":829,"x_min":102,"x_max":745,"o":"m 172 540 q 404 625 252 625 l 444 625 q 672 577 600 625 q 745 387 745 529 l 745 239 q 672 48 745 96 q 444 0 600 0 l 404 0 q 172 85 252 0 l 172 38 q 137 -9 172 -9 q 102 37 102 -9 l 102 823 q 134 872 102 872 q 172 823 172 872 l 172 540 m 404 555 q 172 315 172 555 l 172 309 q 404 71 172 71 l 444 71 q 550 75 513 71 q 619 97 587 80 q 663 148 651 114 q 674 240 674 182 l 674 385 q 663 477 674 444 q 619 528 651 511 q 550 550 587 545 q 444 555 513 555 l 404 555 z "},"c":{"ha":792,"x_min":84,"x_max":713,"o":"m 578 0 l 387 0 q 157 48 231 0 q 84 239 84 96 l 84 387 q 157 577 84 529 q 387 625 231 625 l 578 625 q 650 612 621 625 q 692 575 680 600 q 709 528 705 551 q 713 473 713 505 q 678 426 713 426 q 643 471 643 426 q 627 536 643 518 q 568 555 610 555 l 387 555 q 280 550 317 555 q 210 528 243 545 q 166 477 178 511 q 155 385 155 444 l 155 240 q 166 148 155 182 q 210 97 178 114 q 280 75 243 80 q 387 71 317 71 l 568 71 q 627 90 612 71 q 643 155 643 109 q 678 199 643 199 q 713 151 713 199 q 709 96 713 119 q 692 50 705 73 q 650 13 680 26 q 578 0 621 0 z "},"d":{"ha":829,"x_min":84,"x_max":727,"o":"m 656 625 l 656 823 q 694 872 656 872 q 727 823 727 872 l 727 37 q 692 -9 727 -9 q 656 38 656 -9 l 656 85 q 425 0 576 0 l 385 0 q 157 48 229 0 q 84 239 84 96 l 84 387 q 157 577 84 529 q 385 625 229 625 l 656 625 m 656 555 l 385 555 q 279 550 316 555 q 210 528 241 545 q 166 477 178 511 q 155 385 155 444 l 155 240 q 166 148 155 182 q 210 97 178 114 q 279 75 241 80 q 385 71 316 71 l 425 71 q 656 309 656 71 l 656 555 z "},"e":{"ha":803,"x_min":84,"x_max":727,"o":"m 727 387 l 727 332 l 155 332 l 155 240 q 166 148 155 182 q 210 97 178 114 q 280 75 243 80 q 387 71 317 71 l 568 71 q 627 90 612 71 q 643 155 643 109 q 678 199 643 199 q 713 151 713 199 q 709 96 713 119 q 692 50 705 73 q 650 13 680 26 q 578 0 621 0 l 387 0 q 157 48 231 0 q 84 239 84 96 l 84 387 q 157 577 84 529 q 387 625 231 625 l 426 625 q 654 577 582 625 q 727 387 727 529 m 426 555 l 387 555 q 205 527 255 555 q 155 403 156 499 l 656 403 q 606 527 655 499 q 426 555 556 555 z "},"f":{"ha":438,"x_min":66,"x_max":446,"o":"m 397 792 q 299 787 334 792 q 234 766 264 783 q 191 716 203 750 q 179 625 179 682 l 366 625 q 415 587 415 625 q 366 555 415 555 l 179 555 l 179 38 q 141 -9 179 -9 q 109 38 109 -9 l 109 556 q 66 593 66 559 q 109 625 66 623 q 130 749 110 700 q 191 822 149 798 q 279 854 232 846 q 397 863 326 863 q 446 825 446 863 q 397 792 446 792 z "},"g":{"ha":829,"x_min":84,"x_max":727,"o":"m 727 -118 q 701 -242 727 -206 q 604 -278 675 -278 l 220 -278 q 147 -265 176 -278 q 105 -228 118 -252 q 88 -180 92 -203 q 84 -126 84 -157 q 119 -79 84 -79 q 155 -123 155 -79 q 171 -189 155 -171 q 229 -208 187 -208 l 594 -208 q 645 -194 633 -208 q 656 -140 656 -180 l 656 0 l 385 0 q 157 48 229 0 q 84 239 84 96 l 84 387 q 157 577 84 529 q 385 625 229 625 l 425 625 q 656 540 576 625 l 656 587 q 692 635 656 635 q 727 589 727 635 l 727 -118 m 656 71 l 656 316 q 425 555 656 555 l 385 555 q 279 550 316 555 q 210 528 241 545 q 166 477 178 511 q 155 385 155 444 l 155 240 q 166 148 155 182 q 210 97 178 114 q 279 75 241 80 q 385 71 316 71 l 656 71 z "},"h":{"ha":840,"x_min":102,"x_max":745,"o":"m 404 555 q 231 493 289 555 q 172 313 172 431 l 172 37 q 137 -9 172 -9 q 102 37 102 -9 l 102 823 q 134 872 102 872 q 172 823 172 872 l 172 540 q 404 625 252 625 l 444 625 q 672 577 600 625 q 745 387 745 529 l 745 37 q 711 -9 745 -9 q 674 37 674 -9 l 674 385 q 663 477 674 444 q 619 528 651 511 q 550 550 587 545 q 444 555 513 555 l 404 555 z "},"i":{"ha":271,"x_min":66,"x_max":205,"o":"m 134 -16 q 100 27 100 -16 l 100 597 q 136 642 100 642 q 171 597 171 642 l 171 27 q 134 -16 171 -16 m 136 871 q 181 854 157 871 q 205 815 205 838 q 181 776 205 792 q 136 760 157 760 q 90 776 113 760 q 66 815 66 792 q 90 854 66 838 q 136 871 113 871 z "},"j":{"ha":274,"x_min":-165,"x_max":203,"o":"m 134 871 q 180 854 156 871 q 203 815 203 838 q 180 776 203 792 q 134 760 156 760 q 88 776 111 760 q 65 815 65 792 q 88 854 65 838 q 134 871 111 871 m 172 0 q 153 -124 172 -76 q 92 -197 133 -172 q 3 -229 50 -221 q -117 -237 -45 -237 q -165 -201 -165 -237 q -117 -167 -165 -167 q 55 -137 8 -167 q 102 0 102 -107 l 102 586 q 138 635 102 635 q 172 586 172 635 l 172 0 z "},"k":{"ha":616,"x_min":102,"x_max":600,"o":"m 600 26 q 590 3 600 14 q 567 -8 581 -8 q 533 8 552 -8 l 212 319 l 172 279 l 172 34 q 136 -9 172 -9 q 102 33 102 -9 l 102 827 q 137 872 102 872 q 172 827 172 872 l 172 365 l 435 616 q 468 632 453 632 q 491 622 480 632 q 502 597 502 612 q 486 566 502 582 l 260 359 l 585 58 q 600 26 600 41 z "},"l":{"ha":368,"x_min":122,"x_max":315,"o":"m 267 0 l 258 0 q 151 39 179 0 q 122 172 122 77 l 122 825 q 157 872 122 872 q 193 825 193 872 l 193 149 q 208 88 193 106 q 267 71 224 71 q 315 34 315 71 q 267 0 315 0 z "},"m":{"ha":1126,"x_min":100,"x_max":1029,"o":"m 349 555 q 218 492 264 555 q 171 313 171 430 l 171 37 q 136 -9 171 -9 q 100 37 100 -9 l 100 587 q 133 635 100 635 q 171 586 171 635 l 171 540 q 248 606 209 586 q 349 625 288 625 q 498 603 441 625 q 581 517 555 581 q 780 625 650 625 q 967 576 905 625 q 1029 387 1029 528 l 1029 37 q 994 -9 1029 -9 q 959 37 959 -9 l 959 385 q 950 477 959 444 q 917 528 941 511 q 863 550 892 545 q 780 555 834 555 q 647 492 694 555 q 600 313 600 430 l 600 37 q 566 -9 600 -9 q 529 37 529 -9 l 529 385 q 492 525 529 495 q 349 555 454 555 z "},"n":{"ha":837,"x_min":100,"x_max":743,"o":"m 403 555 q 229 493 288 555 q 171 313 171 431 l 171 37 q 136 -9 171 -9 q 100 37 100 -9 l 100 587 q 133 635 100 635 q 171 586 171 635 l 171 540 q 403 625 251 625 l 442 625 q 671 577 598 625 q 743 387 743 529 l 743 37 q 709 -9 743 -9 q 673 37 673 -9 l 673 385 q 661 477 673 444 q 618 528 650 511 q 549 550 586 545 q 442 555 511 555 l 403 555 z "},"o":{"ha":811,"x_min":84,"x_max":727,"o":"m 426 0 l 387 0 q 157 48 231 0 q 84 239 84 96 l 84 387 q 157 577 84 529 q 387 625 231 625 l 426 625 q 654 577 582 625 q 727 387 727 529 l 727 239 q 654 48 727 96 q 426 0 582 0 m 387 71 l 426 71 q 532 75 495 71 q 602 97 570 80 q 645 148 633 114 q 656 240 656 182 l 656 385 q 645 477 656 444 q 602 528 633 511 q 532 550 570 545 q 426 555 495 555 l 387 555 q 280 550 317 555 q 210 528 243 545 q 166 477 178 511 q 155 385 155 444 l 155 240 q 166 148 155 182 q 210 97 178 114 q 280 75 243 80 q 387 71 317 71 z "},"p":{"ha":829,"x_min":102,"x_max":745,"o":"m 674 385 q 663 477 674 444 q 619 528 651 511 q 550 550 587 545 q 444 555 513 555 l 404 555 q 172 315 172 555 l 172 71 l 445 71 q 626 100 578 71 q 674 240 674 130 l 674 385 m 745 239 q 672 48 745 96 q 445 0 600 0 l 172 0 l 172 -199 q 134 -247 172 -247 q 102 -199 102 -247 l 102 589 q 137 635 102 635 q 172 587 172 635 l 172 540 q 404 625 252 625 l 444 625 q 672 577 600 625 q 745 387 745 529 l 745 239 z "},"q":{"ha":829,"x_min":84,"x_max":727,"o":"m 155 385 l 155 240 q 166 148 155 182 q 210 97 178 114 q 279 75 241 80 q 385 71 316 71 l 656 71 l 656 315 q 426 555 656 555 l 387 555 q 280 550 317 555 q 210 528 243 545 q 166 477 178 511 q 155 385 155 444 m 84 239 l 84 387 q 157 577 84 529 q 387 625 231 625 l 426 625 q 656 540 579 625 l 656 587 q 692 635 656 635 q 727 589 727 635 l 727 -199 q 694 -247 727 -247 q 656 -199 656 -247 l 656 0 l 385 0 q 157 48 229 0 q 84 239 84 96 z "},"r":{"ha":519,"x_min":100,"x_max":499,"o":"m 389 555 q 227 492 283 555 q 171 313 171 430 l 171 37 q 136 -9 171 -9 q 100 37 100 -9 l 100 587 q 133 635 100 635 q 171 586 171 635 l 171 540 q 389 625 251 625 l 452 625 q 499 590 499 625 q 452 555 499 555 l 389 555 z "},"s":{"ha":795,"x_min":81,"x_max":713,"o":"m 217 0 q 144 13 174 0 q 102 50 115 26 q 85 96 90 73 q 81 151 81 119 q 117 199 81 199 q 152 155 152 199 q 168 90 152 109 q 227 71 183 71 l 563 71 q 643 171 643 71 q 621 253 643 221 q 563 285 598 285 l 256 285 q 81 461 81 285 q 123 584 81 543 q 270 625 165 625 l 575 625 q 648 612 618 625 q 690 575 677 600 q 707 528 703 551 q 711 473 711 505 q 675 426 711 426 q 640 471 640 426 q 624 536 640 518 q 566 555 608 555 l 232 555 q 152 461 152 555 q 174 382 152 410 q 232 355 197 355 l 540 355 q 674 302 635 355 q 713 171 713 250 q 671 43 713 87 q 526 0 628 0 l 217 0 z "},"t":{"ha":467,"x_min":64,"x_max":442,"o":"m 176 240 q 223 100 176 130 q 395 71 270 71 q 442 38 442 71 q 395 0 442 0 q 177 49 248 0 q 106 239 106 98 l 106 556 q 64 593 64 559 q 106 625 64 623 l 106 766 q 138 815 106 815 q 176 766 176 815 l 176 625 l 363 625 q 412 587 412 625 q 363 555 412 555 l 176 555 l 176 240 z "},"u":{"ha":838,"x_min":95,"x_max":738,"o":"m 435 71 q 609 132 551 71 q 667 312 667 194 l 667 589 q 703 635 667 635 q 738 589 738 635 l 738 38 q 705 -9 738 -9 q 667 39 667 -9 l 667 85 q 435 0 587 0 l 396 0 q 168 48 240 0 q 95 239 95 96 l 95 589 q 129 635 95 635 q 165 589 165 635 l 165 240 q 177 148 165 182 q 220 97 189 114 q 290 75 252 80 q 396 71 327 71 l 435 71 z "},"v":{"ha":690,"x_min":38,"x_max":654,"o":"m 288 0 l 43 591 q 38 613 38 604 q 71 642 38 642 q 109 612 95 642 l 342 69 l 583 613 q 621 642 595 642 q 654 614 654 642 q 648 591 654 604 l 388 0 l 288 0 z "},"w":{"ha":1074,"x_min":42,"x_max":1034,"o":"m 1028 591 l 818 0 l 711 0 l 538 507 l 353 0 l 245 0 l 47 591 q 42 616 42 608 q 75 642 42 642 q 113 612 102 642 l 302 65 l 500 605 q 540 633 511 633 q 576 605 567 633 l 766 65 l 963 612 q 1001 642 974 642 q 1034 616 1034 642 q 1028 591 1034 608 z "},"x":{"ha":694,"x_min":54,"x_max":640,"o":"m 640 16 q 629 -6 640 3 q 606 -15 618 -15 q 574 1 590 -15 l 349 263 l 122 1 q 88 -15 103 -15 q 65 -6 76 -15 q 54 16 54 3 q 68 49 54 22 l 300 312 l 68 576 q 54 608 54 593 q 65 631 54 621 q 88 640 76 640 q 122 624 103 640 l 349 362 l 574 624 q 606 640 590 640 q 629 631 618 640 q 640 608 640 621 q 627 576 640 593 l 395 312 l 627 49 q 640 16 640 28 z "},"y":{"ha":840,"x_min":95,"x_max":738,"o":"m 738 -118 q 712 -242 738 -206 q 614 -278 686 -278 l 231 -278 q 158 -265 187 -278 q 116 -228 129 -252 q 99 -180 103 -203 q 95 -126 95 -157 q 130 -79 95 -79 q 165 -123 165 -79 q 182 -189 165 -171 q 240 -208 198 -208 l 605 -208 q 656 -194 644 -208 q 667 -140 667 -180 l 667 85 q 435 0 587 0 l 396 0 q 168 48 240 0 q 95 239 95 96 l 95 589 q 129 635 95 635 q 165 589 165 635 l 165 240 q 177 148 165 182 q 220 97 189 114 q 290 75 252 80 q 396 71 327 71 l 435 71 q 609 132 551 71 q 667 312 667 194 l 667 589 q 703 635 667 635 q 738 589 738 635 l 738 -118 z "},"z":{"ha":749,"x_min":80,"x_max":680,"o":"m 171 71 l 533 71 q 595 95 582 71 q 609 175 609 119 q 644 224 609 224 q 680 175 680 224 q 651 40 680 80 q 544 0 623 0 l 80 0 l 80 87 l 564 555 l 225 555 q 164 530 178 555 q 151 450 151 506 q 114 401 151 401 q 80 450 80 401 q 109 586 80 547 q 216 625 137 625 l 651 625 l 651 534 l 171 71 z "},"{":{"ha":355,"x_min":52,"x_max":289,"o":"m 221 320 q 202 222 221 285 q 183 146 183 160 q 200 29 183 52 q 289 7 217 7 l 289 -64 q 153 -23 194 -64 q 113 146 113 18 q 132 235 113 172 q 151 320 151 297 q 115 380 151 350 q 52 425 80 411 l 52 435 q 115 481 80 450 q 151 543 151 513 q 132 628 151 566 q 113 716 113 690 q 153 886 113 845 q 289 926 194 926 l 289 856 q 201 833 218 856 q 183 716 183 810 q 202 640 183 703 q 221 543 221 578 q 125 430 221 488 q 221 320 221 377 z "},"|":{"ha":290,"x_min":110,"x_max":180,"o":"m 180 34 q 144 -9 180 -9 q 110 34 110 -9 l 110 827 q 145 872 110 872 q 180 827 180 872 l 180 34 z "},"}":{"ha":355,"x_min":66,"x_max":304,"o":"m 134 320 q 231 430 134 377 q 134 543 134 488 q 153 640 134 578 q 172 716 172 703 q 155 833 172 810 q 66 856 137 856 l 66 926 q 202 886 161 926 q 243 716 243 845 q 224 628 243 690 q 205 543 205 566 q 240 481 205 513 q 304 435 275 450 l 304 425 q 240 380 275 411 q 205 320 205 350 q 224 235 205 297 q 243 146 243 172 q 202 -23 243 18 q 66 -64 161 -64 l 66 7 q 155 29 138 7 q 172 146 172 52 q 153 222 172 160 q 134 320 134 285 z "},"~":{"ha":576,"x_min":96,"x_max":479,"o":"m 361 317 q 372 323 365 317 l 414 361 q 444 373 431 373 q 468 365 457 373 q 479 342 479 357 q 460 305 479 323 l 396 252 q 370 241 385 241 q 365 242 368 241 q 360 243 362 243 q 355 244 358 243 l 354 244 l 221 293 q 213 296 218 296 q 202 290 209 296 l 160 252 q 130 240 142 240 q 107 249 118 240 q 96 273 96 258 q 115 308 96 293 l 178 359 q 203 372 187 372 q 213 370 206 372 q 221 369 220 369 l 354 320 l 361 317 z "},"¡":{"ha":312,"x_min":85,"x_max":225,"o":"m 155 -231 q 121 -187 121 -231 l 121 382 q 156 427 121 427 q 191 382 191 427 l 191 -187 q 155 -231 191 -231 m 155 666 q 202 650 179 666 q 225 610 225 633 q 201 571 225 587 q 155 555 178 555 q 109 571 133 555 q 85 610 85 587 q 109 650 85 633 q 155 666 133 666 z "},"¢":{"ha":648,"x_min":66,"x_max":571,"o":"m 330 -16 q 296 27 296 -16 l 296 160 q 123 220 180 167 q 66 404 66 273 l 66 461 q 125 644 66 590 q 296 704 183 697 l 296 834 q 332 879 296 879 q 366 834 366 879 l 366 705 l 437 705 q 509 692 480 705 q 550 656 537 680 q 567 610 563 632 q 571 555 571 587 q 537 506 571 506 q 500 552 500 506 q 485 617 500 600 q 427 635 469 635 l 366 635 l 366 231 l 425 231 q 484 248 467 231 q 500 313 500 266 q 534 359 500 359 q 571 311 571 359 q 566 256 571 279 q 549 210 562 233 q 507 173 536 186 q 434 160 477 160 l 366 160 l 366 27 q 330 -16 366 -16 m 296 232 l 296 633 q 174 593 210 629 q 137 461 137 557 l 137 404 q 172 271 137 305 q 296 232 208 236 z "},"£":{"ha":680,"x_min":88,"x_max":601,"o":"m 88 31 q 90 43 88 39 l 141 635 q 170 762 148 711 q 230 837 193 812 q 304 870 267 861 q 391 879 342 879 q 543 838 487 879 q 598 680 598 796 q 562 635 598 635 q 528 680 528 635 q 494 785 528 762 q 385 808 460 808 q 263 776 305 808 q 212 635 221 743 l 199 500 l 245 500 q 289 464 289 500 q 245 430 289 430 l 194 430 l 161 64 l 556 64 q 601 27 601 64 q 556 -7 601 -7 l 118 -7 q 88 31 88 -7 z "},"¤":{"ha":671,"x_min":92,"x_max":579,"o":"m 194 312 q 236 212 194 254 q 336 171 278 171 q 436 212 395 171 q 477 312 477 254 q 436 412 477 370 q 336 454 395 454 q 235 413 277 454 q 194 312 194 372 m 134 312 q 170 427 134 377 l 109 488 q 92 521 92 507 q 104 544 92 533 q 126 555 115 555 q 159 538 140 555 l 220 477 q 336 514 271 514 q 452 477 401 514 l 511 538 q 545 555 529 555 q 568 546 556 555 q 579 522 579 537 q 560 488 579 505 l 500 427 q 537 312 537 378 q 500 197 537 247 l 560 137 q 579 104 579 118 q 568 81 579 94 q 544 69 556 69 q 511 88 529 69 l 452 148 q 336 111 401 111 q 220 148 271 111 l 159 88 q 125 69 142 69 q 103 79 114 69 q 92 103 92 88 q 109 137 92 119 l 170 198 q 134 312 134 248 z "},"¥":{"ha":730,"x_min":42,"x_max":688,"o":"m 53 815 q 42 845 42 831 q 53 869 42 860 q 76 879 64 879 q 110 854 91 879 l 365 492 l 618 854 q 654 879 635 879 q 676 869 665 879 q 688 845 688 859 q 677 815 688 831 l 400 418 l 400 376 l 528 376 q 572 339 572 376 q 528 305 572 305 l 400 305 l 400 255 l 528 255 q 572 218 572 255 q 528 184 572 184 l 400 184 l 400 27 q 365 -16 400 -16 q 331 27 331 -16 l 331 184 l 195 184 q 152 221 152 184 q 195 255 152 255 l 331 255 l 331 305 l 195 305 q 152 342 152 305 q 195 376 152 376 l 331 376 l 331 418 l 53 815 z "},"¦":{"ha":289,"x_min":110,"x_max":179,"o":"m 145 879 q 179 836 179 879 l 179 544 q 142 499 179 499 q 110 544 110 499 l 110 836 q 145 879 110 879 m 145 363 q 179 321 179 363 l 179 30 q 142 -16 179 -16 q 110 30 110 -16 l 110 321 q 145 363 110 363 z "},"§":{"ha":705,"x_min":102,"x_max":604,"o":"m 541 263 q 604 134 604 227 q 461 -7 604 -7 l 212 -7 q 123 26 145 -7 q 102 117 102 60 q 138 157 102 157 q 163 146 153 157 q 172 119 172 136 q 182 74 172 84 q 227 64 191 64 l 476 64 q 521 80 509 64 q 533 134 533 96 q 480 229 533 222 l 243 263 q 102 415 102 282 q 164 543 102 511 q 102 671 102 579 q 244 812 102 812 l 495 812 q 566 793 541 812 q 597 749 591 773 q 604 689 604 726 q 568 648 604 648 q 543 659 552 648 q 533 686 533 670 q 524 732 533 722 q 479 742 514 742 l 229 742 q 184 725 197 742 q 172 671 172 708 q 225 576 172 583 l 463 543 q 604 392 604 524 q 541 263 604 294 m 172 415 q 243 334 172 361 q 423 307 315 307 q 513 320 494 307 q 533 392 533 334 q 456 474 533 449 q 282 499 380 499 q 192 486 212 499 q 172 415 172 472 z "},"¨":{"ha":498,"x_min":81,"x_max":418,"o":"m 151 910 q 196 894 172 910 q 220 854 220 878 q 196 815 220 831 q 151 799 172 799 q 104 815 127 799 q 81 854 81 831 q 104 894 81 878 q 151 910 127 910 m 349 910 q 394 894 370 910 q 418 854 418 878 q 394 815 418 831 q 349 799 370 799 q 302 815 326 799 q 279 854 279 831 q 302 894 279 878 q 349 910 326 910 z "},"©":{"ha":830,"x_min":107,"x_max":723,"o":"m 551 492 q 522 469 551 469 q 498 490 498 469 q 493 510 498 505 q 473 515 488 515 l 408 515 q 355 500 376 515 q 334 457 334 484 l 334 404 q 355 361 334 377 q 408 346 376 346 l 473 346 q 497 364 495 346 q 505 387 499 382 q 522 392 511 392 q 542 385 533 392 q 551 369 551 378 q 534 315 551 340 q 476 290 518 290 l 408 290 q 317 319 355 290 q 279 404 279 349 l 279 457 q 317 542 279 513 q 408 571 355 571 l 476 571 q 534 547 517 571 q 551 492 551 522 m 396 111 q 276 120 324 111 q 187 155 228 129 q 127 230 146 180 q 107 355 107 279 l 107 506 q 127 631 107 582 q 187 707 146 681 q 276 741 228 732 q 396 750 324 750 l 435 750 q 652 701 582 750 q 723 506 723 651 l 723 355 q 652 161 723 210 q 435 111 582 111 l 396 111 m 396 182 l 435 182 q 606 213 559 182 q 652 355 652 244 l 652 506 q 606 648 652 617 q 435 680 559 680 l 396 680 q 224 648 271 680 q 178 506 178 617 l 178 355 q 224 213 178 244 q 396 182 271 182 z "},"ª":{"ha":515,"x_min":88,"x_max":427,"o":"m 88 247 q 123 277 88 277 l 389 277 q 427 244 427 277 q 389 216 427 216 l 123 216 q 88 247 88 216 m 338 473 l 260 473 q 195 463 213 473 q 178 419 178 453 q 185 397 178 407 q 203 387 193 387 l 254 387 q 338 473 334 387 m 366 327 q 338 350 338 327 l 338 366 q 254 331 313 331 l 203 331 q 145 359 168 331 q 122 422 122 387 q 156 506 122 483 q 260 529 190 529 l 338 529 l 338 548 q 332 570 338 564 q 311 576 326 576 l 203 576 q 182 570 187 576 q 178 553 178 564 q 175 537 178 541 q 151 525 165 525 q 122 548 122 525 q 144 608 122 583 q 199 632 165 632 l 315 632 q 393 538 393 632 l 393 350 q 366 327 391 327 z "},"«":{"ha":682,"x_min":49,"x_max":587,"o":"m 282 486 l 529 715 q 560 726 540 726 q 587 699 587 726 q 568 655 587 675 l 358 452 l 568 247 q 587 203 587 227 q 560 176 587 176 q 529 186 538 176 l 282 415 q 258 452 258 434 q 282 486 258 464 m 73 486 l 320 715 q 351 726 331 726 q 378 699 378 726 q 359 655 378 675 l 149 452 l 359 247 q 378 203 378 227 q 351 176 378 176 q 320 186 330 176 l 73 415 q 49 452 49 434 q 73 486 49 464 z "},"¬":{"ha":708,"x_min":109,"x_max":601,"o":"m 601 191 q 563 146 601 146 q 529 191 529 146 l 529 277 l 151 277 q 109 313 109 277 q 151 349 109 349 l 555 349 q 601 305 601 349 l 601 191 z "},"­":{"ha":618,"x_min":99,"x_max":519,"o":"m 99 313 q 141 349 99 349 l 473 349 q 519 311 519 349 q 507 286 519 296 q 473 277 494 277 l 141 277 q 99 313 99 277 z "},"®":{"ha":830,"x_min":107,"x_max":723,"o":"m 396 182 l 435 182 q 606 213 559 182 q 652 355 652 244 l 652 506 q 606 648 652 617 q 435 680 559 680 l 396 680 q 224 648 271 680 q 178 506 178 617 l 178 355 q 224 213 178 244 q 396 182 271 182 m 396 111 q 276 120 324 111 q 187 155 228 129 q 127 230 146 180 q 107 355 107 279 l 107 506 q 127 631 107 582 q 187 707 146 681 q 276 741 228 732 q 396 750 324 750 l 435 750 q 652 701 582 750 q 723 506 723 651 l 723 355 q 652 161 723 210 q 435 111 582 111 l 396 111 m 566 294 q 557 281 566 286 q 538 275 548 275 q 518 281 526 275 q 510 293 510 288 q 481 347 506 309 q 426 404 457 385 l 330 404 l 330 294 q 301 275 330 275 q 282 281 290 275 q 274 294 274 286 l 274 557 q 282 572 274 566 q 300 578 290 578 l 414 578 q 562 490 562 578 q 544 440 562 463 q 496 408 526 418 q 541 352 515 392 q 566 294 566 312 m 414 460 q 486 465 467 460 q 506 490 506 471 q 487 516 506 510 q 414 522 468 522 l 330 522 l 330 460 l 414 460 z "},"¯":{"ha":582,"x_min":81,"x_max":502,"o":"m 81 949 q 123 985 81 985 l 456 985 q 502 947 502 985 q 489 922 502 932 q 456 913 476 913 l 123 913 q 81 949 81 913 z "},"°":{"ha":547,"x_min":72,"x_max":475,"o":"m 180 819 q 160 799 180 819 q 141 726 141 780 q 180 632 141 671 q 273 593 218 593 q 367 631 328 593 q 406 726 406 670 q 366 819 406 780 q 273 857 327 857 q 180 819 218 857 m 131 867 q 160 897 131 867 q 273 926 190 926 q 415 867 355 926 q 475 726 475 808 q 415 583 475 643 q 273 524 355 524 q 131 583 190 524 q 72 726 72 643 q 131 867 72 808 z "},"±":{"ha":785,"x_min":92,"x_max":693,"o":"m 693 34 q 680 9 693 19 q 647 0 667 0 l 134 0 q 92 38 92 0 q 134 72 92 72 l 647 72 q 693 34 693 72 m 427 194 q 392 151 427 151 q 357 194 357 151 l 357 359 l 134 359 q 92 397 92 359 q 134 431 92 431 l 357 431 l 357 597 q 393 642 357 642 q 427 597 427 642 l 427 431 l 647 431 q 693 395 693 431 q 647 359 693 359 l 427 359 l 427 194 z "},"²":{"ha":441,"x_min":61,"x_max":380,"o":"m 380 647 q 368 629 380 639 q 343 618 357 618 l 61 618 l 61 655 q 88 743 61 704 q 153 804 115 781 q 229 846 191 827 q 294 885 267 865 q 321 925 321 905 q 300 979 321 968 q 210 989 278 989 l 175 989 q 123 954 123 989 q 114 931 123 940 q 92 922 104 922 q 71 931 81 922 q 61 954 61 940 q 94 1021 61 994 q 170 1047 126 1047 l 210 1047 q 278 1044 252 1047 q 330 1029 304 1040 q 368 991 355 1017 q 380 925 380 966 q 341 852 380 887 q 256 797 302 818 q 170 744 210 776 q 125 677 129 712 l 343 677 q 369 667 358 675 q 380 647 380 658 z "},"³":{"ha":400,"x_min":43,"x_max":346,"o":"m 187 989 q 131 978 156 989 q 106 951 106 967 q 73 926 106 926 q 43 954 43 926 q 82 1017 43 986 q 182 1047 121 1047 l 198 1047 q 312 1019 278 1047 q 346 928 346 991 q 266 838 346 872 q 321 797 297 825 q 346 732 346 769 q 312 646 346 673 q 198 618 278 618 l 182 618 q 82 649 121 618 q 43 712 43 680 q 73 739 43 739 q 106 715 106 739 q 131 688 106 699 q 187 677 156 677 l 203 677 q 273 690 258 677 q 289 734 289 704 q 250 785 289 762 q 171 808 212 808 q 147 818 155 808 q 140 838 140 827 q 149 859 140 850 q 171 867 157 867 q 250 886 212 867 q 289 932 289 905 q 285 962 289 951 q 261 981 281 972 q 203 989 241 989 l 187 989 z "},"´":{"ha":288,"x_min":39,"x_max":250,"o":"m 237 861 l 107 705 q 73 685 90 685 q 51 695 62 685 q 39 719 39 705 q 52 750 39 735 l 182 906 q 216 926 201 926 q 239 916 228 926 q 250 891 250 906 q 237 861 250 876 z "},"µ":{"ha":779,"x_min":102,"x_max":680,"o":"m 609 309 l 609 594 q 643 642 609 642 q 680 594 680 642 l 680 33 q 646 -16 680 -16 q 609 33 609 -16 l 609 79 q 391 -7 529 -7 q 172 79 252 -7 l 172 -229 q 134 -278 172 -278 q 102 -229 102 -278 l 102 594 q 136 642 102 642 q 172 594 172 642 l 172 309 q 229 127 172 190 q 391 64 285 64 q 552 127 495 64 q 609 309 609 190 z "},"¶":{"ha":633,"x_min":47,"x_max":511,"o":"m 477 -16 q 441 27 441 -16 l 441 799 l 399 799 l 399 27 q 365 -16 399 -16 q 328 27 328 -16 l 328 450 l 278 450 q 109 504 170 450 q 47 659 47 557 q 120 825 47 780 q 335 869 193 869 l 511 869 l 511 27 q 477 -16 511 -16 z "},"·":{"ha":328,"x_min":95,"x_max":233,"o":"m 164 581 q 210 564 186 581 q 233 525 233 548 q 210 486 233 502 q 164 469 186 469 q 118 486 141 469 q 95 525 95 502 q 118 564 95 548 q 164 581 141 581 z "},"¸":{"ha":328,"x_min":50,"x_max":288,"o":"m 194 14 q 209 -25 194 -8 q 241 -52 224 -42 q 273 -81 258 -61 q 288 -127 288 -100 q 250 -207 288 -176 q 157 -237 212 -237 q 87 -221 123 -237 q 50 -170 50 -205 q 71 -145 50 -145 q 110 -157 79 -145 q 160 -170 141 -170 q 217 -134 217 -170 q 202 -106 217 -121 q 170 -80 187 -92 q 138 -43 153 -68 q 123 14 123 -19 l 194 14 z "},"¹":{"ha":209,"x_min":-9,"x_max":134,"o":"m 50 929 q 18 913 37 913 q -2 921 5 913 q -9 939 -9 929 q 7 968 -9 955 l 72 1036 q 103 1051 90 1051 q 124 1044 114 1051 q 134 1019 134 1036 l 134 651 q 104 614 134 614 q 75 651 75 614 l 75 954 l 50 929 z "},"º":{"ha":515,"x_min":88,"x_max":427,"o":"m 251 387 l 263 387 q 323 397 309 387 q 338 452 338 408 l 338 511 q 323 566 338 555 q 263 576 309 576 l 251 576 q 191 566 205 576 q 178 511 178 555 l 178 452 q 191 397 178 408 q 251 387 205 387 m 251 331 q 150 356 178 331 q 122 452 122 381 l 122 511 q 151 607 122 582 q 251 632 179 632 l 263 632 q 365 607 336 632 q 393 511 393 582 l 393 452 q 365 356 393 381 q 263 331 336 331 l 251 331 m 88 247 q 123 277 88 277 l 389 277 q 427 244 427 277 q 389 216 427 216 l 123 216 q 88 247 88 216 z "},"»":{"ha":682,"x_min":95,"x_max":633,"o":"m 609 486 q 633 452 633 464 q 609 415 633 434 l 362 186 q 331 176 353 176 q 304 203 304 176 q 323 247 304 227 l 533 452 l 323 655 q 304 699 304 675 q 331 726 304 726 q 362 715 351 726 l 609 486 m 400 486 q 425 452 425 464 q 400 415 425 434 l 153 186 q 122 176 144 176 q 95 203 95 176 q 114 247 95 227 l 324 452 l 114 655 q 95 699 95 675 q 122 726 95 726 q 153 715 142 726 l 400 486 z "},"¼":{"ha":792,"x_min":58,"x_max":732,"o":"m 180 747 q 148 731 167 731 q 128 739 136 731 q 121 757 121 747 q 137 787 121 773 l 202 854 q 233 869 220 869 q 254 862 244 869 q 264 837 264 854 l 264 469 q 235 433 264 433 q 205 469 205 433 l 205 772 l 180 747 m 690 704 q 674 671 690 688 l 119 115 q 85 99 102 99 q 58 126 58 99 q 75 160 58 142 l 631 715 q 663 731 647 731 q 690 704 690 731 m 637 129 l 637 24 q 608 -12 637 -12 q 578 24 578 -12 l 578 129 l 399 129 l 399 199 l 564 420 l 637 420 l 637 187 l 697 187 q 732 159 732 187 q 697 129 732 129 l 637 129 m 578 187 l 578 347 l 458 187 l 578 187 z "},"½":{"ha":830,"x_min":54,"x_max":758,"o":"m 686 704 q 670 671 686 688 l 115 115 q 81 99 98 99 q 54 126 54 99 q 71 160 54 142 l 627 715 q 659 731 643 731 q 686 704 686 731 m 758 20 q 747 2 758 12 q 722 -8 735 -8 l 439 -8 l 439 28 q 467 116 439 77 q 532 178 494 155 q 608 220 570 201 q 673 258 646 239 q 700 298 700 278 q 678 352 700 342 q 589 362 656 362 l 553 362 q 502 327 502 362 q 492 304 502 313 q 471 296 483 296 q 450 304 460 296 q 439 327 439 313 q 472 394 439 368 q 548 420 505 420 l 589 420 q 656 417 631 420 q 708 402 682 414 q 746 365 734 391 q 758 298 758 339 q 720 226 758 260 q 635 170 681 191 q 548 117 589 149 q 503 50 507 85 l 722 50 q 747 40 736 49 q 758 20 758 31 m 191 747 q 159 731 178 731 q 139 739 146 731 q 132 757 132 747 q 148 787 132 773 l 213 854 q 244 869 231 869 q 265 862 255 869 q 275 837 275 854 l 275 469 q 245 433 275 433 q 216 469 216 433 l 216 772 l 191 747 z "},"¾":{"ha":856,"x_min":85,"x_max":795,"o":"m 700 129 l 700 24 q 670 -12 700 -12 q 640 24 640 -12 l 640 129 l 461 129 l 461 199 l 627 420 l 700 420 l 700 187 l 760 187 q 795 159 795 187 q 760 129 795 129 l 700 129 m 640 187 l 640 347 l 521 187 l 640 187 m 760 704 q 743 671 760 688 l 189 115 q 155 99 171 99 q 127 126 127 99 q 144 160 127 142 l 700 715 q 732 731 716 731 q 760 704 760 731 m 229 811 q 173 800 198 811 q 148 773 148 789 q 115 749 148 749 q 85 776 85 749 q 124 839 85 808 q 224 869 163 869 l 240 869 q 354 842 320 869 q 388 750 388 814 q 308 661 388 694 q 363 619 339 647 q 388 555 388 591 q 354 468 388 495 q 240 441 320 441 l 224 441 q 124 471 163 441 q 85 534 85 502 q 115 562 85 562 q 148 537 148 562 q 173 510 148 521 q 229 499 198 499 l 245 499 q 315 513 300 499 q 331 556 331 526 q 292 608 331 585 q 213 631 254 631 q 189 640 197 631 q 182 661 182 650 q 191 681 182 673 q 213 689 199 689 q 292 708 254 689 q 331 754 331 727 q 327 784 331 773 q 303 803 323 795 q 245 811 283 811 l 229 811 z "},"¿":{"ha":718,"x_min":52,"x_max":670,"o":"m 382 555 q 336 571 359 555 q 312 610 312 587 q 335 650 312 633 q 382 666 358 666 q 428 650 404 666 q 452 610 452 633 q 428 571 452 587 q 382 555 404 555 m 346 387 q 382 431 346 431 q 416 387 416 431 l 416 191 l 203 133 q 145 85 168 123 q 122 -7 122 46 q 154 -112 122 -64 q 254 -160 186 -160 l 381 -160 q 481 -155 446 -160 q 545 -134 515 -151 q 587 -83 575 -118 q 598 11 598 -47 q 633 56 598 56 q 670 11 670 56 q 650 -115 670 -65 q 589 -189 631 -164 q 500 -222 548 -213 q 381 -231 453 -231 l 278 -231 q 105 -165 159 -231 q 52 -7 52 -99 q 91 134 52 84 q 225 210 130 184 l 346 244 l 346 387 z "},"À":{"ha":773,"x_min":33,"x_max":741,"o":"m 275 1111 q 308 1093 292 1111 l 403 1000 q 419 966 419 981 q 410 944 419 955 q 385 933 400 933 q 351 951 368 933 l 258 1043 q 240 1077 240 1063 q 251 1099 240 1088 q 275 1111 262 1111 m 429 863 l 736 34 q 741 12 741 22 q 728 -14 741 -5 q 705 -22 716 -22 q 669 9 682 -22 l 572 270 l 201 270 l 104 9 q 68 -22 91 -22 q 45 -14 57 -22 q 33 12 33 -5 q 37 34 33 22 l 345 863 l 429 863 m 385 760 l 228 340 l 545 340 l 385 760 z "},"Á":{"ha":773,"x_min":33,"x_max":741,"o":"m 490 1044 l 395 951 q 362 933 378 933 q 338 943 349 933 q 327 966 327 954 q 345 1001 327 981 l 438 1093 q 472 1111 454 1111 q 496 1099 487 1111 q 506 1077 506 1088 q 490 1044 506 1063 m 429 863 l 736 34 q 741 12 741 22 q 728 -14 741 -5 q 705 -22 716 -22 q 669 9 682 -22 l 572 270 l 201 270 l 104 9 q 68 -22 91 -22 q 45 -14 57 -22 q 33 12 33 -5 q 37 34 33 22 l 345 863 l 429 863 m 385 760 l 228 340 l 545 340 l 385 760 z "},"Â":{"ha":773,"x_min":33,"x_max":741,"o":"m 203 932 l 346 1111 l 426 1111 l 571 932 q 579 907 579 921 q 548 876 579 876 q 535 879 541 876 q 527 884 529 882 q 518 894 525 886 q 510 903 511 902 l 387 1034 l 264 903 q 258 895 262 901 q 251 888 254 890 q 245 882 248 886 q 237 878 241 879 q 227 876 232 876 q 195 907 195 876 q 203 932 195 921 m 429 863 l 736 34 q 741 12 741 22 q 728 -14 741 -5 q 705 -22 716 -22 q 669 9 682 -22 l 572 270 l 201 270 l 104 9 q 68 -22 91 -22 q 45 -14 57 -22 q 33 12 33 -5 q 37 34 33 22 l 345 863 l 429 863 m 385 760 l 228 340 l 545 340 l 385 760 z "},"Ã":{"ha":773,"x_min":33,"x_max":741,"o":"m 429 863 l 736 34 q 741 12 741 22 q 728 -14 741 -5 q 705 -22 716 -22 q 669 9 682 -22 l 572 270 l 201 270 l 104 9 q 68 -22 91 -22 q 45 -14 57 -22 q 33 12 33 -5 q 37 34 33 22 l 345 863 l 429 863 m 385 760 l 228 340 l 545 340 l 385 760 z "},"Ä":{"ha":773,"x_min":33,"x_max":741,"o":"m 288 1063 q 333 1047 309 1063 q 357 1008 357 1031 q 333 968 357 985 q 288 952 309 952 q 241 968 264 952 q 218 1008 218 985 q 241 1047 218 1031 q 288 1063 264 1063 m 486 1063 q 531 1047 507 1063 q 555 1008 555 1031 q 531 968 555 985 q 486 952 507 952 q 439 968 463 952 q 416 1008 416 985 q 439 1047 416 1031 q 486 1063 463 1063 m 429 863 l 736 34 q 741 12 741 22 q 728 -14 741 -5 q 705 -22 716 -22 q 669 9 682 -22 l 572 270 l 201 270 l 104 9 q 68 -22 91 -22 q 45 -14 57 -22 q 33 12 33 -5 q 37 34 33 22 l 345 863 l 429 863 m 385 760 l 228 340 l 545 340 l 385 760 z "},"Å":{"ha":773,"x_min":33,"x_max":741,"o":"m 327 1001 q 345 959 327 977 q 387 941 362 941 q 428 959 410 941 q 446 1001 446 977 q 428 1043 446 1025 q 387 1061 410 1061 q 345 1042 362 1061 q 327 1001 327 1024 m 309 1079 q 325 1095 309 1079 q 387 1111 340 1111 q 465 1079 433 1111 q 496 1001 496 1047 q 465 923 496 955 q 387 891 433 891 q 309 923 340 891 q 277 1001 277 955 q 309 1079 277 1047 m 429 863 l 736 34 q 741 12 741 22 q 728 -14 741 -5 q 705 -22 716 -22 q 669 9 682 -22 l 572 270 l 201 270 l 104 9 q 68 -22 91 -22 q 45 -14 57 -22 q 33 12 33 -5 q 37 34 33 22 l 345 863 l 429 863 m 385 760 l 228 340 l 545 340 l 385 760 z "},"Æ":{"ha":1176,"x_min":12,"x_max":1111,"o":"m 613 450 l 613 71 l 1065 71 q 1111 33 1111 71 q 1065 0 1111 0 l 575 0 q 543 49 543 0 l 543 270 l 251 270 l 84 9 q 39 -22 64 -22 q 12 3 12 -22 q 23 34 12 16 l 549 856 q 575 869 559 869 l 1065 869 q 1111 831 1111 869 q 1065 799 1111 799 l 613 799 l 613 521 l 903 521 q 952 483 952 521 q 903 450 952 450 l 613 450 m 543 340 l 543 723 l 297 340 l 543 340 z "},"Ç":{"ha":800,"x_min":96,"x_max":726,"o":"m 384 0 q 165 51 235 1 q 96 244 96 100 l 96 632 q 168 827 96 779 q 391 876 240 876 l 590 876 q 663 863 633 876 q 705 827 692 850 q 722 780 718 803 q 726 724 726 757 q 690 677 726 677 q 655 722 655 677 q 639 787 655 769 q 581 806 623 806 l 391 806 q 289 801 326 806 q 221 779 252 796 q 178 726 190 761 q 167 632 167 690 l 167 244 q 216 101 167 132 q 399 71 264 71 l 581 71 q 640 90 624 71 q 655 155 655 109 q 690 199 655 199 q 726 151 726 199 q 722 96 726 119 q 705 50 718 73 q 663 13 692 26 q 590 0 633 0 l 456 0 q 475 -32 460 -18 q 507 -55 491 -46 q 535 -83 522 -64 q 548 -127 548 -102 q 510 -207 548 -176 q 418 -237 472 -237 q 347 -221 384 -237 q 311 -170 311 -205 q 331 -145 311 -145 q 370 -157 339 -145 q 420 -170 401 -170 q 477 -134 477 -170 q 456 -102 477 -119 q 411 -60 434 -85 q 384 0 388 -35 z "},"È":{"ha":811,"x_min":114,"x_max":743,"o":"m 312 1111 q 345 1093 328 1111 l 439 1000 q 456 966 456 981 q 446 944 456 955 q 422 933 437 933 q 388 951 404 933 l 294 1043 q 277 1077 277 1063 q 288 1099 277 1088 q 312 1111 298 1111 m 184 450 l 184 71 l 697 71 q 743 33 743 71 q 697 0 743 0 l 146 0 q 114 49 114 0 l 114 814 q 146 863 114 863 l 697 863 q 743 825 743 863 q 697 792 743 792 l 184 792 l 184 521 l 536 521 q 585 483 585 521 q 536 450 585 450 l 184 450 z "},"É":{"ha":811,"x_min":114,"x_max":743,"o":"m 509 1044 l 414 951 q 381 933 397 933 q 357 943 368 933 q 346 966 346 954 q 363 1001 346 981 l 457 1093 q 491 1111 473 1111 q 515 1099 506 1111 q 525 1077 525 1088 q 509 1044 525 1063 m 184 450 l 184 71 l 697 71 q 743 33 743 71 q 697 0 743 0 l 146 0 q 114 49 114 0 l 114 814 q 146 863 114 863 l 697 863 q 743 825 743 863 q 697 792 743 792 l 184 792 l 184 521 l 536 521 q 585 483 585 521 q 536 450 585 450 l 184 450 z "},"Ê":{"ha":811,"x_min":114,"x_max":743,"o":"m 239 932 l 381 1111 l 461 1111 l 606 932 q 614 907 614 921 q 583 876 614 876 q 570 879 576 876 q 562 884 564 882 q 553 894 560 886 q 545 903 547 902 l 422 1034 l 300 903 q 293 895 297 901 q 286 888 289 890 q 280 882 283 886 q 272 878 277 879 q 262 876 267 876 q 231 907 231 876 q 239 932 231 921 m 184 450 l 184 71 l 697 71 q 743 33 743 71 q 697 0 743 0 l 146 0 q 114 49 114 0 l 114 814 q 146 863 114 863 l 697 863 q 743 825 743 863 q 697 792 743 792 l 184 792 l 184 521 l 536 521 q 585 483 585 521 q 536 450 585 450 l 184 450 z "},"Ë":{"ha":811,"x_min":114,"x_max":743,"o":"m 324 1063 q 370 1047 346 1063 q 393 1008 393 1031 q 370 968 393 985 q 324 952 346 952 q 278 968 301 952 q 255 1008 255 985 q 278 1047 255 1031 q 324 1063 301 1063 m 522 1063 q 568 1047 544 1063 q 591 1008 591 1031 q 568 968 591 985 q 522 952 544 952 q 476 968 499 952 q 453 1008 453 985 q 476 1047 453 1031 q 522 1063 499 1063 m 184 450 l 184 71 l 697 71 q 743 33 743 71 q 697 0 743 0 l 146 0 q 114 49 114 0 l 114 814 q 146 863 114 863 l 697 863 q 743 825 743 863 q 697 792 743 792 l 184 792 l 184 521 l 536 521 q 585 483 585 521 q 536 450 585 450 l 184 450 z "},"Ì":{"ha":298,"x_min":5,"x_max":184,"o":"m 41 1111 q 73 1093 57 1111 l 168 1000 q 184 966 184 981 q 175 944 184 955 q 151 933 165 933 q 117 951 133 933 l 23 1043 q 5 1077 5 1063 q 16 1099 5 1088 q 41 1111 27 1111 m 184 34 q 148 -9 184 -9 q 114 34 114 -9 l 114 827 q 149 872 114 872 q 184 827 184 872 l 184 34 z "},"Í":{"ha":298,"x_min":114,"x_max":294,"o":"m 278 1044 l 183 951 q 151 933 167 933 q 126 943 137 933 q 115 966 115 954 q 133 1001 115 981 l 227 1093 q 260 1111 243 1111 q 285 1099 275 1111 q 294 1077 294 1088 q 278 1044 294 1063 m 184 34 q 148 -9 184 -9 q 114 34 114 -9 l 114 827 q 149 872 114 872 q 184 827 184 872 l 184 34 z "},"Î":{"ha":298,"x_min":-41,"x_max":343,"o":"m -33 932 l 110 1111 l 190 1111 l 335 932 q 343 907 343 921 q 312 876 343 876 q 299 879 305 876 q 291 884 293 882 q 282 894 289 886 q 274 903 275 902 l 151 1034 l 28 903 q 22 895 26 901 q 15 888 18 890 q 9 882 12 886 q 1 878 5 879 q -9 876 -4 876 q -41 907 -41 876 q -33 932 -41 921 m 184 34 q 148 -9 184 -9 q 114 34 114 -9 l 114 827 q 149 872 114 872 q 184 827 184 872 l 184 34 z "},"Ï":{"ha":298,"x_min":-18,"x_max":319,"o":"m 52 1063 q 97 1047 73 1063 q 121 1008 121 1031 q 97 968 121 985 q 52 952 73 952 q 5 968 28 952 q -18 1008 -18 985 q 5 1047 -18 1031 q 52 1063 28 1063 m 250 1063 q 295 1047 271 1063 q 319 1008 319 1031 q 295 968 319 985 q 250 952 271 952 q 203 968 227 952 q 180 1008 180 985 q 203 1047 180 1031 q 250 1063 227 1063 m 184 34 q 148 -9 184 -9 q 114 34 114 -9 l 114 827 q 149 872 114 872 q 184 827 184 872 l 184 34 z "},"Ð":{"ha":841,"x_min":71,"x_max":743,"o":"m 673 244 l 673 618 q 625 761 673 730 q 450 792 578 792 l 184 792 l 184 476 l 326 476 q 372 439 372 476 q 326 404 372 404 l 184 404 l 184 71 l 442 71 q 624 101 575 71 q 673 244 673 132 m 743 618 l 743 244 q 671 49 743 98 q 442 0 598 0 l 146 0 q 114 49 114 0 l 114 404 q 71 442 71 404 q 114 476 71 476 l 114 814 q 146 863 114 863 l 450 863 q 572 854 524 863 q 663 819 621 845 q 724 744 704 793 q 743 618 743 694 z "},"Ñ":{"ha":857,"x_min":114,"x_max":743,"o":"m 709 -9 q 682 0 690 -9 l 184 736 l 184 35 q 149 -9 184 -9 q 114 37 114 -9 l 114 825 q 146 872 114 872 q 187 846 171 872 l 673 130 l 673 823 q 707 872 673 872 q 743 825 743 872 l 743 37 q 709 -9 743 -9 z "},"Ò":{"ha":806,"x_min":88,"x_max":718,"o":"m 293 1111 q 326 1093 309 1111 l 420 1000 q 437 966 437 981 q 427 944 437 955 q 403 933 418 933 q 369 951 385 933 l 275 1043 q 258 1077 258 1063 q 269 1099 258 1088 q 293 1111 279 1111 m 629 74 q 585 31 629 74 q 403 -12 541 -12 q 176 73 264 -12 q 88 309 88 159 l 88 553 q 176 789 88 704 q 403 875 264 875 q 629 789 541 875 q 718 553 718 703 l 718 309 q 629 74 718 160 m 583 738 q 551 771 583 738 q 403 804 519 804 q 222 738 286 804 q 159 552 159 671 l 159 311 q 222 125 159 191 q 403 58 286 58 q 583 125 519 58 q 647 311 647 191 l 647 552 q 583 738 647 671 z "},"Ó":{"ha":806,"x_min":88,"x_max":718,"o":"m 530 1044 l 435 951 q 403 933 419 933 q 378 943 389 933 q 368 966 368 954 q 385 1001 368 981 l 479 1093 q 513 1111 495 1111 q 537 1099 528 1111 q 547 1077 547 1088 q 530 1044 547 1063 m 629 74 q 585 31 629 74 q 403 -12 541 -12 q 176 73 264 -12 q 88 309 88 159 l 88 553 q 176 789 88 704 q 403 875 264 875 q 629 789 541 875 q 718 553 718 703 l 718 309 q 629 74 718 160 m 583 738 q 551 771 583 738 q 403 804 519 804 q 222 738 286 804 q 159 552 159 671 l 159 311 q 222 125 159 191 q 403 58 286 58 q 583 125 519 58 q 647 311 647 191 l 647 552 q 583 738 647 671 z "},"Ô":{"ha":806,"x_min":88,"x_max":718,"o":"m 220 932 l 362 1111 l 442 1111 l 587 932 q 595 907 595 921 q 564 876 595 876 q 551 879 557 876 q 543 884 545 882 q 534 894 541 886 q 526 903 528 902 l 403 1034 l 281 903 q 274 895 278 901 q 267 888 270 890 q 261 882 264 886 q 253 878 258 879 q 243 876 248 876 q 212 907 212 876 q 220 932 212 921 m 629 74 q 585 31 629 74 q 403 -12 541 -12 q 176 73 264 -12 q 88 309 88 159 l 88 553 q 176 789 88 704 q 403 875 264 875 q 629 789 541 875 q 718 553 718 703 l 718 309 q 629 74 718 160 m 583 738 q 551 771 583 738 q 403 804 519 804 q 222 738 286 804 q 159 552 159 671 l 159 311 q 222 125 159 191 q 403 58 286 58 q 583 125 519 58 q 647 311 647 191 l 647 552 q 583 738 647 671 z "},"Õ":{"ha":806,"x_min":88,"x_max":718,"o":"m 629 74 q 585 31 629 74 q 403 -12 541 -12 q 176 73 264 -12 q 88 309 88 159 l 88 553 q 176 789 88 704 q 403 875 264 875 q 629 789 541 875 q 718 553 718 703 l 718 309 q 629 74 718 160 m 583 738 q 551 771 583 738 q 403 804 519 804 q 222 738 286 804 q 159 552 159 671 l 159 311 q 222 125 159 191 q 403 58 286 58 q 583 125 519 58 q 647 311 647 191 l 647 552 q 583 738 647 671 z "},"Ö":{"ha":806,"x_min":88,"x_max":718,"o":"m 305 1063 q 351 1047 327 1063 q 374 1008 374 1031 q 351 968 374 985 q 305 952 327 952 q 259 968 282 952 q 236 1008 236 985 q 259 1047 236 1031 q 305 1063 282 1063 m 503 1063 q 549 1047 525 1063 q 572 1008 572 1031 q 549 968 572 985 q 503 952 525 952 q 457 968 480 952 q 434 1008 434 985 q 457 1047 434 1031 q 503 1063 480 1063 m 629 74 q 585 31 629 74 q 403 -12 541 -12 q 176 73 264 -12 q 88 309 88 159 l 88 553 q 176 789 88 704 q 403 875 264 875 q 629 789 541 875 q 718 553 718 703 l 718 309 q 629 74 718 160 m 583 738 q 551 771 583 738 q 403 804 519 804 q 222 738 286 804 q 159 552 159 671 l 159 311 q 222 125 159 191 q 403 58 286 58 q 583 125 519 58 q 647 311 647 191 l 647 552 q 583 738 647 671 z "},"×":{"ha":669,"x_min":95,"x_max":572,"o":"m 96 518 q 106 541 96 530 q 129 551 115 551 q 161 534 145 551 l 334 361 l 507 533 q 540 549 524 549 q 562 540 552 549 q 572 517 572 530 q 556 484 572 500 l 382 312 l 555 138 q 572 106 572 123 q 562 83 572 94 q 538 73 552 73 q 506 90 522 73 l 334 263 l 160 91 q 127 73 145 73 q 105 83 115 73 q 95 107 95 94 q 111 140 95 123 l 285 312 l 113 486 q 96 518 96 502 z "},"Ø":{"ha":806,"x_min":88,"x_max":718,"o":"m 403 804 q 222 736 286 804 q 159 548 159 669 l 159 301 q 197 146 159 206 l 563 757 q 403 804 499 804 m 644 865 q 667 857 654 865 q 680 831 680 849 q 671 804 680 821 l 648 768 q 718 553 718 684 l 718 309 q 629 74 718 160 q 403 -12 541 -12 q 212 45 288 -12 l 198 23 q 163 -3 184 -3 q 141 5 153 -3 q 129 30 129 14 q 137 58 129 42 l 157 92 q 88 309 88 176 l 88 553 q 176 789 88 704 q 403 875 264 875 q 597 817 521 875 l 610 840 q 644 865 623 865 m 647 562 q 610 713 647 654 l 244 104 q 403 58 307 58 q 583 125 519 58 q 647 315 647 193 l 647 562 z "},"Ù":{"ha":841,"x_min":106,"x_max":735,"o":"m 311 1097 q 345 1077 327 1097 l 475 921 q 487 890 487 906 q 476 865 487 875 q 453 856 465 856 q 419 876 438 856 l 289 1032 q 277 1062 277 1047 q 288 1087 277 1077 q 311 1097 298 1097 m 665 829 q 701 872 665 872 q 735 827 735 872 l 735 309 q 647 74 735 160 q 420 -12 559 -12 q 194 73 282 -12 q 106 309 106 159 l 106 827 q 141 872 106 872 q 176 829 176 872 l 176 311 q 240 125 176 191 q 420 58 304 58 q 601 125 537 58 q 665 311 665 191 l 665 829 z "},"Ú":{"ha":841,"x_min":106,"x_max":735,"o":"m 585 1032 l 454 876 q 420 856 437 856 q 398 866 410 856 q 387 890 387 876 q 399 921 387 906 l 529 1077 q 563 1097 548 1097 q 586 1087 575 1097 q 597 1062 597 1077 q 585 1032 597 1047 m 665 829 q 701 872 665 872 q 735 827 735 872 l 735 309 q 647 74 735 160 q 420 -12 559 -12 q 194 73 282 -12 q 106 309 106 159 l 106 827 q 141 872 106 872 q 176 829 176 872 l 176 311 q 240 125 176 191 q 420 58 304 58 q 601 125 537 58 q 665 311 665 191 l 665 829 z "},"Û":{"ha":841,"x_min":106,"x_max":735,"o":"m 237 932 l 380 1111 l 460 1111 l 605 932 q 613 907 613 921 q 582 876 613 876 q 569 879 575 876 q 561 884 563 882 q 552 894 559 886 q 544 903 545 902 l 420 1034 l 298 903 q 292 895 296 901 q 285 888 288 890 q 279 882 282 886 q 271 878 275 879 q 260 876 266 876 q 229 907 229 876 q 237 932 229 921 m 665 829 q 701 872 665 872 q 735 827 735 872 l 735 309 q 647 74 735 160 q 420 -12 559 -12 q 194 73 282 -12 q 106 309 106 159 l 106 827 q 141 872 106 872 q 176 829 176 872 l 176 311 q 240 125 176 191 q 420 58 304 58 q 601 125 537 58 q 665 311 665 191 l 665 829 z "},"Ü":{"ha":841,"x_min":106,"x_max":735,"o":"m 323 1063 q 368 1047 345 1063 q 392 1008 392 1031 q 368 968 392 985 q 323 952 345 952 q 277 968 300 952 q 254 1008 254 985 q 277 1047 254 1031 q 323 1063 300 1063 m 521 1063 q 566 1047 543 1063 q 590 1008 590 1031 q 566 968 590 985 q 521 952 543 952 q 475 968 498 952 q 452 1008 452 985 q 475 1047 452 1031 q 521 1063 498 1063 m 665 829 q 701 872 665 872 q 735 827 735 872 l 735 309 q 647 74 735 160 q 420 -12 559 -12 q 194 73 282 -12 q 106 309 106 159 l 106 827 q 141 872 106 872 q 176 829 176 872 l 176 311 q 240 125 176 191 q 420 58 304 58 q 601 125 537 58 q 665 311 665 191 l 665 829 z "},"Ý":{"ha":707,"x_min":23,"x_max":682,"o":"m 517 1032 l 387 876 q 353 856 369 856 q 330 866 342 856 q 319 890 319 876 q 331 921 319 906 l 461 1077 q 495 1097 480 1097 q 518 1087 507 1097 q 529 1062 529 1077 q 517 1032 529 1047 m 317 418 l 34 810 q 23 838 23 826 q 34 863 23 853 q 57 872 45 872 q 91 848 72 872 l 353 486 l 613 848 q 648 872 631 872 q 671 862 659 872 q 682 838 682 852 q 671 810 682 826 l 389 418 l 389 33 q 353 -9 389 -9 q 317 33 317 -9 l 317 418 z "},"Þ":{"ha":705,"x_min":114,"x_max":658,"o":"m 184 632 l 422 632 q 595 579 533 632 q 658 425 658 526 q 595 269 658 323 q 420 216 532 216 l 184 216 l 184 34 q 148 -9 184 -9 q 114 34 114 -9 l 114 777 q 149 822 114 822 q 184 777 184 822 l 184 632 m 361 562 l 184 562 l 184 282 l 359 282 q 536 309 487 282 q 586 422 586 335 q 536 534 586 506 q 361 562 487 562 z "},"ß":{"ha":629,"x_min":43,"x_max":578,"o":"m 221 479 l 221 548 q 322 564 281 548 q 382 605 363 579 q 408 655 400 631 q 415 708 415 680 q 386 769 415 746 q 305 792 357 792 q 191 762 227 792 q 156 625 156 731 l 156 39 q 118 -9 156 -9 q 85 39 85 -9 l 85 556 q 43 593 43 559 q 85 625 43 623 q 106 748 87 699 q 159 821 125 798 q 227 854 193 845 q 305 863 260 863 q 439 816 392 863 q 486 705 486 769 q 385 519 486 585 q 578 266 578 464 q 517 40 578 107 q 373 -27 457 -27 q 260 12 313 -27 q 206 123 206 52 q 244 172 206 172 q 282 126 282 172 q 313 62 282 81 q 385 43 345 43 q 471 92 434 43 q 507 267 507 140 q 495 336 507 302 q 454 404 483 370 q 365 458 425 438 q 221 479 305 479 z "},"à":{"ha":751,"x_min":81,"x_max":654,"o":"m 258 922 q 292 902 274 922 l 422 746 q 434 715 434 731 q 423 690 434 700 q 400 681 412 681 q 366 701 385 681 l 236 857 q 224 887 224 872 q 235 912 224 902 q 258 922 245 922 m 384 330 q 277 325 315 330 q 208 303 240 320 q 163 252 175 286 q 152 160 152 218 q 175 98 152 125 q 227 71 198 71 l 353 71 q 525 132 467 71 q 583 309 583 194 l 583 330 l 384 330 m 384 400 l 583 400 l 583 477 q 568 537 583 519 q 509 555 552 555 l 317 555 q 152 473 152 555 q 115 426 152 426 q 81 473 81 426 q 144 589 81 552 q 308 625 206 625 l 518 625 q 625 587 597 625 q 654 454 654 549 l 654 37 q 618 -9 654 -9 q 583 38 583 -9 l 583 85 q 353 0 506 0 l 227 0 q 122 45 163 0 q 81 167 81 91 q 155 352 81 304 q 384 400 229 400 z "},"á":{"ha":751,"x_min":81,"x_max":654,"o":"m 532 861 l 401 705 q 368 685 384 685 q 345 695 357 685 q 334 719 334 705 q 346 750 334 735 l 476 906 q 510 926 495 926 q 533 916 522 926 q 544 891 544 906 q 532 861 544 876 m 384 330 q 277 325 315 330 q 208 303 240 320 q 163 252 175 286 q 152 160 152 218 q 175 98 152 125 q 227 71 198 71 l 353 71 q 525 132 467 71 q 583 309 583 194 l 583 330 l 384 330 m 384 400 l 583 400 l 583 477 q 568 537 583 519 q 509 555 552 555 l 317 555 q 152 473 152 555 q 115 426 152 426 q 81 473 81 426 q 144 589 81 552 q 308 625 206 625 l 518 625 q 625 587 597 625 q 654 454 654 549 l 654 37 q 618 -9 654 -9 q 583 38 583 -9 l 583 85 q 353 0 506 0 l 227 0 q 122 45 163 0 q 81 167 81 91 q 155 352 81 304 q 384 400 229 400 z "},"â":{"ha":751,"x_min":81,"x_max":654,"o":"m 184 757 l 327 936 l 407 936 l 552 757 q 560 732 560 746 q 529 701 560 701 q 516 704 522 701 q 508 709 510 707 q 499 719 506 711 q 491 728 492 727 l 368 859 l 245 728 q 239 720 243 726 q 232 713 235 715 q 226 707 229 711 q 218 703 222 704 q 208 701 213 701 q 176 732 176 701 q 184 757 176 746 m 384 330 q 277 325 315 330 q 208 303 240 320 q 163 252 175 286 q 152 160 152 218 q 175 98 152 125 q 227 71 198 71 l 353 71 q 525 132 467 71 q 583 309 583 194 l 583 330 l 384 330 m 384 400 l 583 400 l 583 477 q 568 537 583 519 q 509 555 552 555 l 317 555 q 152 473 152 555 q 115 426 152 426 q 81 473 81 426 q 144 589 81 552 q 308 625 206 625 l 518 625 q 625 587 597 625 q 654 454 654 549 l 654 37 q 618 -9 654 -9 q 583 38 583 -9 l 583 85 q 353 0 506 0 l 227 0 q 122 45 163 0 q 81 167 81 91 q 155 352 81 304 q 384 400 229 400 z "},"ã":{"ha":751,"x_min":81,"x_max":654,"o":"m 384 330 q 277 325 315 330 q 208 303 240 320 q 163 252 175 286 q 152 160 152 218 q 175 98 152 125 q 227 71 198 71 l 353 71 q 525 132 467 71 q 583 309 583 194 l 583 330 l 384 330 m 384 400 l 583 400 l 583 477 q 568 537 583 519 q 509 555 552 555 l 317 555 q 152 473 152 555 q 115 426 152 426 q 81 473 81 426 q 144 589 81 552 q 308 625 206 625 l 518 625 q 625 587 597 625 q 654 454 654 549 l 654 37 q 618 -9 654 -9 q 583 38 583 -9 l 583 85 q 353 0 506 0 l 227 0 q 122 45 163 0 q 81 167 81 91 q 155 352 81 304 q 384 400 229 400 z "},"ä":{"ha":751,"x_min":81,"x_max":654,"o":"m 269 812 q 314 796 290 812 q 338 757 338 780 q 314 718 338 734 q 269 701 290 701 q 222 718 245 701 q 199 757 199 734 q 222 796 199 780 q 269 812 245 812 m 467 812 q 512 796 488 812 q 536 757 536 780 q 512 718 536 734 q 467 701 488 701 q 420 718 444 701 q 397 757 397 734 q 420 796 397 780 q 467 812 444 812 m 384 330 q 277 325 315 330 q 208 303 240 320 q 163 252 175 286 q 152 160 152 218 q 175 98 152 125 q 227 71 198 71 l 353 71 q 525 132 467 71 q 583 309 583 194 l 583 330 l 384 330 m 384 400 l 583 400 l 583 477 q 568 537 583 519 q 509 555 552 555 l 317 555 q 152 473 152 555 q 115 426 152 426 q 81 473 81 426 q 144 589 81 552 q 308 625 206 625 l 518 625 q 625 587 597 625 q 654 454 654 549 l 654 37 q 618 -9 654 -9 q 583 38 583 -9 l 583 85 q 353 0 506 0 l 227 0 q 122 45 163 0 q 81 167 81 91 q 155 352 81 304 q 384 400 229 400 z "},"å":{"ha":751,"x_min":81,"x_max":654,"o":"m 309 811 q 327 769 309 787 q 369 751 345 751 q 410 769 392 751 q 429 811 429 787 q 410 853 429 836 q 369 871 392 871 q 327 852 345 871 q 309 811 309 834 m 291 889 q 307 905 291 889 q 369 921 323 921 q 447 889 415 921 q 479 811 479 857 q 447 733 479 765 q 369 701 415 701 q 291 733 323 701 q 259 811 259 765 q 291 889 259 857 m 384 330 q 277 325 315 330 q 208 303 240 320 q 163 252 175 286 q 152 160 152 218 q 175 98 152 125 q 227 71 198 71 l 353 71 q 525 132 467 71 q 583 309 583 194 l 583 330 l 384 330 m 384 400 l 583 400 l 583 477 q 568 537 583 519 q 509 555 552 555 l 317 555 q 152 473 152 555 q 115 426 152 426 q 81 473 81 426 q 144 589 81 552 q 308 625 206 625 l 518 625 q 625 587 597 625 q 654 454 654 549 l 654 37 q 618 -9 654 -9 q 583 38 583 -9 l 583 85 q 353 0 506 0 l 227 0 q 122 45 163 0 q 81 167 81 91 q 155 352 81 304 q 384 400 229 400 z "},"æ":{"ha":1280,"x_min":81,"x_max":1199,"o":"m 384 330 q 277 325 315 330 q 208 303 240 320 q 163 252 175 286 q 152 160 152 218 q 175 98 152 125 q 227 71 198 71 l 353 71 q 525 132 467 71 q 583 309 583 194 l 583 330 l 384 330 m 898 555 l 887 555 q 707 526 757 555 q 655 400 656 498 l 1128 400 q 1077 526 1127 498 q 898 555 1027 555 m 1199 387 l 1199 330 l 655 330 l 655 240 q 667 148 655 182 q 711 97 678 114 q 781 75 743 80 q 887 71 818 71 l 1054 71 q 1113 90 1097 71 q 1128 155 1128 109 q 1164 199 1128 199 q 1199 151 1199 199 q 1195 96 1199 119 q 1178 50 1191 73 q 1136 13 1165 26 q 1063 0 1107 0 l 887 0 q 707 22 774 0 q 609 106 640 45 q 496 28 572 57 q 353 0 420 0 l 227 0 q 122 45 163 0 q 81 167 81 91 q 155 352 81 304 q 384 400 229 400 l 583 400 l 583 477 q 568 537 583 519 q 509 555 552 555 l 317 555 q 152 473 152 555 q 115 426 152 426 q 81 473 81 426 q 144 589 81 552 q 308 625 206 625 l 518 625 q 640 562 614 625 q 887 625 703 625 l 898 625 q 1126 577 1054 625 q 1199 387 1199 529 z "},"ç":{"ha":792,"x_min":84,"x_max":713,"o":"m 363 0 q 152 52 220 3 q 84 239 84 102 l 84 387 q 157 577 84 529 q 387 625 231 625 l 578 625 q 650 612 621 625 q 692 575 680 600 q 709 528 705 551 q 713 473 713 505 q 678 426 713 426 q 643 471 643 426 q 627 536 643 518 q 568 555 610 555 l 387 555 q 280 550 317 555 q 210 528 243 545 q 166 477 178 511 q 155 385 155 444 l 155 240 q 166 148 155 182 q 210 97 178 114 q 280 75 243 80 q 387 71 317 71 l 568 71 q 627 90 612 71 q 643 155 643 109 q 678 199 643 199 q 713 151 713 199 q 709 96 713 119 q 692 50 705 73 q 650 13 680 26 q 578 0 621 0 l 435 0 q 455 -32 439 -18 q 486 -55 471 -46 q 515 -83 502 -64 q 528 -127 528 -102 q 490 -207 528 -176 q 397 -237 452 -237 q 327 -221 363 -237 q 290 -170 290 -205 q 311 -145 290 -145 q 350 -157 319 -145 q 400 -170 381 -170 q 457 -134 457 -170 q 435 -102 457 -119 q 391 -60 414 -85 q 363 0 368 -35 z "},"è":{"ha":803,"x_min":84,"x_max":727,"o":"m 293 926 q 327 906 309 926 l 457 750 q 469 719 469 735 q 458 694 469 704 q 435 685 448 685 q 401 705 420 685 l 271 861 q 259 891 259 876 q 270 916 259 906 q 293 926 281 926 m 727 387 l 727 332 l 155 332 l 155 240 q 166 148 155 182 q 210 97 178 114 q 280 75 243 80 q 387 71 317 71 l 568 71 q 627 90 612 71 q 643 155 643 109 q 678 199 643 199 q 713 151 713 199 q 709 96 713 119 q 692 50 705 73 q 650 13 680 26 q 578 0 621 0 l 387 0 q 157 48 231 0 q 84 239 84 96 l 84 387 q 157 577 84 529 q 387 625 231 625 l 426 625 q 654 577 582 625 q 727 387 727 529 m 426 555 l 387 555 q 205 527 255 555 q 155 403 156 499 l 656 403 q 606 527 655 499 q 426 555 556 555 z "},"é":{"ha":803,"x_min":84,"x_max":727,"o":"m 571 861 l 441 705 q 407 685 423 685 q 385 695 396 685 q 373 719 373 705 q 385 750 373 735 l 515 906 q 549 926 534 926 q 572 916 562 926 q 583 891 583 906 q 571 861 583 876 m 727 387 l 727 332 l 155 332 l 155 240 q 166 148 155 182 q 210 97 178 114 q 280 75 243 80 q 387 71 317 71 l 568 71 q 627 90 612 71 q 643 155 643 109 q 678 199 643 199 q 713 151 713 199 q 709 96 713 119 q 692 50 705 73 q 650 13 680 26 q 578 0 621 0 l 387 0 q 157 48 231 0 q 84 239 84 96 l 84 387 q 157 577 84 529 q 387 625 231 625 l 426 625 q 654 577 582 625 q 727 387 727 529 m 426 555 l 387 555 q 205 527 255 555 q 155 403 156 499 l 656 403 q 606 527 655 499 q 426 555 556 555 z "},"ê":{"ha":803,"x_min":84,"x_max":727,"o":"m 222 757 l 365 936 l 445 936 l 590 757 q 598 732 598 746 q 567 701 598 701 q 554 704 560 701 q 546 709 548 707 q 537 719 544 711 q 529 728 530 727 l 406 859 l 283 728 q 277 720 281 726 q 270 713 273 715 q 264 707 267 711 q 256 703 260 704 q 245 701 251 701 q 214 732 214 701 q 222 757 214 746 m 727 387 l 727 332 l 155 332 l 155 240 q 166 148 155 182 q 210 97 178 114 q 280 75 243 80 q 387 71 317 71 l 568 71 q 627 90 612 71 q 643 155 643 109 q 678 199 643 199 q 713 151 713 199 q 709 96 713 119 q 692 50 705 73 q 650 13 680 26 q 578 0 621 0 l 387 0 q 157 48 231 0 q 84 239 84 96 l 84 387 q 157 577 84 529 q 387 625 231 625 l 426 625 q 654 577 582 625 q 727 387 727 529 m 426 555 l 387 555 q 205 527 255 555 q 155 403 156 499 l 656 403 q 606 527 655 499 q 426 555 556 555 z "},"ë":{"ha":803,"x_min":84,"x_max":727,"o":"m 308 812 q 353 796 330 812 q 377 757 377 780 q 353 718 377 734 q 308 701 330 701 q 262 718 285 701 q 239 757 239 734 q 262 796 239 780 q 308 812 285 812 m 506 812 q 551 796 528 812 q 575 757 575 780 q 551 718 575 734 q 506 701 528 701 q 460 718 483 701 q 437 757 437 734 q 460 796 437 780 q 506 812 483 812 m 727 387 l 727 332 l 155 332 l 155 240 q 166 148 155 182 q 210 97 178 114 q 280 75 243 80 q 387 71 317 71 l 568 71 q 627 90 612 71 q 643 155 643 109 q 678 199 643 199 q 713 151 713 199 q 709 96 713 119 q 692 50 705 73 q 650 13 680 26 q 578 0 621 0 l 387 0 q 157 48 231 0 q 84 239 84 96 l 84 387 q 157 577 84 529 q 387 625 231 625 l 426 625 q 654 577 582 625 q 727 387 727 529 m 426 555 l 387 555 q 205 527 255 555 q 155 403 156 499 l 656 403 q 606 527 655 499 q 426 555 556 555 z "},"ì":{"ha":271,"x_min":-39,"x_max":171,"o":"m -5 926 q 28 906 11 926 l 159 750 q 171 719 171 735 q 160 694 171 704 q 137 685 149 685 q 103 705 122 685 l -27 861 q -39 891 -39 876 q -28 916 -39 906 q -5 926 -18 926 m 134 -16 q 100 27 100 -16 l 100 597 q 136 642 100 642 q 171 597 171 642 l 171 27 q 134 -16 171 -16 z "},"í":{"ha":271,"x_min":100,"x_max":311,"o":"m 298 861 l 168 705 q 134 685 151 685 q 112 695 123 685 q 100 719 100 705 q 113 750 100 735 l 243 906 q 277 926 262 926 q 300 916 289 926 q 311 891 311 906 q 298 861 311 876 m 134 -16 q 100 27 100 -16 l 100 597 q 136 642 100 642 q 171 597 171 642 l 171 27 q 134 -16 171 -16 z "},"î":{"ha":271,"x_min":-56,"x_max":328,"o":"m -47 757 l 95 936 l 175 936 l 320 757 q 328 732 328 746 q 297 701 328 701 q 284 704 290 701 q 276 709 278 707 q 267 719 274 711 q 259 728 260 727 l 136 859 l 14 728 q 7 720 11 726 q 0 713 3 715 q -6 707 -3 711 q -14 703 -9 704 q -24 701 -19 701 q -56 732 -56 701 q -47 757 -56 746 m 134 -16 q 100 27 100 -16 l 100 597 q 136 642 100 642 q 171 597 171 642 l 171 27 q 134 -16 171 -16 z "},"ï":{"ha":271,"x_min":-33,"x_max":304,"o":"m 37 822 q 82 806 58 822 q 106 766 106 789 q 82 727 106 743 q 37 711 58 711 q -9 727 14 711 q -33 766 -33 743 q -9 806 -33 789 q 37 822 14 822 m 235 822 q 280 806 256 822 q 304 766 304 789 q 280 727 304 743 q 235 711 256 711 q 189 727 212 711 q 165 766 165 743 q 189 806 165 789 q 235 822 212 822 m 134 -16 q 100 27 100 -16 l 100 597 q 136 642 100 642 q 171 597 171 642 l 171 27 q 134 -16 171 -16 z "},"ð":{"ha":768,"x_min":64,"x_max":693,"o":"m 208 791 q 165 825 165 791 q 208 863 165 863 q 391 827 304 863 l 435 871 q 471 887 454 887 q 494 878 483 887 q 506 854 506 868 q 488 821 506 838 l 460 793 q 693 301 693 650 q 614 73 693 168 q 400 -22 536 -22 q 157 64 251 -22 q 64 298 64 149 q 157 534 64 449 q 400 618 251 618 q 571 566 503 618 q 406 741 515 684 l 338 677 q 305 661 321 661 q 280 671 293 661 q 267 694 267 681 q 286 727 267 708 l 332 770 q 208 791 273 791 m 623 300 q 567 475 623 403 q 400 548 511 548 q 206 478 278 548 q 134 298 134 408 q 206 119 134 189 q 400 49 278 49 q 566 127 509 49 q 623 300 623 206 z "},"ñ":{"ha":837,"x_min":100,"x_max":743,"o":"m 403 555 q 229 493 288 555 q 171 313 171 431 l 171 37 q 136 -9 171 -9 q 100 37 100 -9 l 100 587 q 133 635 100 635 q 171 586 171 635 l 171 540 q 403 625 251 625 l 442 625 q 671 577 598 625 q 743 387 743 529 l 743 37 q 709 -9 743 -9 q 673 37 673 -9 l 673 385 q 661 477 673 444 q 618 528 650 511 q 549 550 586 545 q 442 555 511 555 l 403 555 z "},"ò":{"ha":811,"x_min":84,"x_max":727,"o":"m 296 922 q 330 902 312 922 l 460 746 q 472 715 472 731 q 461 690 472 700 q 438 681 450 681 q 404 701 423 681 l 274 857 q 262 887 262 872 q 273 912 262 902 q 296 922 283 922 m 426 0 l 387 0 q 157 48 231 0 q 84 239 84 96 l 84 387 q 157 577 84 529 q 387 625 231 625 l 426 625 q 654 577 582 625 q 727 387 727 529 l 727 239 q 654 48 727 96 q 426 0 582 0 m 387 71 l 426 71 q 532 75 495 71 q 602 97 570 80 q 645 148 633 114 q 656 240 656 182 l 656 385 q 645 477 656 444 q 602 528 633 511 q 532 550 570 545 q 426 555 495 555 l 387 555 q 280 550 317 555 q 210 528 243 545 q 166 477 178 511 q 155 385 155 444 l 155 240 q 166 148 155 182 q 210 97 178 114 q 280 75 243 80 q 387 71 317 71 z "},"ó":{"ha":811,"x_min":84,"x_max":727,"o":"m 568 861 l 438 705 q 404 685 420 685 q 382 695 393 685 q 370 719 370 705 q 382 750 370 735 l 513 906 q 547 926 532 926 q 570 916 559 926 q 581 891 581 906 q 568 861 581 876 m 426 0 l 387 0 q 157 48 231 0 q 84 239 84 96 l 84 387 q 157 577 84 529 q 387 625 231 625 l 426 625 q 654 577 582 625 q 727 387 727 529 l 727 239 q 654 48 727 96 q 426 0 582 0 m 387 71 l 426 71 q 532 75 495 71 q 602 97 570 80 q 645 148 633 114 q 656 240 656 182 l 656 385 q 645 477 656 444 q 602 528 633 511 q 532 550 570 545 q 426 555 495 555 l 387 555 q 280 550 317 555 q 210 528 243 545 q 166 477 178 511 q 155 385 155 444 l 155 240 q 166 148 155 182 q 210 97 178 114 q 280 75 243 80 q 387 71 317 71 z "},"ô":{"ha":811,"x_min":84,"x_max":727,"o":"m 222 757 l 365 936 l 445 936 l 590 757 q 598 732 598 746 q 567 701 598 701 q 554 704 560 701 q 546 709 548 707 q 537 719 544 711 q 529 728 530 727 l 406 859 l 283 728 q 277 720 281 726 q 270 713 273 715 q 264 707 267 711 q 256 703 260 704 q 245 701 251 701 q 214 732 214 701 q 222 757 214 746 m 426 0 l 387 0 q 157 48 231 0 q 84 239 84 96 l 84 387 q 157 577 84 529 q 387 625 231 625 l 426 625 q 654 577 582 625 q 727 387 727 529 l 727 239 q 654 48 727 96 q 426 0 582 0 m 387 71 l 426 71 q 532 75 495 71 q 602 97 570 80 q 645 148 633 114 q 656 240 656 182 l 656 385 q 645 477 656 444 q 602 528 633 511 q 532 550 570 545 q 426 555 495 555 l 387 555 q 280 550 317 555 q 210 528 243 545 q 166 477 178 511 q 155 385 155 444 l 155 240 q 166 148 155 182 q 210 97 178 114 q 280 75 243 80 q 387 71 317 71 z "},"õ":{"ha":811,"x_min":84,"x_max":727,"o":"m 426 0 l 387 0 q 157 48 231 0 q 84 239 84 96 l 84 387 q 157 577 84 529 q 387 625 231 625 l 426 625 q 654 577 582 625 q 727 387 727 529 l 727 239 q 654 48 727 96 q 426 0 582 0 m 387 71 l 426 71 q 532 75 495 71 q 602 97 570 80 q 645 148 633 114 q 656 240 656 182 l 656 385 q 645 477 656 444 q 602 528 633 511 q 532 550 570 545 q 426 555 495 555 l 387 555 q 280 550 317 555 q 210 528 243 545 q 166 477 178 511 q 155 385 155 444 l 155 240 q 166 148 155 182 q 210 97 178 114 q 280 75 243 80 q 387 71 317 71 z "},"ö":{"ha":811,"x_min":84,"x_max":727,"o":"m 308 812 q 353 796 330 812 q 377 757 377 780 q 353 718 377 734 q 308 701 330 701 q 262 718 285 701 q 239 757 239 734 q 262 796 239 780 q 308 812 285 812 m 506 812 q 551 796 528 812 q 575 757 575 780 q 551 718 575 734 q 506 701 528 701 q 460 718 483 701 q 437 757 437 734 q 460 796 437 780 q 506 812 483 812 m 426 0 l 387 0 q 157 48 231 0 q 84 239 84 96 l 84 387 q 157 577 84 529 q 387 625 231 625 l 426 625 q 654 577 582 625 q 727 387 727 529 l 727 239 q 654 48 727 96 q 426 0 582 0 m 387 71 l 426 71 q 532 75 495 71 q 602 97 570 80 q 645 148 633 114 q 656 240 656 182 l 656 385 q 645 477 656 444 q 602 528 633 511 q 532 550 570 545 q 426 555 495 555 l 387 555 q 280 550 317 555 q 210 528 243 545 q 166 477 178 511 q 155 385 155 444 l 155 240 q 166 148 155 182 q 210 97 178 114 q 280 75 243 80 q 387 71 317 71 z "},"÷":{"ha":595,"x_min":87,"x_max":507,"o":"m 87 313 q 129 349 87 349 l 461 349 q 507 311 507 349 q 494 286 507 296 q 461 277 481 277 l 129 277 q 87 313 87 277 m 292 229 q 337 213 313 229 q 361 174 361 197 q 337 134 361 151 q 292 118 313 118 q 245 134 269 118 q 222 174 222 151 q 245 213 222 197 q 292 229 269 229 m 292 507 q 337 491 313 507 q 361 452 361 475 q 337 412 361 429 q 292 396 313 396 q 245 412 269 396 q 222 452 222 429 q 245 491 222 475 q 292 507 269 507 z "},"ø":{"ha":811,"x_min":84,"x_max":727,"o":"m 667 636 q 692 627 681 636 q 703 602 703 617 q 689 571 703 591 l 677 557 q 727 387 727 500 l 727 239 q 654 48 727 96 q 426 0 582 0 l 387 0 q 194 26 256 0 l 179 9 q 145 -11 161 -11 q 121 -1 133 -11 q 110 23 110 9 q 125 54 110 35 l 136 66 q 84 239 84 125 l 84 387 q 157 577 84 529 q 387 625 231 625 l 426 625 q 620 597 560 625 l 633 616 q 667 636 650 636 m 387 71 l 426 71 q 608 101 559 71 q 656 244 656 132 l 656 395 q 631 515 656 477 l 241 83 q 387 71 286 71 m 155 231 q 182 109 155 148 l 571 543 q 426 555 526 555 l 387 555 q 203 524 252 555 q 155 381 155 494 l 155 231 z "},"ù":{"ha":838,"x_min":95,"x_max":738,"o":"m 305 922 q 339 902 321 922 l 469 746 q 481 715 481 731 q 471 690 481 700 q 448 681 460 681 q 414 701 433 681 l 283 857 q 271 887 271 872 q 282 912 271 902 q 305 922 293 922 m 435 71 q 609 132 551 71 q 667 312 667 194 l 667 589 q 703 635 667 635 q 738 589 738 635 l 738 38 q 705 -9 738 -9 q 667 39 667 -9 l 667 85 q 435 0 587 0 l 396 0 q 168 48 240 0 q 95 239 95 96 l 95 589 q 129 635 95 635 q 165 589 165 635 l 165 240 q 177 148 165 182 q 220 97 189 114 q 290 75 252 80 q 396 71 327 71 l 435 71 z "},"ú":{"ha":838,"x_min":95,"x_max":738,"o":"m 581 861 l 450 705 q 416 685 433 685 q 394 695 406 685 q 382 719 382 705 q 395 750 382 735 l 525 906 q 559 926 544 926 q 582 916 571 926 q 593 891 593 906 q 581 861 593 876 m 435 71 q 609 132 551 71 q 667 312 667 194 l 667 589 q 703 635 667 635 q 738 589 738 635 l 738 38 q 705 -9 738 -9 q 667 39 667 -9 l 667 85 q 435 0 587 0 l 396 0 q 168 48 240 0 q 95 239 95 96 l 95 589 q 129 635 95 635 q 165 589 165 635 l 165 240 q 177 148 165 182 q 220 97 189 114 q 290 75 252 80 q 396 71 327 71 l 435 71 z "},"û":{"ha":838,"x_min":95,"x_max":738,"o":"m 232 757 l 374 936 l 454 936 l 600 757 q 608 732 608 746 q 576 701 608 701 q 564 704 570 701 q 555 709 557 707 q 547 719 553 711 q 538 728 540 727 l 415 859 l 293 728 q 286 720 290 726 q 279 713 282 715 q 273 707 277 711 q 265 703 270 704 q 255 701 260 701 q 224 732 224 701 q 232 757 224 746 m 435 71 q 609 132 551 71 q 667 312 667 194 l 667 589 q 703 635 667 635 q 738 589 738 635 l 738 38 q 705 -9 738 -9 q 667 39 667 -9 l 667 85 q 435 0 587 0 l 396 0 q 168 48 240 0 q 95 239 95 96 l 95 589 q 129 635 95 635 q 165 589 165 635 l 165 240 q 177 148 165 182 q 220 97 189 114 q 290 75 252 80 q 396 71 327 71 l 435 71 z "},"ü":{"ha":838,"x_min":95,"x_max":738,"o":"m 317 812 q 363 796 339 812 q 387 757 387 780 q 363 718 387 734 q 317 701 339 701 q 271 718 294 701 q 248 757 248 734 q 271 796 248 780 q 317 812 294 812 m 515 812 q 561 796 537 812 q 585 757 585 780 q 561 718 585 734 q 515 701 537 701 q 469 718 492 701 q 446 757 446 734 q 469 796 446 780 q 515 812 492 812 m 435 71 q 609 132 551 71 q 667 312 667 194 l 667 589 q 703 635 667 635 q 738 589 738 635 l 738 38 q 705 -9 738 -9 q 667 39 667 -9 l 667 85 q 435 0 587 0 l 396 0 q 168 48 240 0 q 95 239 95 96 l 95 589 q 129 635 95 635 q 165 589 165 635 l 165 240 q 177 148 165 182 q 220 97 189 114 q 290 75 252 80 q 396 71 327 71 l 435 71 z "},"ý":{"ha":840,"x_min":95,"x_max":738,"o":"m 581 861 l 450 705 q 416 685 433 685 q 394 695 406 685 q 382 719 382 705 q 395 750 382 735 l 525 906 q 559 926 544 926 q 582 916 571 926 q 593 891 593 906 q 581 861 593 876 m 738 -118 q 712 -242 738 -206 q 614 -278 686 -278 l 231 -278 q 158 -265 187 -278 q 116 -228 129 -252 q 99 -180 103 -203 q 95 -126 95 -157 q 130 -79 95 -79 q 165 -123 165 -79 q 182 -189 165 -171 q 240 -208 198 -208 l 605 -208 q 656 -194 644 -208 q 667 -140 667 -180 l 667 85 q 435 0 587 0 l 396 0 q 168 48 240 0 q 95 239 95 96 l 95 589 q 129 635 95 635 q 165 589 165 635 l 165 240 q 177 148 165 182 q 220 97 189 114 q 290 75 252 80 q 396 71 327 71 l 435 71 q 609 132 551 71 q 667 312 667 194 l 667 589 q 703 635 667 635 q 738 589 738 635 l 738 -118 z "},"þ":{"ha":829,"x_min":102,"x_max":745,"o":"m 674 385 q 663 477 674 444 q 619 528 651 511 q 550 550 587 545 q 444 555 513 555 l 404 555 q 172 315 172 555 l 172 71 l 445 71 q 626 100 578 71 q 674 240 674 130 l 674 385 m 745 239 q 672 48 745 96 q 445 0 600 0 l 172 0 l 172 -199 q 134 -247 172 -247 q 102 -199 102 -247 l 102 825 q 137 872 102 872 q 172 825 172 872 l 172 540 q 404 625 252 625 l 444 625 q 672 577 600 625 q 745 387 745 529 l 745 239 z "},"ÿ":{"ha":840,"x_min":95,"x_max":738,"o":"m 317 812 q 363 796 339 812 q 387 757 387 780 q 363 718 387 734 q 317 701 339 701 q 271 718 294 701 q 248 757 248 734 q 271 796 248 780 q 317 812 294 812 m 515 812 q 561 796 537 812 q 585 757 585 780 q 561 718 585 734 q 515 701 537 701 q 469 718 492 701 q 446 757 446 734 q 469 796 446 780 q 515 812 492 812 m 738 -118 q 712 -242 738 -206 q 614 -278 686 -278 l 231 -278 q 158 -265 187 -278 q 116 -228 129 -252 q 99 -180 103 -203 q 95 -126 95 -157 q 130 -79 95 -79 q 165 -123 165 -79 q 182 -189 165 -171 q 240 -208 198 -208 l 605 -208 q 656 -194 644 -208 q 667 -140 667 -180 l 667 85 q 435 0 587 0 l 396 0 q 168 48 240 0 q 95 239 95 96 l 95 589 q 129 635 95 635 q 165 589 165 635 l 165 240 q 177 148 165 182 q 220 97 189 114 q 290 75 252 80 q 396 71 327 71 l 435 71 q 609 132 551 71 q 667 312 667 194 l 667 589 q 703 635 667 635 q 738 589 738 635 l 738 -118 z "},"Ā":{"ha":773,"x_min":33,"x_max":741,"o":"m 176 996 q 218 1031 176 1031 l 551 1031 q 597 993 597 1031 q 584 968 597 978 q 551 959 571 959 l 218 959 q 176 996 176 959 m 429 863 l 736 34 q 741 12 741 22 q 728 -14 741 -5 q 705 -22 716 -22 q 669 9 682 -22 l 572 270 l 201 270 l 104 9 q 68 -22 91 -22 q 45 -14 57 -22 q 33 12 33 -5 q 37 34 33 22 l 345 863 l 429 863 m 385 760 l 228 340 l 545 340 l 385 760 z "},"ā":{"ha":751,"x_min":81,"x_max":654,"o":"m 157 745 q 199 780 157 780 l 532 780 q 578 742 578 780 q 565 718 578 727 q 532 708 552 708 l 199 708 q 157 745 157 708 m 384 330 q 277 325 315 330 q 208 303 240 320 q 163 252 175 286 q 152 160 152 218 q 175 98 152 125 q 227 71 198 71 l 353 71 q 525 132 467 71 q 583 309 583 194 l 583 330 l 384 330 m 384 400 l 583 400 l 583 477 q 568 537 583 519 q 509 555 552 555 l 317 555 q 152 473 152 555 q 115 426 152 426 q 81 473 81 426 q 144 589 81 552 q 308 625 206 625 l 518 625 q 625 587 597 625 q 654 454 654 549 l 654 37 q 618 -9 654 -9 q 583 38 583 -9 l 583 85 q 353 0 506 0 l 227 0 q 122 45 163 0 q 81 167 81 91 q 155 352 81 304 q 384 400 229 400 z "},"Ă":{"ha":773,"x_min":33,"x_max":741,"o":"m 429 863 l 736 34 q 741 12 741 22 q 728 -14 741 -5 q 705 -22 716 -22 q 669 9 682 -22 l 572 270 l 201 270 l 104 9 q 68 -22 91 -22 q 45 -14 57 -22 q 33 12 33 -5 q 37 34 33 22 l 345 863 l 429 863 m 385 760 l 228 340 l 545 340 l 385 760 m 385 933 q 273 981 323 933 q 222 1111 222 1029 l 294 1111 q 322 1029 294 1053 q 385 1006 350 1006 q 448 1029 420 1006 q 476 1111 476 1053 l 548 1111 q 497 981 548 1028 q 385 933 446 933 z "},"ă":{"ha":751,"x_min":81,"x_max":654,"o":"m 369 708 q 256 756 307 708 q 206 886 206 804 l 278 886 q 306 804 278 827 q 369 781 334 781 q 432 804 404 781 q 460 886 460 827 l 532 886 q 481 755 532 803 q 369 708 430 708 m 384 330 q 277 325 315 330 q 208 303 240 320 q 163 252 175 286 q 152 160 152 218 q 175 98 152 125 q 227 71 198 71 l 353 71 q 525 132 467 71 q 583 309 583 194 l 583 330 l 384 330 m 384 400 l 583 400 l 583 477 q 568 537 583 519 q 509 555 552 555 l 317 555 q 152 473 152 555 q 115 426 152 426 q 81 473 81 426 q 144 589 81 552 q 308 625 206 625 l 518 625 q 625 587 597 625 q 654 454 654 549 l 654 37 q 618 -9 654 -9 q 583 38 583 -9 l 583 85 q 353 0 506 0 l 227 0 q 122 45 163 0 q 81 167 81 91 q 155 352 81 304 q 384 400 229 400 z "},"Ą":{"ha":772,"x_min":33,"x_max":825,"o":"m 385 760 l 228 340 l 545 340 l 385 760 m 68 -22 q 45 -14 57 -22 q 33 12 33 -5 q 37 34 33 22 l 350 876 l 423 876 l 736 34 q 741 12 741 22 q 726 -16 741 -1 q 678 -81 699 -42 q 658 -137 658 -121 q 715 -210 658 -210 q 766 -199 736 -210 q 804 -187 796 -187 q 825 -210 825 -187 q 788 -262 825 -245 q 718 -278 751 -278 q 625 -239 662 -278 q 587 -137 587 -199 q 666 18 587 -79 l 572 270 l 201 270 l 104 9 q 68 -22 91 -22 z "},"ą":{"ha":751,"x_min":81,"x_max":726,"o":"m 384 400 l 583 400 l 583 477 q 568 537 583 519 q 509 555 552 555 l 317 555 q 152 473 152 555 q 115 426 152 426 q 81 473 81 426 q 144 589 81 552 q 308 625 206 625 l 518 625 q 625 587 597 625 q 654 454 654 549 l 654 37 q 636 -5 654 5 q 582 -69 605 -24 q 559 -136 559 -114 q 616 -209 559 -209 q 667 -197 637 -209 q 705 -186 697 -186 q 726 -209 726 -186 q 689 -260 726 -244 q 618 -277 652 -277 q 526 -237 563 -277 q 488 -136 488 -198 q 519 -52 488 -103 q 583 39 549 0 l 583 85 q 353 0 506 0 l 227 0 q 122 45 163 0 q 81 167 81 91 q 155 352 81 304 q 384 400 229 400 m 384 330 q 277 325 315 330 q 208 303 240 320 q 163 252 175 286 q 152 160 152 218 q 175 98 152 125 q 227 71 198 71 l 353 71 q 525 132 467 71 q 583 309 583 194 l 583 330 l 384 330 z "},"Ć":{"ha":803,"x_min":98,"x_max":727,"o":"m 591 0 l 400 0 q 170 49 243 0 q 98 244 98 98 l 98 618 q 170 814 98 765 q 392 863 241 863 l 591 863 q 664 850 635 863 q 706 813 693 837 q 723 766 719 789 q 727 711 727 743 q 692 663 727 663 q 656 708 656 663 q 640 774 656 755 q 582 792 624 792 l 392 792 q 290 787 327 792 q 222 765 254 783 q 180 712 191 747 q 168 618 168 677 l 168 244 q 217 101 168 132 q 400 71 266 71 l 582 71 q 641 90 625 71 q 656 155 656 109 q 692 199 656 199 q 727 151 727 199 q 723 96 727 119 q 706 50 719 73 q 664 13 693 26 q 591 0 635 0 m 551 1046 l 456 952 q 423 935 439 935 q 399 945 410 935 q 388 967 388 955 q 406 1002 388 982 l 499 1095 q 533 1112 515 1112 q 557 1101 548 1112 q 567 1078 567 1089 q 551 1046 567 1065 z "},"ć":{"ha":792,"x_min":84,"x_max":713,"o":"m 578 0 l 387 0 q 157 48 231 0 q 84 239 84 96 l 84 387 q 157 577 84 529 q 387 625 231 625 l 578 625 q 650 612 621 625 q 692 575 680 600 q 709 528 705 551 q 713 473 713 505 q 678 426 713 426 q 643 471 643 426 q 627 536 643 518 q 568 555 610 555 l 387 555 q 280 550 317 555 q 210 528 243 545 q 166 477 178 511 q 155 385 155 444 l 155 240 q 166 148 155 182 q 210 97 178 114 q 280 75 243 80 q 387 71 317 71 l 568 71 q 627 90 612 71 q 643 155 643 109 q 678 199 643 199 q 713 151 713 199 q 709 96 713 119 q 692 50 705 73 q 650 13 680 26 q 578 0 621 0 m 548 861 l 418 705 q 384 685 399 685 q 361 695 373 685 q 350 719 350 705 q 362 750 350 735 l 492 906 q 526 926 510 926 q 549 916 538 926 q 560 891 560 906 q 548 861 560 876 z "},"Ĉ":{"ha":803,"x_min":98,"x_max":727,"o":"m 237 932 l 380 1111 l 460 1111 l 605 932 q 613 907 613 921 q 582 876 613 876 q 569 879 575 876 q 561 884 563 882 q 552 894 559 886 q 544 903 545 902 l 420 1034 l 298 903 q 292 895 296 901 q 285 888 288 890 q 279 882 282 886 q 271 878 275 879 q 260 876 266 876 q 229 907 229 876 q 237 932 229 921 m 591 0 l 400 0 q 170 49 243 0 q 98 244 98 98 l 98 618 q 170 814 98 765 q 392 863 241 863 l 591 863 q 664 850 635 863 q 706 813 693 837 q 723 766 719 789 q 727 711 727 743 q 692 663 727 663 q 656 708 656 663 q 640 774 656 755 q 582 792 624 792 l 392 792 q 290 787 327 792 q 222 765 254 783 q 180 712 191 747 q 168 618 168 677 l 168 244 q 217 101 168 132 q 400 71 266 71 l 582 71 q 641 90 625 71 q 656 155 656 109 q 692 199 656 199 q 727 151 727 199 q 723 96 727 119 q 706 50 719 73 q 664 13 693 26 q 591 0 635 0 z "},"ĉ":{"ha":792,"x_min":84,"x_max":713,"o":"m 578 0 l 387 0 q 157 48 231 0 q 84 239 84 96 l 84 387 q 157 577 84 529 q 387 625 231 625 l 578 625 q 650 612 621 625 q 692 575 680 600 q 709 528 705 551 q 713 473 713 505 q 678 426 713 426 q 643 471 643 426 q 627 536 643 518 q 568 555 610 555 l 387 555 q 280 550 317 555 q 210 528 243 545 q 166 477 178 511 q 155 385 155 444 l 155 240 q 166 148 155 182 q 210 97 178 114 q 280 75 243 80 q 387 71 317 71 l 568 71 q 627 90 612 71 q 643 155 643 109 q 678 199 643 199 q 713 151 713 199 q 709 96 713 119 q 692 50 705 73 q 650 13 680 26 q 578 0 621 0 m 208 757 l 350 936 l 430 936 l 575 757 q 583 732 583 746 q 552 701 583 701 q 539 704 545 701 q 531 709 533 707 q 522 719 529 711 q 514 728 515 727 l 391 859 l 269 728 q 262 720 266 726 q 255 713 258 715 q 249 707 252 711 q 241 703 245 704 q 231 701 236 701 q 199 732 199 701 q 208 757 199 746 z "},"Ċ":{"ha":803,"x_min":98,"x_max":727,"o":"m 591 0 l 400 0 q 170 49 243 0 q 98 244 98 98 l 98 618 q 170 814 98 765 q 392 863 241 863 l 591 863 q 664 850 635 863 q 706 813 693 837 q 723 766 719 789 q 727 711 727 743 q 692 663 727 663 q 656 708 656 663 q 640 774 656 755 q 582 792 624 792 l 392 792 q 290 787 327 792 q 222 765 254 783 q 180 712 191 747 q 168 618 168 677 l 168 244 q 217 101 168 132 q 400 71 266 71 l 582 71 q 641 90 625 71 q 656 155 656 109 q 692 199 656 199 q 727 151 727 199 q 723 96 727 119 q 706 50 719 73 q 664 13 693 26 q 591 0 635 0 m 395 1062 q 440 1046 416 1062 q 464 1006 464 1029 q 440 967 464 983 q 395 951 416 951 q 349 967 372 951 q 326 1006 326 983 q 349 1046 326 1029 q 395 1062 372 1062 z "},"ċ":{"ha":792,"x_min":84,"x_max":713,"o":"m 578 0 l 387 0 q 157 48 231 0 q 84 239 84 96 l 84 387 q 157 577 84 529 q 387 625 231 625 l 578 625 q 650 612 621 625 q 692 575 680 600 q 709 528 705 551 q 713 473 713 505 q 678 426 713 426 q 643 471 643 426 q 627 536 643 518 q 568 555 610 555 l 387 555 q 280 550 317 555 q 210 528 243 545 q 166 477 178 511 q 155 385 155 444 l 155 240 q 166 148 155 182 q 210 97 178 114 q 280 75 243 80 q 387 71 317 71 l 568 71 q 627 90 612 71 q 643 155 643 109 q 678 199 643 199 q 713 151 713 199 q 709 96 713 119 q 692 50 705 73 q 650 13 680 26 q 578 0 621 0 m 387 812 q 432 796 408 812 q 456 757 456 780 q 432 718 456 734 q 387 701 408 701 q 340 718 363 701 q 317 757 317 734 q 340 796 317 780 q 387 812 363 812 z "},"Č":{"ha":803,"x_min":98,"x_max":727,"o":"m 591 0 l 400 0 q 170 49 243 0 q 98 244 98 98 l 98 618 q 170 814 98 765 q 392 863 241 863 l 591 863 q 664 850 635 863 q 706 813 693 837 q 723 766 719 789 q 727 711 727 743 q 692 663 727 663 q 656 708 656 663 q 640 774 656 755 q 582 792 624 792 l 392 792 q 290 787 327 792 q 222 765 254 783 q 180 712 191 747 q 168 618 168 677 l 168 244 q 217 101 168 132 q 400 71 266 71 l 582 71 q 641 90 625 71 q 656 155 656 109 q 692 199 656 199 q 727 151 727 199 q 723 96 727 119 q 706 50 719 73 q 664 13 693 26 q 591 0 635 0 m 441 920 l 365 920 l 224 1067 q 214 1088 214 1077 q 245 1115 214 1115 q 289 1092 262 1115 l 403 997 l 517 1092 q 560 1115 544 1115 q 591 1088 591 1115 q 582 1067 591 1077 l 441 920 z "},"č":{"ha":792,"x_min":84,"x_max":713,"o":"m 439 708 l 363 708 l 222 856 q 213 876 213 865 q 244 903 213 903 q 288 880 260 903 l 401 785 l 515 880 q 559 903 543 903 q 590 876 590 903 q 581 856 590 865 l 439 708 m 578 0 l 387 0 q 157 48 231 0 q 84 239 84 96 l 84 387 q 157 577 84 529 q 387 625 231 625 l 578 625 q 650 612 621 625 q 692 575 680 600 q 709 528 705 551 q 713 473 713 505 q 678 426 713 426 q 643 471 643 426 q 627 536 643 518 q 568 555 610 555 l 387 555 q 280 550 317 555 q 210 528 243 545 q 166 477 178 511 q 155 385 155 444 l 155 240 q 166 148 155 182 q 210 97 178 114 q 280 75 243 80 q 387 71 317 71 l 568 71 q 627 90 612 71 q 643 155 643 109 q 678 199 643 199 q 713 151 713 199 q 709 96 713 119 q 692 50 705 73 q 650 13 680 26 q 578 0 621 0 z "},"Ď":{"ha":841,"x_min":114,"x_max":743,"o":"m 743 618 l 743 244 q 671 49 743 98 q 442 0 598 0 l 146 0 q 114 49 114 0 l 114 814 q 146 863 114 863 l 450 863 q 572 854 524 863 q 663 819 621 845 q 724 744 704 793 q 743 618 743 694 m 673 244 l 673 618 q 625 761 673 730 q 450 792 578 792 l 184 792 l 184 71 l 442 71 q 624 101 575 71 q 673 244 673 132 m 431 916 l 355 916 l 214 1063 q 205 1084 205 1073 q 236 1111 205 1111 q 279 1088 252 1111 l 393 993 l 507 1088 q 551 1111 534 1111 q 582 1084 582 1111 q 572 1063 582 1073 l 431 916 z "},"ď":{"ha":829,"x_min":84,"x_max":890,"o":"m 656 625 l 656 823 q 694 872 656 872 q 727 823 727 872 l 727 37 q 692 -9 727 -9 q 656 38 656 -9 l 656 85 q 425 0 576 0 l 385 0 q 157 48 229 0 q 84 239 84 96 l 84 387 q 157 577 84 529 q 385 625 229 625 l 656 625 m 656 555 l 385 555 q 279 550 316 555 q 210 528 241 545 q 166 477 178 511 q 155 385 155 444 l 155 240 q 166 148 155 182 q 210 97 178 114 q 279 75 241 80 q 385 71 316 71 l 425 71 q 656 309 656 71 l 656 555 m 890 845 q 883 819 890 831 l 827 707 q 793 674 814 674 q 764 708 764 674 q 768 730 764 713 l 800 848 q 834 879 810 879 q 869 871 849 879 q 890 845 890 863 z "},"Đ":{"ha":841,"x_min":71,"x_max":743,"o":"m 673 244 l 673 618 q 625 761 673 730 q 450 792 578 792 l 184 792 l 184 476 l 326 476 q 372 439 372 476 q 326 404 372 404 l 184 404 l 184 71 l 442 71 q 624 101 575 71 q 673 244 673 132 m 743 618 l 743 244 q 671 49 743 98 q 442 0 598 0 l 146 0 q 114 49 114 0 l 114 404 q 71 442 71 404 q 114 476 71 476 l 114 814 q 146 863 114 863 l 450 863 q 572 854 524 863 q 663 819 621 845 q 724 744 704 793 q 743 618 743 694 z "},"đ":{"ha":829,"x_min":84,"x_max":774,"o":"m 656 555 l 385 555 q 279 550 316 555 q 210 528 241 545 q 166 477 178 511 q 155 385 155 444 l 155 240 q 166 148 155 182 q 210 97 178 114 q 279 75 241 80 q 385 71 316 71 l 425 71 q 656 309 656 71 l 656 555 m 354 731 q 396 766 354 766 l 656 766 l 656 823 q 694 872 656 872 q 727 823 727 872 l 727 766 l 728 766 q 774 728 774 766 q 762 704 774 713 q 728 694 749 694 l 727 694 l 727 37 q 692 -9 727 -9 q 656 38 656 -9 l 656 85 q 425 0 576 0 l 385 0 q 157 48 229 0 q 84 239 84 96 l 84 387 q 157 577 84 529 q 385 625 229 625 l 656 625 l 656 694 l 396 694 q 354 731 354 694 z "},"Ē":{"ha":811,"x_min":114,"x_max":743,"o":"m 212 994 q 254 1029 212 1029 l 586 1029 q 632 991 632 1029 q 619 967 632 977 q 586 958 606 958 l 254 958 q 212 994 212 958 m 184 450 l 184 71 l 697 71 q 743 33 743 71 q 697 0 743 0 l 146 0 q 114 49 114 0 l 114 814 q 146 863 114 863 l 697 863 q 743 825 743 863 q 697 792 743 792 l 184 792 l 184 521 l 536 521 q 585 483 585 521 q 536 450 585 450 l 184 450 z "},"ē":{"ha":803,"x_min":84,"x_max":727,"o":"m 197 745 q 239 780 197 780 l 571 780 q 617 742 617 780 q 604 718 617 727 q 571 708 591 708 l 239 708 q 197 745 197 708 m 727 387 l 727 332 l 155 332 l 155 240 q 166 148 155 182 q 210 97 178 114 q 280 75 243 80 q 387 71 317 71 l 568 71 q 627 90 612 71 q 643 155 643 109 q 678 199 643 199 q 713 151 713 199 q 709 96 713 119 q 692 50 705 73 q 650 13 680 26 q 578 0 621 0 l 387 0 q 157 48 231 0 q 84 239 84 96 l 84 387 q 157 577 84 529 q 387 625 231 625 l 426 625 q 654 577 582 625 q 727 387 727 529 m 426 555 l 387 555 q 205 527 255 555 q 155 403 156 499 l 656 403 q 606 527 655 499 q 426 555 556 555 z "},"Ė":{"ha":811,"x_min":114,"x_max":743,"o":"m 422 1069 q 467 1053 444 1069 q 491 1013 491 1036 q 467 974 491 990 q 422 958 444 958 q 376 974 399 958 q 353 1013 353 990 q 376 1053 353 1036 q 422 1069 399 1069 m 184 450 l 184 71 l 697 71 q 743 33 743 71 q 697 0 743 0 l 146 0 q 114 49 114 0 l 114 814 q 146 863 114 863 l 697 863 q 743 825 743 863 q 697 792 743 792 l 184 792 l 184 521 l 536 521 q 585 483 585 521 q 536 450 585 450 l 184 450 z "},"ė":{"ha":803,"x_min":84,"x_max":727,"o":"m 407 819 q 452 803 429 819 q 476 764 476 787 q 452 724 476 741 q 407 708 429 708 q 361 724 384 708 q 338 764 338 741 q 361 803 338 787 q 407 819 384 819 m 727 387 l 727 332 l 155 332 l 155 240 q 166 148 155 182 q 210 97 178 114 q 280 75 243 80 q 387 71 317 71 l 568 71 q 627 90 612 71 q 643 155 643 109 q 678 199 643 199 q 713 151 713 199 q 709 96 713 119 q 692 50 705 73 q 650 13 680 26 q 578 0 621 0 l 387 0 q 157 48 231 0 q 84 239 84 96 l 84 387 q 157 577 84 529 q 387 625 231 625 l 426 625 q 654 577 582 625 q 727 387 727 529 m 426 555 l 387 555 q 205 527 255 555 q 155 403 156 499 l 656 403 q 606 527 655 499 q 426 555 556 555 z "},"Ę":{"ha":810,"x_min":114,"x_max":743,"o":"m 184 450 l 184 71 l 697 71 q 743 33 743 71 q 697 0 743 0 l 471 0 q 411 -68 438 -22 q 384 -137 384 -115 q 441 -210 384 -210 q 492 -199 463 -210 q 530 -187 522 -187 q 551 -210 551 -187 q 514 -262 551 -245 q 444 -278 477 -278 q 351 -239 388 -278 q 313 -137 313 -199 q 378 0 313 -87 l 146 0 q 114 49 114 0 l 114 821 q 146 869 114 869 l 697 869 q 743 831 743 869 q 697 799 743 799 l 184 799 l 184 521 l 536 521 q 585 483 585 521 q 536 450 585 450 l 184 450 z "},"ę":{"ha":803,"x_min":84,"x_max":727,"o":"m 426 555 l 387 555 q 205 527 255 555 q 155 403 156 499 l 656 403 q 606 527 655 499 q 426 555 556 555 m 727 387 l 727 332 l 155 332 l 155 240 q 166 148 155 182 q 210 97 178 114 q 280 75 243 80 q 387 71 317 71 l 568 71 q 627 90 612 71 q 643 155 643 109 q 678 199 643 199 q 713 151 713 199 q 709 96 713 119 q 692 50 705 73 q 650 13 680 26 q 578 0 621 0 l 511 0 q 452 -68 479 -22 q 425 -137 425 -115 q 481 -210 425 -210 q 533 -199 503 -210 q 571 -187 563 -187 q 591 -210 591 -187 q 555 -262 591 -245 q 484 -278 518 -278 q 391 -239 429 -278 q 354 -137 354 -199 q 419 0 354 -87 l 387 0 q 157 48 231 0 q 84 239 84 96 l 84 387 q 157 577 84 529 q 387 625 231 625 l 426 625 q 654 577 582 625 q 727 387 727 529 z "},"Ě":{"ha":811,"x_min":114,"x_max":743,"o":"m 184 450 l 184 71 l 697 71 q 743 33 743 71 q 697 0 743 0 l 146 0 q 114 49 114 0 l 114 814 q 146 863 114 863 l 697 863 q 743 825 743 863 q 697 792 743 792 l 184 792 l 184 521 l 536 521 q 585 483 585 521 q 536 450 585 450 l 184 450 m 442 916 l 366 916 l 225 1063 q 216 1084 216 1073 q 247 1111 216 1111 q 290 1088 263 1111 l 404 993 l 518 1088 q 562 1111 545 1111 q 593 1084 593 1111 q 583 1063 593 1073 l 442 916 z "},"ě":{"ha":803,"x_min":84,"x_max":727,"o":"m 445 708 l 369 708 l 228 856 q 218 876 218 865 q 250 903 218 903 q 293 880 266 903 l 407 785 l 521 880 q 564 903 548 903 q 595 876 595 903 q 586 856 595 865 l 445 708 m 727 387 l 727 332 l 155 332 l 155 240 q 166 148 155 182 q 210 97 178 114 q 280 75 243 80 q 387 71 317 71 l 568 71 q 627 90 612 71 q 643 155 643 109 q 678 199 643 199 q 713 151 713 199 q 709 96 713 119 q 692 50 705 73 q 650 13 680 26 q 578 0 621 0 l 387 0 q 157 48 231 0 q 84 239 84 96 l 84 387 q 157 577 84 529 q 387 625 231 625 l 426 625 q 654 577 582 625 q 727 387 727 529 m 426 555 l 387 555 q 205 527 255 555 q 155 403 156 499 l 656 403 q 606 527 655 499 q 426 555 556 555 z "},"Ĝ":{"ha":822,"x_min":98,"x_max":727,"o":"m 656 334 l 479 334 q 430 368 430 334 q 479 404 430 404 l 727 404 l 727 148 q 701 41 727 81 q 591 0 674 0 l 392 0 q 269 9 317 0 q 178 42 220 18 q 117 115 137 66 q 98 240 98 164 l 98 623 q 170 814 98 766 q 400 863 243 863 l 591 863 q 664 850 635 863 q 706 813 693 837 q 723 766 719 789 q 727 712 727 743 q 692 663 727 663 q 656 709 656 663 q 641 773 656 754 q 582 792 625 792 l 400 792 q 217 762 266 792 q 168 621 168 731 l 168 241 q 216 101 168 132 q 392 71 264 71 l 582 71 q 641 89 625 71 q 656 152 656 107 l 656 334 m 228 932 l 370 1111 l 450 1111 l 595 932 q 604 907 604 921 q 572 876 604 876 q 559 879 566 876 q 551 884 553 882 q 543 894 549 886 q 534 903 536 902 l 411 1034 l 289 903 q 282 895 286 901 q 275 888 278 890 q 269 882 273 886 q 261 878 266 879 q 251 876 256 876 q 220 907 220 876 q 228 932 220 921 z "},"ĝ":{"ha":829,"x_min":84,"x_max":727,"o":"m 727 -118 q 701 -242 727 -206 q 604 -278 675 -278 l 220 -278 q 147 -265 176 -278 q 105 -228 118 -252 q 88 -180 92 -203 q 84 -126 84 -157 q 119 -79 84 -79 q 155 -123 155 -79 q 171 -189 155 -171 q 229 -208 187 -208 l 594 -208 q 645 -194 633 -208 q 656 -140 656 -180 l 656 0 l 385 0 q 157 48 229 0 q 84 239 84 96 l 84 387 q 157 577 84 529 q 385 625 229 625 l 425 625 q 656 540 576 625 l 656 587 q 692 635 656 635 q 727 589 727 635 l 727 -118 m 656 71 l 656 316 q 425 555 656 555 l 385 555 q 279 550 316 555 q 210 528 241 545 q 166 477 178 511 q 155 385 155 444 l 155 240 q 166 148 155 182 q 210 97 178 114 q 279 75 241 80 q 385 71 316 71 l 656 71 m 222 766 l 365 945 l 445 945 l 590 766 q 598 742 598 755 q 567 711 598 711 q 554 713 560 711 q 546 718 548 716 q 537 728 544 720 q 529 738 530 736 l 406 868 l 283 738 q 277 730 281 735 q 270 722 273 724 q 264 717 267 720 q 256 712 260 713 q 245 711 251 711 q 214 742 214 711 q 222 766 214 755 z "},"Ğ":{"ha":822,"x_min":98,"x_max":727,"o":"m 656 334 l 479 334 q 430 368 430 334 q 479 404 430 404 l 727 404 l 727 148 q 701 41 727 81 q 591 0 674 0 l 392 0 q 269 9 317 0 q 178 42 220 18 q 117 115 137 66 q 98 240 98 164 l 98 623 q 170 814 98 766 q 400 863 243 863 l 591 863 q 664 850 635 863 q 706 813 693 837 q 723 766 719 789 q 727 712 727 743 q 692 663 727 663 q 656 709 656 663 q 641 773 656 754 q 582 792 625 792 l 400 792 q 217 762 266 792 q 168 621 168 731 l 168 241 q 216 101 168 132 q 392 71 264 71 l 582 71 q 641 89 625 71 q 656 152 656 107 l 656 334 m 414 933 q 301 981 351 933 q 251 1111 251 1029 l 323 1111 q 351 1029 323 1053 q 414 1006 378 1006 q 477 1029 449 1006 q 505 1111 505 1053 l 576 1111 q 526 981 576 1028 q 414 933 475 933 z "},"ğ":{"ha":829,"x_min":84,"x_max":727,"o":"m 384 718 q 271 766 321 718 q 221 895 221 814 l 293 895 q 321 814 293 837 q 384 791 349 791 q 447 814 419 791 q 475 895 475 837 l 547 895 q 496 765 547 812 q 384 718 445 718 m 727 -118 q 701 -242 727 -206 q 604 -278 675 -278 l 220 -278 q 147 -265 176 -278 q 105 -228 118 -252 q 88 -180 92 -203 q 84 -126 84 -157 q 119 -79 84 -79 q 155 -123 155 -79 q 171 -189 155 -171 q 229 -208 187 -208 l 594 -208 q 645 -194 633 -208 q 656 -140 656 -180 l 656 0 l 385 0 q 157 48 229 0 q 84 239 84 96 l 84 387 q 157 577 84 529 q 385 625 229 625 l 425 625 q 656 540 576 625 l 656 587 q 692 635 656 635 q 727 589 727 635 l 727 -118 m 656 71 l 656 316 q 425 555 656 555 l 385 555 q 279 550 316 555 q 210 528 241 545 q 166 477 178 511 q 155 385 155 444 l 155 240 q 166 148 155 182 q 210 97 178 114 q 279 75 241 80 q 385 71 316 71 l 656 71 z "},"Ġ":{"ha":822,"x_min":98,"x_max":727,"o":"m 656 334 l 479 334 q 430 368 430 334 q 479 404 430 404 l 727 404 l 727 148 q 701 41 727 81 q 591 0 674 0 l 392 0 q 269 9 317 0 q 178 42 220 18 q 117 115 137 66 q 98 240 98 164 l 98 623 q 170 814 98 766 q 400 863 243 863 l 591 863 q 664 850 635 863 q 706 813 693 837 q 723 766 719 789 q 727 712 727 743 q 692 663 727 663 q 656 709 656 663 q 641 773 656 754 q 582 792 625 792 l 400 792 q 217 762 266 792 q 168 621 168 731 l 168 241 q 216 101 168 132 q 392 71 264 71 l 582 71 q 641 89 625 71 q 656 152 656 107 l 656 334 m 392 1062 q 437 1046 414 1062 q 461 1006 461 1029 q 437 967 461 983 q 392 951 414 951 q 346 967 369 951 q 323 1006 323 983 q 346 1046 323 1029 q 392 1062 369 1062 z "},"ġ":{"ha":829,"x_min":84,"x_max":727,"o":"m 727 -118 q 701 -242 727 -206 q 604 -278 675 -278 l 220 -278 q 147 -265 176 -278 q 105 -228 118 -252 q 88 -180 92 -203 q 84 -126 84 -157 q 119 -79 84 -79 q 155 -123 155 -79 q 171 -189 155 -171 q 229 -208 187 -208 l 594 -208 q 645 -194 633 -208 q 656 -140 656 -180 l 656 0 l 385 0 q 157 48 229 0 q 84 239 84 96 l 84 387 q 157 577 84 529 q 385 625 229 625 l 425 625 q 656 540 576 625 l 656 587 q 692 635 656 635 q 727 589 727 635 l 727 -118 m 656 71 l 656 316 q 425 555 656 555 l 385 555 q 279 550 316 555 q 210 528 241 545 q 166 477 178 511 q 155 385 155 444 l 155 240 q 166 148 155 182 q 210 97 178 114 q 279 75 241 80 q 385 71 316 71 l 656 71 m 406 822 q 451 806 427 822 q 475 766 475 789 q 451 727 475 743 q 406 711 427 711 q 359 727 382 711 q 336 766 336 743 q 359 806 336 789 q 406 822 382 822 z "},"Ģ":{"ha":822,"x_min":98,"x_max":727,"o":"m 481 -107 q 475 -133 481 -121 l 419 -245 q 385 -278 406 -278 q 355 -244 355 -278 q 359 -222 355 -239 l 392 -104 q 426 -73 401 -73 q 461 -81 441 -73 q 481 -107 481 -90 m 656 334 l 479 334 q 430 368 430 334 q 479 404 430 404 l 727 404 l 727 148 q 701 41 727 81 q 591 0 674 0 l 392 0 q 269 9 317 0 q 178 42 220 18 q 117 115 137 66 q 98 240 98 164 l 98 623 q 170 814 98 766 q 400 863 243 863 l 591 863 q 664 850 635 863 q 706 813 693 837 q 723 766 719 789 q 727 712 727 743 q 692 663 727 663 q 656 709 656 663 q 641 773 656 754 q 582 792 625 792 l 400 792 q 217 762 266 792 q 168 621 168 731 l 168 241 q 216 101 168 132 q 392 71 264 71 l 582 71 q 641 89 625 71 q 656 152 656 107 l 656 334 z "},"ģ":{"ha":829,"x_min":84,"x_max":727,"o":"m 369 751 q 376 777 369 765 l 431 890 q 465 922 445 922 q 495 888 495 922 q 491 867 495 883 l 458 750 q 425 718 449 718 q 389 726 410 718 q 369 751 369 734 m 727 -118 q 701 -242 727 -206 q 604 -278 675 -278 l 220 -278 q 147 -265 176 -278 q 105 -228 118 -252 q 88 -180 92 -203 q 84 -126 84 -157 q 119 -79 84 -79 q 155 -123 155 -79 q 171 -189 155 -171 q 229 -208 187 -208 l 594 -208 q 645 -194 633 -208 q 656 -140 656 -180 l 656 0 l 385 0 q 157 48 229 0 q 84 239 84 96 l 84 387 q 157 577 84 529 q 385 625 229 625 l 425 625 q 656 540 576 625 l 656 587 q 692 635 656 635 q 727 589 727 635 l 727 -118 m 656 71 l 656 316 q 425 555 656 555 l 385 555 q 279 550 316 555 q 210 528 241 545 q 166 477 178 511 q 155 385 155 444 l 155 240 q 166 148 155 182 q 210 97 178 114 q 279 75 241 80 q 385 71 316 71 l 656 71 z "},"Ĥ":{"ha":857,"x_min":114,"x_max":743,"o":"m 184 37 q 149 -9 184 -9 q 114 37 114 -9 l 114 825 q 146 872 114 872 q 184 825 184 872 l 184 500 l 673 500 l 673 825 q 707 872 673 872 q 743 825 743 872 l 743 37 q 709 -9 743 -9 q 673 37 673 -9 l 673 430 l 184 430 l 184 37 m 248 932 l 391 1111 l 471 1111 l 616 932 q 624 907 624 921 q 593 876 624 876 q 580 879 586 876 q 572 884 574 882 q 563 894 570 886 q 555 903 556 902 l 431 1034 l 309 903 q 302 895 307 901 q 296 888 298 890 q 290 882 293 886 q 281 878 286 879 q 271 876 277 876 q 240 907 240 876 q 248 932 240 921 z "},"ĥ":{"ha":840,"x_min":102,"x_max":745,"o":"m 404 555 q 231 493 289 555 q 172 313 172 431 l 172 37 q 137 -9 172 -9 q 102 37 102 -9 l 102 823 q 134 872 102 872 q 172 823 172 872 l 172 540 q 404 625 252 625 l 444 625 q 672 577 600 625 q 745 387 745 529 l 745 37 q 711 -9 745 -9 q 674 37 674 -9 l 674 385 q 663 477 674 444 q 619 528 651 511 q 550 550 587 545 q 444 555 513 555 l 404 555 m 240 932 l 382 1111 l 463 1111 l 608 932 q 616 907 616 921 q 585 876 616 876 q 572 879 578 876 q 564 884 566 882 q 555 894 562 886 q 547 903 548 902 l 423 1034 l 301 903 q 294 895 298 901 q 288 888 290 890 q 281 882 285 886 q 273 878 278 879 q 263 876 269 876 q 232 907 232 876 q 240 932 232 921 z "},"Ħ":{"ha":863,"x_min":38,"x_max":825,"o":"m 73 689 q 38 719 38 689 q 73 747 38 747 l 117 747 l 117 825 q 149 872 117 872 q 187 825 187 872 l 187 747 l 675 747 l 675 825 q 709 872 675 872 q 746 825 746 872 l 746 747 l 785 747 q 825 716 825 747 q 785 689 825 689 l 746 689 l 746 37 q 712 -9 746 -9 q 675 37 675 -9 l 675 430 l 187 430 l 187 37 q 152 -9 187 -9 q 117 37 117 -9 l 117 689 l 73 689 m 675 689 l 187 689 l 187 500 l 675 500 l 675 689 z "},"ħ":{"ha":840,"x_min":50,"x_max":745,"o":"m 102 750 l 102 823 q 134 872 102 872 q 172 823 172 872 l 172 750 l 457 750 q 509 712 509 750 q 457 678 509 678 l 172 678 l 172 540 q 404 625 252 625 l 444 625 q 672 577 600 625 q 745 387 745 529 l 745 37 q 711 -9 745 -9 q 674 37 674 -9 l 674 385 q 663 477 674 444 q 619 528 651 511 q 550 550 587 545 q 444 555 513 555 l 404 555 q 231 493 290 555 q 172 313 172 431 l 172 37 q 137 -9 172 -9 q 102 37 102 -9 l 102 678 q 50 716 50 678 q 102 750 50 750 z "},"Ĩ":{"ha":298,"x_min":-42,"x_max":340,"o":"m 222 1035 q 233 1040 227 1035 l 275 1078 q 305 1090 293 1090 q 330 1082 319 1090 q 340 1059 340 1074 q 321 1023 340 1040 l 258 970 q 232 959 247 959 q 227 960 229 959 q 222 960 224 960 q 217 960 220 960 l 216 962 l 83 1010 q 75 1013 80 1013 q 64 1008 71 1013 l 22 970 q -8 958 4 958 q -31 966 -20 958 q -42 990 -42 975 q -23 1025 -42 1010 l 39 1077 q 65 1089 49 1089 q 75 1088 68 1089 q 83 1086 81 1086 l 216 1038 l 222 1035 m 184 34 q 148 -9 184 -9 q 114 34 114 -9 l 114 827 q 149 872 114 872 q 184 827 184 872 l 184 34 z "},"ĩ":{"ha":271,"x_min":-56,"x_max":327,"o":"m 209 802 q 220 807 213 802 l 262 845 q 292 857 279 857 q 316 849 305 857 q 327 826 327 841 q 308 789 327 807 l 244 736 q 218 726 233 726 q 213 726 216 726 q 208 727 210 727 q 203 727 206 727 l 202 728 l 69 777 q 61 780 66 780 q 50 774 57 780 l 8 736 q -22 724 -9 724 q -45 733 -34 724 q -56 757 -56 742 q -37 792 -56 777 l 26 844 q 52 856 35 856 q 61 854 54 856 q 69 853 68 853 l 202 804 l 209 802 m 134 -16 q 100 27 100 -16 l 100 597 q 136 642 100 642 q 171 597 171 642 l 171 27 q 134 -16 171 -16 z "},"Ī":{"ha":298,"x_min":-61,"x_max":359,"o":"m -61 994 q -19 1029 -61 1029 l 313 1029 q 359 991 359 1029 q 347 967 359 977 q 313 958 334 958 l -19 958 q -61 994 -61 958 m 184 34 q 148 -9 184 -9 q 114 34 114 -9 l 114 827 q 149 872 114 872 q 184 827 184 872 l 184 34 z "},"ī":{"ha":271,"x_min":-75,"x_max":346,"o":"m -75 761 q -33 796 -75 796 l 300 796 q 346 758 346 796 q 333 734 346 743 q 300 724 320 724 l -33 724 q -75 761 -75 724 m 134 -16 q 100 27 100 -16 l 100 597 q 136 642 100 642 q 171 597 171 642 l 171 27 q 134 -16 171 -16 z "},"Į":{"ha":300,"x_min":35,"x_max":273,"o":"m 106 -123 q 163 -197 106 -197 q 214 -185 184 -197 q 252 -174 244 -174 q 273 -197 273 -174 q 236 -248 273 -232 q 165 -264 199 -264 q 73 -225 110 -264 q 35 -123 35 -186 q 115 34 35 -64 l 115 827 q 151 872 115 872 q 186 827 186 872 l 186 34 q 171 -4 186 9 q 125 -66 144 -27 q 106 -123 106 -106 z "},"į":{"ha":273,"x_min":14,"x_max":251,"o":"m 137 871 q 182 854 159 871 q 206 815 206 838 q 182 776 206 792 q 137 760 159 760 q 91 776 114 760 q 68 815 68 792 q 91 854 68 838 q 137 871 114 871 m 84 -137 q 141 -210 84 -210 q 193 -199 163 -210 q 231 -187 222 -187 q 251 -210 251 -187 q 214 -262 251 -245 q 144 -278 178 -278 q 51 -239 88 -278 q 14 -137 14 -199 q 41 -58 14 -106 q 102 30 68 -9 l 102 597 q 137 642 102 642 q 172 597 172 642 l 172 27 q 163 -5 172 1 q 109 -73 133 -28 q 84 -137 84 -118 z "},"İ":{"ha":298,"x_min":73,"x_max":212,"o":"m 184 34 q 148 -9 184 -9 q 114 34 114 -9 l 114 827 q 149 872 114 872 q 184 827 184 872 l 184 34 m 142 1062 q 188 1046 164 1062 q 212 1006 212 1029 q 188 967 212 983 q 142 951 164 951 q 96 967 119 951 q 73 1006 73 983 q 96 1046 73 1029 q 142 1062 119 1062 z "},"ı":{"ha":271,"x_min":100,"x_max":171,"o":"m 134 -16 q 100 27 100 -16 l 100 597 q 136 642 100 642 q 171 597 171 642 l 171 27 q 134 -16 171 -16 z "},"Ĵ":{"ha":746,"x_min":43,"x_max":773,"o":"m 340 60 q 517 90 469 60 q 566 231 566 121 l 566 829 q 601 872 566 872 q 636 827 636 872 l 636 229 q 616 104 636 153 q 555 31 597 56 q 465 -2 514 7 q 340 -11 415 -11 q 216 -2 266 -11 q 125 32 167 7 q 63 106 83 57 q 43 233 43 156 q 81 278 43 278 q 115 233 115 278 q 163 90 115 121 q 340 60 210 60 m 397 933 l 540 1112 l 620 1112 l 765 933 q 773 909 773 922 q 742 878 773 878 q 729 880 735 878 q 721 885 723 883 q 712 895 719 887 q 704 905 705 903 l 581 1035 l 458 905 q 452 897 456 902 q 445 889 448 891 q 439 884 442 887 q 431 879 435 880 q 420 878 426 878 q 389 909 389 878 q 397 933 389 922 z "},"ĵ":{"ha":274,"x_min":-165,"x_max":326,"o":"m 172 0 q 153 -124 172 -76 q 92 -197 133 -172 q 3 -229 50 -221 q -117 -237 -45 -237 q -165 -201 -165 -237 q -117 -167 -165 -167 q 55 -137 8 -167 q 102 0 102 -107 l 102 586 q 138 635 102 635 q 172 586 172 635 l 172 0 m -50 766 l 92 945 l 172 945 l 317 766 q 326 742 326 755 q 294 711 326 711 q 281 713 288 711 q 273 718 275 716 q 264 728 271 720 q 256 738 258 736 l 133 868 l 11 738 q 4 730 8 735 q -3 722 0 724 q -9 717 -5 720 q -17 712 -12 713 q -27 711 -22 711 q -58 742 -58 711 q -50 766 -58 755 z "},"Ķ":{"ha":703,"x_min":114,"x_max":697,"o":"m 468 -34 q 461 -60 468 -47 l 406 -172 q 372 -205 392 -205 q 342 -171 342 -205 q 346 -149 342 -165 l 378 -31 q 412 0 388 0 q 448 -8 427 0 q 468 -34 468 -16 m 682 56 q 697 24 697 38 q 685 1 697 11 q 662 -9 673 -9 q 628 11 644 -9 l 256 437 l 184 350 l 184 34 q 148 -9 184 -9 q 114 34 114 -9 l 114 827 q 149 872 114 872 q 184 827 184 872 l 184 448 l 538 852 q 572 872 553 872 q 595 863 583 872 q 606 840 606 853 q 593 807 606 825 l 304 483 l 682 56 z "},"ķ":{"ha":616,"x_min":102,"x_max":600,"o":"m 388 -34 q 381 -60 388 -47 l 326 -172 q 292 -205 312 -205 q 262 -171 262 -205 q 266 -149 262 -165 l 298 -31 q 332 0 308 0 q 368 -8 347 0 q 388 -34 388 -16 m 600 26 q 590 3 600 14 q 567 -8 581 -8 q 533 8 552 -8 l 212 319 l 172 279 l 172 34 q 136 -9 172 -9 q 102 33 102 -9 l 102 827 q 137 872 102 872 q 172 827 172 872 l 172 365 l 435 616 q 468 632 453 632 q 491 622 480 632 q 502 597 502 612 q 486 566 502 582 l 260 359 l 585 58 q 600 26 600 41 z "},"ĸ":{"ha":623,"x_min":100,"x_max":581,"o":"m 581 26 q 571 2 581 14 q 548 -9 562 -9 q 517 3 532 -9 l 171 281 l 171 33 q 134 -9 171 -9 q 100 33 100 -9 l 100 591 q 136 635 100 635 q 171 591 171 635 l 171 349 l 515 625 q 548 639 532 639 q 571 627 562 639 q 581 604 581 614 q 560 571 581 585 l 235 315 l 562 57 q 581 26 581 43 z "},"Ĺ":{"ha":700,"x_min":107,"x_max":667,"o":"m 146 0 q 114 47 114 0 l 114 829 q 149 872 114 872 q 184 829 184 872 l 184 71 l 623 71 q 667 34 667 71 q 623 0 667 0 l 146 0 m 270 1044 l 175 951 q 142 933 159 933 q 118 943 129 933 q 107 966 107 954 q 125 1001 107 981 l 218 1093 q 252 1111 235 1111 q 277 1099 267 1111 q 286 1077 286 1088 q 270 1044 286 1063 z "},"ĺ":{"ha":368,"x_min":115,"x_max":315,"o":"m 267 0 l 258 0 q 151 39 179 0 q 122 172 122 77 l 122 825 q 157 872 122 872 q 193 825 193 872 l 193 149 q 208 88 193 106 q 267 71 224 71 q 315 34 315 71 q 267 0 315 0 m 278 1059 l 183 966 q 151 948 167 948 q 126 958 137 948 q 115 981 115 968 q 133 1016 115 996 l 227 1108 q 260 1126 243 1126 q 285 1114 275 1126 q 294 1092 294 1103 q 278 1059 294 1078 z "},"Ļ":{"ha":700,"x_min":114,"x_max":667,"o":"m 448 -107 q 441 -133 448 -121 l 385 -245 q 351 -278 372 -278 q 321 -244 321 -278 q 326 -222 321 -239 l 358 -104 q 392 -73 368 -73 q 427 -81 407 -73 q 448 -107 448 -90 m 146 0 q 114 47 114 0 l 114 829 q 149 872 114 872 q 184 829 184 872 l 184 71 l 623 71 q 667 34 667 71 q 623 0 667 0 l 146 0 z "},"ļ":{"ha":368,"x_min":122,"x_max":315,"o":"m 252 -107 q 245 -133 252 -121 l 190 -245 q 156 -278 176 -278 q 126 -244 126 -278 q 130 -222 126 -239 l 163 -104 q 197 -73 172 -73 q 232 -81 212 -73 q 252 -107 252 -90 m 267 0 l 258 0 q 151 39 179 0 q 122 172 122 77 l 122 825 q 157 872 122 872 q 193 825 193 872 l 193 149 q 208 88 193 106 q 267 71 224 71 q 315 34 315 71 q 267 0 315 0 z "},"Ľ":{"ha":700,"x_min":114,"x_max":667,"o":"m 146 0 q 114 47 114 0 l 114 829 q 149 872 114 872 q 184 829 184 872 l 184 71 l 623 71 q 667 34 667 71 q 623 0 667 0 l 146 0 m 376 848 q 369 822 376 834 l 313 709 q 279 677 300 677 q 250 711 250 677 q 254 732 250 716 l 286 850 q 320 882 296 882 q 355 873 335 882 q 376 848 376 865 z "},"ľ":{"ha":368,"x_min":122,"x_max":393,"o":"m 267 0 l 258 0 q 151 39 179 0 q 122 172 122 77 l 122 825 q 157 872 122 872 q 193 825 193 872 l 193 149 q 208 88 193 106 q 267 71 224 71 q 315 34 315 71 q 267 0 315 0 m 393 845 q 387 819 393 831 l 331 707 q 297 674 317 674 q 267 708 267 674 q 271 730 267 713 l 304 848 q 338 879 313 879 q 373 871 353 879 q 393 845 393 863 z "},"Ł":{"ha":712,"x_min":-1,"x_max":680,"o":"m 159 0 q 126 47 126 0 l 126 416 l 54 381 q 34 377 43 377 q 7 389 15 377 q -1 415 -1 401 q 28 448 -1 433 l 126 496 l 126 829 q 161 872 126 872 q 197 829 197 872 l 197 532 l 259 563 q 282 567 279 567 q 309 557 298 567 q 319 532 319 547 q 285 495 319 513 l 197 452 l 197 71 l 635 71 q 680 34 680 71 q 635 0 680 0 l 159 0 z "},"ł":{"ha":430,"x_min":45,"x_max":369,"o":"m 321 0 l 312 0 q 205 39 233 0 q 176 172 176 77 l 176 419 l 100 381 q 80 377 90 377 q 53 389 61 377 q 45 415 45 401 q 75 448 45 433 l 176 499 l 176 825 q 212 872 176 872 q 247 825 247 872 l 247 534 l 305 563 q 328 567 326 567 q 355 557 345 567 q 365 532 365 547 q 331 495 365 513 l 247 453 l 247 149 q 262 88 247 106 q 321 71 278 71 q 369 34 369 71 q 321 0 369 0 z "},"Ń":{"ha":857,"x_min":114,"x_max":743,"o":"m 709 -9 q 682 0 690 -9 l 184 736 l 184 35 q 149 -9 184 -9 q 114 37 114 -9 l 114 825 q 146 872 114 872 q 187 846 171 872 l 673 130 l 673 823 q 707 872 673 872 q 743 825 743 872 l 743 37 q 709 -9 743 -9 m 538 1032 l 408 876 q 374 856 391 856 q 352 866 363 856 q 340 890 340 876 q 353 921 340 906 l 483 1077 q 517 1097 502 1097 q 540 1087 529 1097 q 551 1062 551 1077 q 538 1032 551 1047 z "},"ń":{"ha":838,"x_min":100,"x_max":743,"o":"m 403 555 q 229 493 288 555 q 171 313 171 431 l 171 37 q 136 -9 171 -9 q 100 37 100 -9 l 100 587 q 133 635 100 635 q 171 586 171 635 l 171 540 q 403 625 251 625 l 442 625 q 671 577 598 625 q 743 387 743 529 l 743 37 q 709 -9 743 -9 q 673 37 673 -9 l 673 385 q 661 477 673 444 q 618 528 650 511 q 549 550 586 545 q 442 555 511 555 l 403 555 m 537 861 l 407 705 q 373 685 388 685 q 351 695 362 685 q 339 719 339 705 q 351 750 339 735 l 481 906 q 515 926 499 926 q 538 916 528 926 q 549 891 549 906 q 537 861 549 876 z "},"Ņ":{"ha":857,"x_min":114,"x_max":743,"o":"m 492 -34 q 486 -60 492 -47 l 430 -172 q 396 -205 416 -205 q 366 -171 366 -205 q 370 -149 366 -165 l 403 -31 q 437 0 412 0 q 472 -8 452 0 q 492 -34 492 -16 m 709 -9 q 682 0 690 -9 l 184 736 l 184 35 q 149 -9 184 -9 q 114 37 114 -9 l 114 825 q 146 872 114 872 q 187 846 171 872 l 673 130 l 673 823 q 707 872 673 872 q 743 825 743 872 l 743 37 q 709 -9 743 -9 z "},"ņ":{"ha":837,"x_min":100,"x_max":743,"o":"m 486 -34 q 479 -60 486 -47 l 423 -172 q 389 -205 410 -205 q 359 -171 359 -205 q 363 -149 359 -165 l 396 -31 q 430 0 406 0 q 465 -8 445 0 q 486 -34 486 -16 m 403 555 q 229 493 288 555 q 171 313 171 431 l 171 37 q 136 -9 171 -9 q 100 37 100 -9 l 100 587 q 133 635 100 635 q 171 586 171 635 l 171 540 q 403 625 251 625 l 442 625 q 671 577 598 625 q 743 387 743 529 l 743 37 q 709 -9 743 -9 q 673 37 673 -9 l 673 385 q 661 477 673 444 q 618 528 650 511 q 549 550 586 545 q 442 555 511 555 l 403 555 z "},"Ň":{"ha":857,"x_min":114,"x_max":743,"o":"m 709 -9 q 682 0 690 -9 l 184 736 l 184 35 q 149 -9 184 -9 q 114 37 114 -9 l 114 825 q 146 872 114 872 q 187 846 171 872 l 673 130 l 673 823 q 707 872 673 872 q 743 825 743 872 l 743 37 q 709 -9 743 -9 m 457 879 l 381 879 l 240 1027 q 231 1047 231 1036 q 262 1074 231 1074 q 305 1051 278 1074 l 419 956 l 533 1051 q 576 1074 560 1074 q 608 1047 608 1074 q 598 1027 608 1036 l 457 879 z "},"ň":{"ha":838,"x_min":100,"x_max":743,"o":"m 460 718 l 384 718 l 243 865 q 233 886 233 875 q 264 913 233 913 q 308 890 281 913 l 422 795 l 536 890 q 579 913 563 913 q 610 886 610 913 q 601 865 610 875 l 460 718 m 403 555 q 229 493 288 555 q 171 313 171 431 l 171 37 q 136 -9 171 -9 q 100 37 100 -9 l 100 587 q 133 635 100 635 q 171 586 171 635 l 171 540 q 403 625 251 625 l 442 625 q 671 577 598 625 q 743 387 743 529 l 743 37 q 709 -9 743 -9 q 673 37 673 -9 l 673 385 q 661 477 673 444 q 618 528 650 511 q 549 550 586 545 q 442 555 511 555 l 403 555 z "},"Ŋ":{"ha":859,"x_min":114,"x_max":743,"o":"m 673 130 l 673 823 q 707 872 673 872 q 743 825 743 872 l 743 0 q 724 -124 743 -76 q 663 -197 704 -172 q 574 -229 621 -221 q 454 -237 526 -237 q 406 -201 406 -237 q 454 -167 406 -167 q 626 -137 579 -167 q 673 0 673 -107 l 673 14 l 184 736 l 184 35 q 149 -9 184 -9 q 114 37 114 -9 l 114 825 q 146 872 114 872 q 187 846 171 872 l 673 130 z "},"ŋ":{"ha":840,"x_min":100,"x_max":743,"o":"m 403 555 q 229 493 288 555 q 171 313 171 431 l 171 37 q 136 -9 171 -9 q 100 37 100 -9 l 100 587 q 133 635 100 635 q 171 586 171 635 l 171 540 q 403 625 251 625 l 442 625 q 671 577 598 625 q 743 387 743 529 l 743 0 q 724 -124 743 -76 q 663 -197 704 -172 q 574 -229 621 -221 q 454 -237 526 -237 q 406 -201 406 -237 q 454 -167 406 -167 q 626 -137 579 -167 q 673 0 673 -107 l 673 385 q 661 477 673 444 q 618 528 650 511 q 549 550 586 545 q 442 555 511 555 l 403 555 z "},"Ō":{"ha":806,"x_min":88,"x_max":718,"o":"m 193 994 q 235 1029 193 1029 l 567 1029 q 613 991 613 1029 q 600 967 613 977 q 567 958 587 958 l 235 958 q 193 994 193 958 m 629 74 q 585 31 629 74 q 403 -12 541 -12 q 176 73 264 -12 q 88 309 88 159 l 88 553 q 176 789 88 704 q 403 875 264 875 q 629 789 541 875 q 718 553 718 703 l 718 309 q 629 74 718 160 m 583 738 q 551 771 583 738 q 403 804 519 804 q 222 738 286 804 q 159 552 159 671 l 159 311 q 222 125 159 191 q 403 58 286 58 q 583 125 519 58 q 647 311 647 191 l 647 552 q 583 738 647 671 z "},"ō":{"ha":811,"x_min":84,"x_max":727,"o":"m 197 745 q 239 780 197 780 l 571 780 q 617 742 617 780 q 604 718 617 727 q 571 708 591 708 l 239 708 q 197 745 197 708 m 426 0 l 387 0 q 157 48 231 0 q 84 239 84 96 l 84 387 q 157 577 84 529 q 387 625 231 625 l 426 625 q 654 577 582 625 q 727 387 727 529 l 727 239 q 654 48 727 96 q 426 0 582 0 m 387 71 l 426 71 q 532 75 495 71 q 602 97 570 80 q 645 148 633 114 q 656 240 656 182 l 656 385 q 645 477 656 444 q 602 528 633 511 q 532 550 570 545 q 426 555 495 555 l 387 555 q 280 550 317 555 q 210 528 243 545 q 166 477 178 511 q 155 385 155 444 l 155 240 q 166 148 155 182 q 210 97 178 114 q 280 75 243 80 q 387 71 317 71 z "},"Ő":{"ha":806,"x_min":88,"x_max":718,"o":"m 629 74 q 585 31 629 74 q 403 -12 541 -12 q 176 73 264 -12 q 88 309 88 159 l 88 553 q 176 789 88 704 q 403 875 264 875 q 629 789 541 875 q 718 553 718 703 l 718 309 q 629 74 718 160 m 583 738 q 551 771 583 738 q 403 804 519 804 q 222 738 286 804 q 159 552 159 671 l 159 311 q 222 125 159 191 q 403 58 286 58 q 583 125 519 58 q 647 311 647 191 l 647 552 q 583 738 647 671 m 458 1044 l 363 951 q 331 933 347 933 q 307 943 317 933 q 296 966 296 954 q 313 1001 296 981 l 407 1093 q 441 1111 423 1111 q 465 1099 456 1111 q 475 1077 475 1088 q 458 1044 475 1063 m 594 1044 l 499 951 q 467 933 483 933 q 442 943 453 933 q 431 966 431 954 q 449 1001 431 981 l 543 1093 q 576 1111 559 1111 q 601 1099 591 1111 q 610 1077 610 1088 q 594 1044 610 1063 z "},"ő":{"ha":811,"x_min":84,"x_max":727,"o":"m 426 0 l 387 0 q 157 48 231 0 q 84 239 84 96 l 84 387 q 157 577 84 529 q 387 625 231 625 l 426 625 q 654 577 582 625 q 727 387 727 529 l 727 239 q 654 48 727 96 q 426 0 582 0 m 387 71 l 426 71 q 532 75 495 71 q 602 97 570 80 q 645 148 633 114 q 656 240 656 182 l 656 385 q 645 477 656 444 q 602 528 633 511 q 532 550 570 545 q 426 555 495 555 l 387 555 q 280 550 317 555 q 210 528 243 545 q 166 477 178 511 q 155 385 155 444 l 155 240 q 166 148 155 182 q 210 97 178 114 q 280 75 243 80 q 387 71 317 71 m 468 878 l 338 722 q 304 701 320 701 q 281 711 293 701 q 270 735 270 722 q 282 766 270 751 l 412 922 q 446 943 431 943 q 469 932 458 943 q 480 907 480 922 q 468 878 480 892 m 631 878 l 500 722 q 467 701 483 701 q 444 711 456 701 q 433 735 433 722 q 445 766 433 751 l 575 922 q 609 943 594 943 q 632 932 621 943 q 643 907 643 922 q 631 878 643 892 z "},"Œ":{"ha":985,"x_min":87,"x_max":925,"o":"m 518 841 q 548 863 524 863 l 878 863 q 925 830 925 863 q 878 793 925 793 l 587 793 l 587 521 l 716 521 q 765 483 765 521 q 716 450 765 450 l 587 450 l 587 71 l 878 71 q 925 33 925 71 q 878 0 925 0 l 553 0 q 521 20 526 0 q 374 -12 458 -12 q 178 77 270 -12 q 87 309 87 165 l 87 553 q 178 786 87 697 q 372 875 269 875 q 518 841 456 875 m 374 58 q 517 103 467 58 l 517 760 q 372 804 468 804 q 223 734 290 804 q 156 552 156 665 l 156 311 q 224 128 156 198 q 374 58 292 58 z "},"œ":{"ha":1013,"x_min":84,"x_max":932,"o":"m 711 555 q 595 526 631 555 q 557 403 559 498 l 861 403 q 825 526 860 498 q 711 555 789 555 m 317 555 q 185 515 216 555 q 155 385 155 476 l 155 240 q 185 110 155 149 q 317 71 216 71 q 454 111 422 71 q 487 240 487 151 l 487 385 q 454 515 487 475 q 317 555 422 555 m 317 0 q 137 57 190 0 q 84 239 84 114 l 84 387 q 137 568 84 510 q 317 625 190 625 q 521 537 461 625 q 711 625 574 625 q 795 616 760 625 q 865 583 831 606 q 915 509 898 559 q 932 387 932 460 l 932 332 l 557 332 l 557 240 q 574 148 557 184 q 621 96 590 111 q 677 75 651 80 q 736 71 703 71 q 861 155 861 71 q 895 199 861 199 q 932 151 932 199 q 920 83 932 111 q 889 39 907 54 q 843 14 871 23 q 791 3 815 5 q 736 0 768 0 q 524 92 576 0 q 448 22 495 45 q 317 0 400 0 z "},"Ŕ":{"ha":772,"x_min":114,"x_max":697,"o":"m 391 507 q 566 534 517 507 q 616 646 616 562 q 566 759 616 732 q 391 785 515 785 l 184 785 l 184 507 l 391 507 m 528 450 q 614 305 572 407 q 677 126 656 203 q 697 34 697 49 q 687 3 697 15 q 661 -9 677 -9 q 635 3 644 -9 q 627 34 627 16 q 608 123 627 52 q 543 294 589 195 q 439 437 496 393 l 184 437 l 184 34 q 148 -9 184 -9 q 114 34 114 -9 l 114 814 q 146 863 114 863 l 391 863 q 612 818 538 863 q 686 652 686 773 q 528 450 686 483 m 438 1044 l 343 951 q 311 933 327 933 q 286 943 297 933 q 275 966 275 954 q 293 1001 275 981 l 387 1093 q 420 1111 403 1111 q 445 1099 435 1111 q 454 1077 454 1088 q 438 1044 454 1063 z "},"ŕ":{"ha":519,"x_min":100,"x_max":499,"o":"m 389 555 q 227 492 283 555 q 171 313 171 430 l 171 37 q 136 -9 171 -9 q 100 37 100 -9 l 100 587 q 133 635 100 635 q 171 586 171 635 l 171 540 q 389 625 251 625 l 452 625 q 499 590 499 625 q 452 555 499 555 l 389 555 m 406 861 l 275 705 q 241 685 258 685 q 219 695 231 685 q 208 719 208 705 q 220 750 208 735 l 350 906 q 384 926 369 926 q 407 916 396 926 q 418 891 418 906 q 406 861 418 876 z "},"Ŗ":{"ha":772,"x_min":114,"x_max":697,"o":"m 468 -34 q 461 -60 468 -47 l 406 -172 q 372 -205 392 -205 q 342 -171 342 -205 q 346 -149 342 -165 l 378 -31 q 412 0 388 0 q 448 -8 427 0 q 468 -34 468 -16 m 391 507 q 566 534 517 507 q 616 646 616 562 q 566 759 616 732 q 391 785 515 785 l 184 785 l 184 507 l 391 507 m 528 450 q 614 305 572 407 q 677 126 656 203 q 697 34 697 49 q 687 3 697 15 q 661 -9 677 -9 q 635 3 644 -9 q 627 34 627 16 q 608 123 627 52 q 543 294 589 195 q 439 437 496 393 l 184 437 l 184 34 q 148 -9 184 -9 q 114 34 114 -9 l 114 814 q 146 863 114 863 l 391 863 q 612 818 538 863 q 686 652 686 773 q 528 450 686 483 z "},"ŗ":{"ha":519,"x_min":73,"x_max":499,"o":"m 199 -107 q 193 -133 199 -121 l 137 -245 q 103 -278 123 -278 q 73 -244 73 -278 q 77 -222 73 -239 l 110 -104 q 144 -73 119 -73 q 179 -81 159 -73 q 199 -107 199 -90 m 389 555 q 227 492 283 555 q 171 313 171 430 l 171 37 q 136 -9 171 -9 q 100 37 100 -9 l 100 587 q 133 635 100 635 q 171 586 171 635 l 171 540 q 389 625 251 625 l 452 625 q 499 590 499 625 q 452 555 499 555 l 389 555 z "},"Ř":{"ha":772,"x_min":114,"x_max":697,"o":"m 391 507 q 566 534 517 507 q 616 646 616 562 q 566 759 616 732 q 391 785 515 785 l 184 785 l 184 507 l 391 507 m 528 450 q 614 305 572 407 q 677 126 656 203 q 697 34 697 49 q 687 3 697 15 q 661 -9 677 -9 q 635 3 644 -9 q 627 34 627 16 q 608 123 627 52 q 543 294 589 195 q 439 437 496 393 l 184 437 l 184 34 q 148 -9 184 -9 q 114 34 114 -9 l 114 814 q 146 863 114 863 l 391 863 q 612 818 538 863 q 686 652 686 773 q 528 450 686 483 m 404 916 l 328 916 l 187 1063 q 178 1084 178 1073 q 209 1111 178 1111 q 252 1088 225 1111 l 366 993 l 480 1088 q 524 1111 507 1111 q 555 1084 555 1111 q 545 1063 555 1073 l 404 916 z "},"ř":{"ha":519,"x_min":100,"x_max":499,"o":"m 338 718 l 262 718 l 121 865 q 111 886 111 875 q 142 913 111 913 q 186 890 159 913 l 300 795 l 414 890 q 457 913 441 913 q 488 886 488 913 q 479 865 488 875 l 338 718 m 389 555 q 227 492 283 555 q 171 313 171 430 l 171 37 q 136 -9 171 -9 q 100 37 100 -9 l 100 587 q 133 635 100 635 q 171 586 171 635 l 171 540 q 389 625 251 625 l 452 625 q 499 590 499 625 q 452 555 499 555 l 389 555 z "},"Ś":{"ha":812,"x_min":83,"x_max":728,"o":"m 153 652 q 177 559 153 598 q 235 514 201 521 l 556 445 q 688 361 647 425 q 728 212 728 297 q 675 55 728 121 q 498 -11 621 -11 l 385 -11 q 258 -2 308 -11 q 165 32 208 7 q 102 106 122 57 q 83 233 83 156 q 121 278 83 278 q 155 233 155 278 q 203 90 155 121 q 385 60 251 60 l 524 60 q 627 109 595 60 q 658 213 658 157 q 631 321 658 279 q 576 369 605 362 l 258 439 q 123 511 163 460 q 83 654 83 562 q 138 809 83 745 q 323 873 194 873 l 426 873 q 553 865 503 873 q 646 831 602 856 q 709 758 689 807 q 728 632 728 709 q 692 587 728 587 q 656 632 656 587 q 609 774 656 745 q 426 803 562 803 l 293 803 q 186 755 220 803 q 153 652 153 708 m 481 1044 l 387 951 q 354 933 370 933 q 330 943 340 933 q 319 966 319 954 q 336 1001 319 981 l 430 1093 q 464 1111 446 1111 q 488 1099 479 1111 q 498 1077 498 1088 q 481 1044 498 1063 z "},"ś":{"ha":795,"x_min":81,"x_max":713,"o":"m 217 0 q 144 13 174 0 q 102 50 115 26 q 85 96 90 73 q 81 151 81 119 q 117 199 81 199 q 152 155 152 199 q 168 90 152 109 q 227 71 183 71 l 563 71 q 643 171 643 71 q 621 253 643 221 q 563 285 598 285 l 256 285 q 81 461 81 285 q 123 584 81 543 q 270 625 165 625 l 575 625 q 648 612 618 625 q 690 575 677 600 q 707 528 703 551 q 711 473 711 505 q 675 426 711 426 q 640 471 640 426 q 624 536 640 518 q 566 555 608 555 l 232 555 q 152 461 152 555 q 174 382 152 410 q 232 355 197 355 l 540 355 q 674 302 635 355 q 713 171 713 250 q 671 43 713 87 q 526 0 628 0 l 217 0 m 545 861 l 415 705 q 381 685 396 685 q 359 695 370 685 q 347 719 347 705 q 359 750 347 735 l 490 906 q 524 926 507 926 q 547 916 536 926 q 557 891 557 906 q 545 861 557 876 z "},"Ŝ":{"ha":812,"x_min":83,"x_max":728,"o":"m 153 652 q 177 559 153 598 q 235 514 201 521 l 556 445 q 688 361 647 425 q 728 212 728 297 q 675 55 728 121 q 498 -11 621 -11 l 385 -11 q 258 -2 308 -11 q 165 32 208 7 q 102 106 122 57 q 83 233 83 156 q 121 278 83 278 q 155 233 155 278 q 203 90 155 121 q 385 60 251 60 l 524 60 q 627 109 595 60 q 658 213 658 157 q 631 321 658 279 q 576 369 605 362 l 258 439 q 123 511 163 460 q 83 654 83 562 q 138 809 83 745 q 323 873 194 873 l 426 873 q 553 865 503 873 q 646 831 602 856 q 709 758 689 807 q 728 632 728 709 q 692 587 728 587 q 656 632 656 587 q 609 774 656 745 q 426 803 562 803 l 293 803 q 186 755 220 803 q 153 652 153 708 m 220 932 l 362 1111 l 442 1111 l 587 932 q 595 907 595 921 q 564 876 595 876 q 551 879 557 876 q 543 884 545 882 q 534 894 541 886 q 526 903 528 902 l 403 1034 l 281 903 q 274 895 278 901 q 267 888 270 890 q 261 882 264 886 q 253 878 258 879 q 243 876 248 876 q 212 907 212 876 q 220 932 212 921 z "},"ŝ":{"ha":795,"x_min":81,"x_max":713,"o":"m 217 0 q 144 13 174 0 q 102 50 115 26 q 85 96 90 73 q 81 151 81 119 q 117 199 81 199 q 152 155 152 199 q 168 90 152 109 q 227 71 183 71 l 563 71 q 643 171 643 71 q 621 253 643 221 q 563 285 598 285 l 256 285 q 81 461 81 285 q 123 584 81 543 q 270 625 165 625 l 575 625 q 648 612 618 625 q 690 575 677 600 q 707 528 703 551 q 711 473 711 505 q 675 426 711 426 q 640 471 640 426 q 624 536 640 518 q 566 555 608 555 l 232 555 q 152 461 152 555 q 174 382 152 410 q 232 355 197 355 l 540 355 q 674 302 635 355 q 713 171 713 250 q 671 43 713 87 q 526 0 628 0 l 217 0 m 218 757 l 361 936 l 441 936 l 586 757 q 594 732 594 746 q 563 701 594 701 q 550 704 556 701 q 542 709 544 707 q 533 719 540 711 q 525 728 526 727 l 401 859 l 279 728 q 273 720 277 726 q 266 713 269 715 q 260 707 263 711 q 252 703 256 704 q 241 701 247 701 q 210 732 210 701 q 218 757 210 746 z "},"Ş":{"ha":812,"x_min":83,"x_max":728,"o":"m 153 652 q 177 559 153 598 q 235 514 201 521 l 556 445 q 688 361 647 425 q 728 212 728 297 q 675 55 728 121 q 498 -11 621 -11 l 414 -11 q 460 -56 419 -24 q 502 -127 502 -88 q 464 -207 502 -176 q 372 -237 426 -237 q 301 -221 338 -237 q 264 -170 264 -205 q 285 -145 264 -145 q 324 -157 293 -145 q 374 -170 355 -170 q 431 -134 431 -170 q 412 -103 431 -119 q 369 -64 392 -87 q 340 -9 346 -41 q 146 46 209 -5 q 83 233 83 98 q 121 278 83 278 q 155 233 155 278 q 203 90 155 121 q 385 60 251 60 l 524 60 q 627 109 595 60 q 658 213 658 157 q 631 321 658 279 q 576 369 605 362 l 258 439 q 123 511 163 460 q 83 654 83 562 q 138 809 83 745 q 323 873 194 873 l 426 873 q 553 865 503 873 q 646 831 602 856 q 709 758 689 807 q 728 632 728 709 q 692 587 728 587 q 656 632 656 587 q 609 774 656 745 q 426 803 562 803 l 293 803 q 186 755 220 803 q 153 652 153 708 z "},"ş":{"ha":795,"x_min":81,"x_max":713,"o":"m 217 0 q 144 13 174 0 q 102 50 115 26 q 85 96 90 73 q 81 151 81 119 q 117 199 81 199 q 152 155 152 199 q 168 90 152 109 q 227 71 183 71 l 563 71 q 643 171 643 71 q 621 253 643 221 q 563 285 598 285 l 256 285 q 81 461 81 285 q 123 584 81 543 q 270 625 165 625 l 575 625 q 648 612 618 625 q 690 575 677 600 q 707 528 703 551 q 711 473 711 505 q 675 426 711 426 q 640 471 640 426 q 624 536 640 518 q 566 555 608 555 l 232 555 q 152 461 152 555 q 174 382 152 410 q 232 355 197 355 l 540 355 q 674 302 635 355 q 713 171 713 250 q 671 43 713 87 q 526 0 628 0 l 400 0 q 420 -32 404 -18 q 451 -55 435 -46 q 479 -83 467 -64 q 492 -127 492 -102 q 454 -207 492 -176 q 362 -237 416 -237 q 292 -221 328 -237 q 255 -170 255 -205 q 275 -145 255 -145 q 315 -157 283 -145 q 365 -170 346 -170 q 422 -134 422 -170 q 400 -102 422 -119 q 355 -60 378 -85 q 328 0 332 -35 l 217 0 z "},"Š":{"ha":812,"x_min":83,"x_max":728,"o":"m 153 652 q 177 559 153 598 q 235 514 201 521 l 556 445 q 688 361 647 425 q 728 212 728 297 q 675 55 728 121 q 498 -11 621 -11 l 385 -11 q 258 -2 308 -11 q 165 32 208 7 q 102 106 122 57 q 83 233 83 156 q 121 278 83 278 q 155 233 155 278 q 203 90 155 121 q 385 60 251 60 l 524 60 q 627 109 595 60 q 658 213 658 157 q 631 321 658 279 q 576 369 605 362 l 258 439 q 123 511 163 460 q 83 654 83 562 q 138 809 83 745 q 323 873 194 873 l 426 873 q 553 865 503 873 q 646 831 602 856 q 709 758 689 807 q 728 632 728 709 q 692 587 728 587 q 656 632 656 587 q 609 774 656 745 q 426 803 562 803 l 293 803 q 186 755 220 803 q 153 652 153 708 m 439 916 l 363 916 l 222 1063 q 213 1084 213 1073 q 244 1111 213 1111 q 288 1088 260 1111 l 401 993 l 515 1088 q 559 1111 543 1111 q 590 1084 590 1111 q 581 1063 590 1073 l 439 916 z "},"š":{"ha":795,"x_min":81,"x_max":713,"o":"m 426 708 l 350 708 l 209 856 q 199 876 199 865 q 231 903 199 903 q 274 880 247 903 l 388 785 l 502 880 q 545 903 529 903 q 576 876 576 903 q 567 856 576 865 l 426 708 m 217 0 q 144 13 174 0 q 102 50 115 26 q 85 96 90 73 q 81 151 81 119 q 117 199 81 199 q 152 155 152 199 q 168 90 152 109 q 227 71 183 71 l 563 71 q 643 171 643 71 q 621 253 643 221 q 563 285 598 285 l 256 285 q 81 461 81 285 q 123 584 81 543 q 270 625 165 625 l 575 625 q 648 612 618 625 q 690 575 677 600 q 707 528 703 551 q 711 473 711 505 q 675 426 711 426 q 640 471 640 426 q 624 536 640 518 q 566 555 608 555 l 232 555 q 152 461 152 555 q 174 382 152 410 q 232 355 197 355 l 540 355 q 674 302 635 355 q 713 171 713 250 q 671 43 713 87 q 526 0 628 0 l 217 0 z "},"Ţ":{"ha":652,"x_min":37,"x_max":616,"o":"m 365 14 q 379 -25 365 -8 q 410 -52 393 -42 q 440 -81 426 -61 q 454 -127 454 -100 q 416 -207 454 -176 q 324 -237 378 -237 q 254 -221 290 -237 q 217 -170 217 -205 q 237 -145 217 -145 q 277 -157 245 -145 q 327 -170 308 -170 q 384 -134 384 -170 q 369 -106 384 -121 q 337 -80 354 -92 q 305 -43 320 -68 q 290 14 290 -19 l 290 792 l 81 792 q 37 827 37 792 q 81 863 37 863 l 571 863 q 616 826 616 863 q 571 792 616 792 l 365 792 l 365 14 z "},"ţ":{"ha":465,"x_min":62,"x_max":441,"o":"m 175 240 q 222 100 175 130 q 393 71 269 71 q 441 38 441 71 q 393 0 441 0 q 313 4 350 0 q 340 -35 317 -18 q 385 -74 363 -53 q 406 -127 406 -95 q 368 -207 406 -176 q 275 -237 330 -237 q 205 -221 241 -237 q 168 -170 168 -205 q 189 -145 168 -145 q 228 -157 197 -145 q 278 -170 259 -170 q 335 -134 335 -170 q 320 -106 335 -121 q 288 -80 305 -92 q 256 -43 271 -68 q 241 14 241 -19 l 241 16 q 104 239 104 57 l 104 556 q 62 593 62 559 q 104 625 62 623 l 104 766 q 137 815 104 815 q 175 766 175 815 l 175 625 l 362 625 q 411 587 411 625 q 362 555 411 555 l 175 555 l 175 240 z "},"Ť":{"ha":652,"x_min":37,"x_max":616,"o":"m 571 863 q 616 826 616 863 q 571 792 616 792 l 365 792 l 365 34 q 326 -9 365 -9 q 290 34 290 -9 l 290 792 l 81 792 q 37 827 37 792 q 81 863 37 863 l 571 863 m 365 920 l 289 920 l 148 1067 q 138 1088 138 1077 q 170 1115 138 1115 q 213 1092 186 1115 l 327 997 l 441 1092 q 484 1115 468 1115 q 515 1088 515 1115 q 506 1067 515 1077 l 365 920 z "},"ť":{"ha":467,"x_min":64,"x_max":442,"o":"m 176 240 q 223 100 176 130 q 395 71 270 71 q 442 38 442 71 q 395 0 442 0 q 177 49 248 0 q 106 239 106 98 l 106 556 q 64 593 64 559 q 106 625 64 623 l 106 766 q 138 815 106 815 q 176 766 176 815 l 176 625 l 363 625 q 412 587 412 625 q 363 555 412 555 l 176 555 l 176 240 m 366 829 q 359 803 366 815 l 304 690 q 270 658 290 658 q 240 692 240 658 q 244 713 240 697 l 277 831 q 311 863 286 863 q 346 854 326 863 q 366 829 366 846 z "},"Ŧ":{"ha":652,"x_min":37,"x_max":616,"o":"m 571 863 q 616 826 616 863 q 571 792 616 792 l 365 792 l 365 496 l 490 496 q 536 458 536 496 q 523 434 536 444 q 490 425 510 425 l 365 425 l 365 34 q 326 -9 365 -9 q 290 34 290 -9 l 290 425 l 157 425 q 115 461 115 425 q 157 496 115 496 l 290 496 l 290 792 l 81 792 q 37 827 37 792 q 81 863 37 863 l 571 863 z "},"ŧ":{"ha":473,"x_min":64,"x_max":442,"o":"m 176 240 q 223 100 176 130 q 395 71 270 71 q 442 38 442 71 q 395 0 442 0 q 177 49 248 0 q 106 239 106 98 l 106 366 q 64 403 64 366 q 106 438 64 438 l 106 556 q 64 593 64 559 q 106 625 64 623 l 106 766 q 138 815 106 815 q 176 766 176 815 l 176 625 l 363 625 q 412 587 412 625 q 363 555 412 555 l 176 555 l 176 438 l 396 438 q 442 400 442 438 q 429 376 442 385 q 396 366 416 366 l 176 366 l 176 240 z "},"Ũ":{"ha":841,"x_min":106,"x_max":735,"o":"m 495 1035 q 506 1040 499 1035 l 548 1078 q 578 1090 566 1090 q 602 1082 591 1090 q 613 1059 613 1074 q 594 1023 613 1040 l 530 970 q 505 959 519 959 q 499 960 502 959 q 494 960 496 960 q 491 960 492 960 l 488 962 l 355 1010 q 347 1013 353 1013 q 336 1008 343 1013 l 294 970 q 264 958 277 958 q 241 966 252 958 q 231 990 231 975 q 250 1025 231 1010 l 312 1077 q 338 1089 323 1089 q 347 1088 340 1089 q 355 1086 354 1086 l 488 1038 l 495 1035 m 665 829 q 701 872 665 872 q 735 827 735 872 l 735 309 q 647 74 735 160 q 420 -12 559 -12 q 194 73 282 -12 q 106 309 106 159 l 106 827 q 141 872 106 872 q 176 829 176 872 l 176 311 q 240 125 176 191 q 420 58 304 58 q 601 125 537 58 q 665 311 665 191 l 665 829 z "},"ũ":{"ha":838,"x_min":95,"x_max":738,"o":"m 488 795 q 499 800 492 795 l 541 838 q 571 850 559 850 q 595 842 585 850 q 606 819 606 834 q 587 783 606 800 l 524 730 q 498 719 513 719 q 492 720 495 719 q 488 720 490 720 q 483 722 486 720 l 481 722 l 349 770 q 340 773 346 773 q 330 768 336 773 l 288 730 q 258 718 270 718 q 235 726 245 718 q 224 750 224 735 q 243 785 224 770 l 305 837 q 331 849 315 849 q 340 848 334 849 q 349 846 347 846 l 481 798 l 488 795 m 435 71 q 609 132 551 71 q 667 312 667 194 l 667 589 q 703 635 667 635 q 738 589 738 635 l 738 38 q 705 -9 738 -9 q 667 39 667 -9 l 667 85 q 435 0 587 0 l 396 0 q 168 48 240 0 q 95 239 95 96 l 95 589 q 129 635 95 635 q 165 589 165 635 l 165 240 q 177 148 165 182 q 220 97 189 114 q 290 75 252 80 q 396 71 327 71 l 435 71 z "},"Ū":{"ha":841,"x_min":106,"x_max":735,"o":"m 212 994 q 254 1029 212 1029 l 586 1029 q 632 991 632 1029 q 619 967 632 977 q 586 958 606 958 l 254 958 q 212 994 212 958 m 665 829 q 701 872 665 872 q 735 827 735 872 l 735 309 q 647 74 735 160 q 420 -12 559 -12 q 194 73 282 -12 q 106 309 106 159 l 106 827 q 141 872 106 872 q 176 829 176 872 l 176 311 q 240 125 176 191 q 420 58 304 58 q 601 125 537 58 q 665 311 665 191 l 665 829 z "},"ū":{"ha":838,"x_min":95,"x_max":738,"o":"m 205 754 q 247 789 205 789 l 579 789 q 625 751 625 789 q 612 727 625 736 q 579 718 600 718 l 247 718 q 205 754 205 718 m 435 71 q 609 132 551 71 q 667 312 667 194 l 667 589 q 703 635 667 635 q 738 589 738 635 l 738 38 q 705 -9 738 -9 q 667 39 667 -9 l 667 85 q 435 0 587 0 l 396 0 q 168 48 240 0 q 95 239 95 96 l 95 589 q 129 635 95 635 q 165 589 165 635 l 165 240 q 177 148 165 182 q 220 97 189 114 q 290 75 252 80 q 396 71 327 71 l 435 71 z "},"Ŭ":{"ha":841,"x_min":106,"x_max":735,"o":"m 665 829 q 701 872 665 872 q 735 827 735 872 l 735 309 q 647 74 735 160 q 420 -12 559 -12 q 194 73 282 -12 q 106 309 106 159 l 106 827 q 141 872 106 872 q 176 829 176 872 l 176 311 q 240 125 176 191 q 420 58 304 58 q 601 125 537 58 q 665 311 665 191 l 665 829 m 425 863 q 312 911 362 863 q 262 1040 262 959 l 334 1040 q 361 959 334 982 q 425 936 389 936 q 488 959 460 936 q 515 1040 515 982 l 587 1040 q 536 910 587 958 q 425 863 486 863 z "},"ŭ":{"ha":838,"x_min":95,"x_max":738,"o":"m 415 718 q 302 766 353 718 q 252 895 252 814 l 324 895 q 352 814 324 837 q 415 791 380 791 q 478 814 450 791 q 506 895 506 837 l 578 895 q 527 765 578 812 q 415 718 476 718 m 435 71 q 609 132 551 71 q 667 312 667 194 l 667 589 q 703 635 667 635 q 738 589 738 635 l 738 38 q 705 -9 738 -9 q 667 39 667 -9 l 667 85 q 435 0 587 0 l 396 0 q 168 48 240 0 q 95 239 95 96 l 95 589 q 129 635 95 635 q 165 589 165 635 l 165 240 q 177 148 165 182 q 220 97 189 114 q 290 75 252 80 q 396 71 327 71 l 435 71 z "},"Ů":{"ha":841,"x_min":106,"x_max":735,"o":"m 665 829 q 701 872 665 872 q 735 827 735 872 l 735 309 q 647 74 735 160 q 420 -12 559 -12 q 194 73 282 -12 q 106 309 106 159 l 106 827 q 141 872 106 872 q 176 829 176 872 l 176 311 q 240 125 176 191 q 420 58 304 58 q 601 125 537 58 q 665 311 665 191 l 665 829 m 369 971 q 387 929 369 947 q 429 911 404 911 q 470 929 452 911 q 488 971 488 947 q 470 1013 488 996 q 429 1031 452 1031 q 387 1013 404 1031 q 369 971 369 994 m 351 1049 q 367 1065 351 1049 q 429 1081 382 1081 q 507 1049 475 1081 q 538 971 538 1017 q 507 893 538 925 q 429 861 475 861 q 351 893 382 861 q 319 971 319 925 q 351 1049 319 1017 z "},"ů":{"ha":838,"x_min":95,"x_max":738,"o":"m 435 71 q 609 132 551 71 q 667 312 667 194 l 667 589 q 703 635 667 635 q 738 589 738 635 l 738 38 q 705 -9 738 -9 q 667 39 667 -9 l 667 85 q 435 0 587 0 l 396 0 q 168 48 240 0 q 95 239 95 96 l 95 589 q 129 635 95 635 q 165 589 165 635 l 165 240 q 177 148 165 182 q 220 97 189 114 q 290 75 252 80 q 396 71 327 71 l 435 71 m 350 811 q 368 769 350 787 q 410 751 385 751 q 451 769 433 751 q 469 811 469 787 q 451 853 469 836 q 410 871 433 871 q 368 852 385 871 q 350 811 350 834 m 332 889 q 348 905 332 889 q 410 921 363 921 q 488 889 456 921 q 519 811 519 857 q 488 733 519 765 q 410 701 456 701 q 332 733 363 701 q 300 811 300 765 q 332 889 300 857 z "},"Ű":{"ha":841,"x_min":106,"x_max":735,"o":"m 665 829 q 701 872 665 872 q 735 827 735 872 l 735 309 q 647 74 735 160 q 420 -12 559 -12 q 194 73 282 -12 q 106 309 106 159 l 106 827 q 141 872 106 872 q 176 829 176 872 l 176 311 q 240 125 176 191 q 420 58 304 58 q 601 125 537 58 q 665 311 665 191 l 665 829 m 480 1032 l 350 876 q 316 856 331 856 q 294 866 305 856 q 282 890 282 876 q 294 921 282 906 l 425 1077 q 458 1097 442 1097 q 481 1087 471 1097 q 492 1062 492 1077 q 480 1032 492 1047 m 643 1032 l 513 876 q 479 856 494 856 q 456 866 468 856 q 445 890 445 876 q 457 921 445 906 l 587 1077 q 621 1097 605 1097 q 644 1087 633 1097 q 655 1062 655 1077 q 643 1032 655 1047 z "},"ű":{"ha":838,"x_min":95,"x_max":738,"o":"m 435 71 q 609 132 551 71 q 667 312 667 194 l 667 589 q 703 635 667 635 q 738 589 738 635 l 738 38 q 705 -9 738 -9 q 667 39 667 -9 l 667 85 q 435 0 587 0 l 396 0 q 168 48 240 0 q 95 239 95 96 l 95 589 q 129 635 95 635 q 165 589 165 635 l 165 240 q 177 148 165 182 q 220 97 189 114 q 290 75 252 80 q 396 71 327 71 l 435 71 m 467 887 l 336 731 q 302 711 317 711 q 280 721 292 711 q 269 745 269 731 q 281 776 269 762 l 411 932 q 445 952 429 952 q 468 942 457 952 q 479 917 479 932 q 467 887 479 901 m 629 887 l 499 731 q 465 711 480 711 q 443 721 454 711 q 431 745 431 731 q 444 776 431 762 l 574 932 q 608 952 591 952 q 631 942 620 952 q 642 917 642 932 q 629 887 642 901 z "},"Ų":{"ha":844,"x_min":107,"x_max":736,"o":"m 441 -210 q 492 -199 463 -210 q 530 -187 522 -187 q 551 -210 551 -187 q 514 -262 551 -245 q 444 -278 477 -278 q 351 -239 388 -278 q 313 -137 313 -199 q 372 -9 313 -92 q 180 90 252 7 q 107 309 107 174 l 107 827 q 142 872 107 872 q 178 829 178 872 l 178 311 q 241 125 178 191 q 422 58 305 58 q 602 125 538 58 q 666 311 666 191 l 666 829 q 703 872 666 872 q 736 827 736 872 l 736 309 q 659 85 736 170 q 457 -11 582 1 q 406 -78 429 -37 q 384 -137 384 -119 q 441 -210 384 -210 z "},"ų":{"ha":838,"x_min":95,"x_max":806,"o":"m 696 -210 q 747 -199 718 -210 q 785 -187 777 -187 q 806 -210 806 -187 q 769 -262 806 -245 q 699 -278 732 -278 q 606 -239 643 -278 q 568 -137 568 -199 q 601 -49 568 -103 q 667 42 633 5 l 667 85 q 435 0 587 0 l 396 0 q 168 48 240 0 q 95 239 95 96 l 95 589 q 129 635 95 635 q 165 589 165 635 l 165 240 q 177 148 165 182 q 220 97 189 114 q 290 75 252 80 q 396 71 327 71 l 435 71 q 609 132 551 71 q 667 312 667 194 l 667 589 q 703 635 667 635 q 738 589 738 635 l 738 38 q 715 -8 738 -3 q 662 -75 685 -33 q 639 -137 639 -118 q 696 -210 639 -210 z "},"Ŵ":{"ha":1241,"x_min":37,"x_max":1204,"o":"m 437 932 l 579 1111 l 659 1111 l 804 932 q 812 907 812 921 q 781 876 812 876 q 768 879 774 876 q 760 884 762 882 q 751 894 758 886 q 743 903 745 902 l 620 1034 l 498 903 q 491 895 495 901 q 484 888 487 890 q 478 882 481 886 q 470 878 475 879 q 460 876 465 876 q 429 907 429 876 q 437 932 429 921 m 901 98 l 1134 850 q 1172 880 1145 880 q 1204 854 1204 880 q 1199 830 1204 846 l 939 0 l 860 0 l 620 750 l 381 0 l 304 0 l 42 836 q 37 860 37 852 q 69 886 37 886 q 107 856 96 886 l 343 98 l 581 849 q 620 884 593 884 q 662 849 651 884 l 901 98 z "},"ŵ":{"ha":1074,"x_min":42,"x_max":1034,"o":"m 354 780 l 496 959 l 576 959 l 722 780 q 730 755 730 769 q 699 724 730 724 q 686 727 692 724 q 677 732 680 730 q 669 742 675 734 q 661 751 662 750 l 537 882 l 415 751 q 408 743 412 749 q 401 736 404 738 q 395 730 399 734 q 387 726 392 727 q 377 724 382 724 q 346 755 346 724 q 354 780 346 769 m 1028 591 l 818 0 l 711 0 l 538 507 l 353 0 l 245 0 l 47 591 q 42 616 42 608 q 75 642 42 642 q 113 612 102 642 l 302 65 l 500 605 q 540 633 511 633 q 576 605 567 633 l 766 65 l 963 612 q 1001 642 974 642 q 1034 616 1034 642 q 1028 591 1034 608 z "},"Ŷ":{"ha":707,"x_min":23,"x_max":682,"o":"m 168 932 l 311 1111 l 391 1111 l 536 932 q 544 907 544 921 q 513 876 544 876 q 500 879 506 876 q 492 884 494 882 q 483 894 490 886 q 475 903 476 902 l 351 1034 l 229 903 q 222 895 227 901 q 216 888 218 890 q 210 882 213 886 q 201 878 206 879 q 191 876 197 876 q 160 907 160 876 q 168 932 160 921 m 317 418 l 34 810 q 23 838 23 826 q 34 863 23 853 q 57 872 45 872 q 91 848 72 872 l 353 486 l 613 848 q 648 872 631 872 q 671 862 659 872 q 682 838 682 852 q 671 810 682 826 l 389 418 l 389 33 q 353 -9 389 -9 q 317 33 317 -9 l 317 418 z "},"ŷ":{"ha":840,"x_min":95,"x_max":738,"o":"m 232 773 l 374 952 l 454 952 l 600 773 q 608 749 608 762 q 576 718 608 718 q 564 720 570 718 q 555 725 557 723 q 547 735 553 727 q 538 745 540 743 l 415 875 l 293 745 q 286 736 290 742 q 279 729 282 731 q 273 724 277 727 q 265 719 270 720 q 255 718 260 718 q 224 749 224 718 q 232 773 224 762 m 738 -118 q 712 -242 738 -206 q 614 -278 686 -278 l 231 -278 q 158 -265 187 -278 q 116 -228 129 -252 q 99 -180 103 -203 q 95 -126 95 -157 q 130 -79 95 -79 q 165 -123 165 -79 q 182 -189 165 -171 q 240 -208 198 -208 l 605 -208 q 656 -194 644 -208 q 667 -140 667 -180 l 667 85 q 435 0 587 0 l 396 0 q 168 48 240 0 q 95 239 95 96 l 95 589 q 129 635 95 635 q 165 589 165 635 l 165 240 q 177 148 165 182 q 220 97 189 114 q 290 75 252 80 q 396 71 327 71 l 435 71 q 609 132 551 71 q 667 312 667 194 l 667 589 q 703 635 667 635 q 738 589 738 635 l 738 -118 z "},"Ÿ":{"ha":707,"x_min":23,"x_max":682,"o":"m 255 1063 q 300 1047 277 1063 q 324 1008 324 1031 q 300 968 324 985 q 255 952 277 952 q 209 968 232 952 q 186 1008 186 985 q 209 1047 186 1031 q 255 1063 232 1063 m 453 1063 q 498 1047 475 1063 q 522 1008 522 1031 q 498 968 522 985 q 453 952 475 952 q 407 968 430 952 q 384 1008 384 985 q 407 1047 384 1031 q 453 1063 430 1063 m 317 418 l 34 810 q 23 838 23 826 q 34 863 23 853 q 57 872 45 872 q 91 848 72 872 l 353 486 l 613 848 q 648 872 631 872 q 671 862 659 872 q 682 838 682 852 q 671 810 682 826 l 389 418 l 389 33 q 353 -9 389 -9 q 317 33 317 -9 l 317 418 z "},"Ź":{"ha":753,"x_min":61,"x_max":690,"o":"m 62 0 l 62 69 l 606 806 l 110 806 q 61 841 61 806 q 110 876 61 876 l 690 876 l 690 804 l 149 71 l 643 71 q 690 34 690 71 q 643 0 690 0 l 62 0 m 484 1044 l 389 951 q 357 933 373 933 q 332 943 343 933 q 321 966 321 954 q 339 1001 321 981 l 433 1093 q 467 1111 449 1111 q 491 1099 481 1111 q 500 1077 500 1088 q 484 1044 500 1063 z "},"ź":{"ha":749,"x_min":80,"x_max":680,"o":"m 171 71 l 533 71 q 595 95 582 71 q 609 175 609 119 q 644 224 609 224 q 680 175 680 224 q 651 40 680 80 q 544 0 623 0 l 80 0 l 80 87 l 564 555 l 225 555 q 164 530 178 555 q 151 450 151 506 q 114 401 151 401 q 80 450 80 401 q 109 586 80 547 q 216 625 137 625 l 651 625 l 651 534 l 171 71 m 544 861 l 414 705 q 380 685 396 685 q 357 695 369 685 q 346 719 346 705 q 358 750 346 735 l 488 906 q 522 926 507 926 q 545 916 534 926 q 556 891 556 906 q 544 861 556 876 z "},"Ż":{"ha":753,"x_min":61,"x_max":690,"o":"m 62 0 l 62 69 l 606 806 l 110 806 q 61 841 61 806 q 110 876 61 876 l 690 876 l 690 804 l 149 71 l 643 71 q 690 34 690 71 q 643 0 690 0 l 62 0 m 362 1062 q 408 1046 384 1062 q 431 1006 431 1029 q 408 967 431 983 q 362 951 384 951 q 316 967 339 951 q 293 1006 293 983 q 316 1046 293 1029 q 362 1062 339 1062 z "},"ż":{"ha":749,"x_min":80,"x_max":680,"o":"m 171 71 l 533 71 q 595 95 582 71 q 609 175 609 119 q 644 224 609 224 q 680 175 680 224 q 651 40 680 80 q 544 0 623 0 l 80 0 l 80 87 l 564 555 l 225 555 q 164 530 178 555 q 151 450 151 506 q 114 401 151 401 q 80 450 80 401 q 109 586 80 547 q 216 625 137 625 l 651 625 l 651 534 l 171 71 m 370 812 q 416 796 392 812 q 439 757 439 780 q 416 718 439 734 q 370 701 392 701 q 324 718 347 701 q 301 757 301 734 q 324 796 301 780 q 370 812 347 812 z "},"Ž":{"ha":753,"x_min":61,"x_max":690,"o":"m 62 0 l 62 69 l 606 806 l 110 806 q 61 841 61 806 q 110 876 61 876 l 690 876 l 690 804 l 149 71 l 643 71 q 690 34 690 71 q 643 0 690 0 l 62 0 m 419 916 l 343 916 l 202 1063 q 193 1084 193 1073 q 224 1111 193 1111 q 267 1088 240 1111 l 381 993 l 495 1088 q 538 1111 522 1111 q 570 1084 570 1111 q 560 1063 570 1073 l 419 916 z "},"ž":{"ha":749,"x_min":80,"x_max":680,"o":"m 397 708 l 321 708 l 180 856 q 171 876 171 865 q 202 903 171 903 q 245 880 218 903 l 359 785 l 473 880 q 517 903 500 903 q 548 876 548 903 q 538 856 548 865 l 397 708 m 171 71 l 533 71 q 595 95 582 71 q 609 175 609 119 q 644 224 609 224 q 680 175 680 224 q 651 40 680 80 q 544 0 623 0 l 80 0 l 80 87 l 564 555 l 225 555 q 164 530 178 555 q 151 450 151 506 q 114 401 151 401 q 80 450 80 401 q 109 586 80 547 q 216 625 137 625 l 651 625 l 651 534 l 171 71 z "},"ƒ":{"ha":452,"x_min":-66,"x_max":460,"o":"m 184 62 q 138 -103 184 -64 q -18 -142 92 -142 q -66 -106 -66 -142 q -18 -72 -66 -72 q 53 -68 31 -72 q 90 -45 75 -65 q 106 3 104 -26 q 109 99 109 33 l 109 556 q 66 591 66 559 q 109 625 66 623 q 131 749 110 700 q 195 821 152 798 q 288 854 239 845 q 411 863 338 863 q 460 825 460 863 q 411 792 460 792 q 235 762 285 792 q 184 625 186 732 l 380 625 q 429 587 429 625 q 380 555 429 555 l 184 555 l 184 62 z "},"Ơ":{"ha":854,"x_min":88,"x_max":865,"o":"m 583 738 q 551 771 583 738 q 403 804 519 804 q 222 738 286 804 q 159 552 159 671 l 159 311 q 222 125 159 191 q 403 58 286 58 q 583 125 519 58 q 647 311 647 191 l 647 552 q 583 738 647 671 m 629 74 q 585 31 629 74 q 403 -12 541 -12 q 176 73 264 -12 q 88 309 88 159 l 88 553 q 176 789 88 704 q 403 875 264 875 q 663 749 576 875 q 762 763 732 749 q 792 814 792 777 q 761 861 792 837 q 741 897 741 876 q 752 921 741 911 q 774 930 764 930 q 806 916 791 930 q 865 808 865 865 q 697 681 865 693 q 718 553 718 624 l 718 309 q 629 74 718 160 z "},"ơ":{"ha":883,"x_min":84,"x_max":894,"o":"m 387 71 l 426 71 q 532 75 495 71 q 602 97 570 80 q 645 148 633 114 q 656 240 656 182 l 656 385 q 645 477 656 444 q 602 528 633 511 q 532 550 570 545 q 426 555 495 555 l 387 555 q 280 550 317 555 q 210 528 243 545 q 166 477 178 511 q 155 385 155 444 l 155 240 q 166 148 155 182 q 210 97 178 114 q 280 75 243 80 q 387 71 317 71 m 426 0 l 387 0 q 157 48 231 0 q 84 239 84 96 l 84 387 q 157 577 84 529 q 387 625 231 625 l 426 625 q 617 597 548 625 q 712 492 686 570 q 795 510 769 495 q 821 557 821 525 q 789 605 821 581 q 769 640 769 620 q 781 665 769 655 q 803 674 792 674 q 834 659 819 674 q 894 552 894 609 q 726 425 894 437 q 727 387 727 412 l 727 239 q 654 48 727 96 q 426 0 582 0 z "},"Ư":{"ha":883,"x_min":106,"x_max":899,"o":"m 665 829 q 701 872 665 872 q 735 827 735 872 l 735 743 q 805 762 784 747 q 826 807 826 777 q 795 854 826 830 q 774 890 774 869 q 786 914 774 905 q 808 924 798 924 q 840 909 825 924 q 899 802 899 859 q 735 674 899 686 l 735 309 q 647 74 735 160 q 420 -12 559 -12 q 194 73 282 -12 q 106 309 106 159 l 106 827 q 141 872 106 872 q 176 829 176 872 l 176 311 q 240 125 176 191 q 420 58 304 58 q 601 125 537 58 q 665 311 665 191 l 665 829 z "},"ư":{"ha":891,"x_min":95,"x_max":906,"o":"m 435 71 q 609 132 551 71 q 667 312 667 194 l 667 589 q 703 635 667 635 q 738 589 738 635 l 738 503 q 810 521 788 506 q 833 567 833 536 q 802 614 833 590 q 781 650 781 629 q 793 674 781 665 q 815 684 804 684 q 846 669 831 684 q 906 562 906 618 q 738 434 906 446 l 738 38 q 705 -9 738 -9 q 667 39 667 -9 l 667 85 q 435 0 587 0 l 396 0 q 168 48 240 0 q 95 239 95 96 l 95 589 q 129 635 95 635 q 165 589 165 635 l 165 240 q 177 148 165 182 q 220 97 189 114 q 290 75 252 80 q 396 71 327 71 l 435 71 z "},"Ș":{"ha":814,"x_min":84,"x_max":730,"o":"m 452 -107 q 445 -133 452 -121 l 389 -245 q 355 -278 376 -278 q 326 -244 326 -278 q 330 -222 326 -239 l 362 -104 q 396 -73 372 -73 q 431 -81 411 -73 q 452 -107 452 -90 m 155 652 q 178 559 155 598 q 236 514 202 521 l 557 445 q 689 361 648 425 q 730 212 730 297 q 676 55 730 121 q 499 -11 623 -11 l 387 -11 q 259 -2 309 -11 q 166 32 209 7 q 104 106 123 57 q 84 233 84 156 q 122 278 84 278 q 156 233 156 278 q 204 90 156 121 q 387 60 252 60 l 525 60 q 628 109 597 60 q 659 213 659 157 q 633 321 659 279 q 578 369 606 362 l 259 439 q 124 511 164 460 q 84 654 84 562 q 140 809 84 745 q 324 873 195 873 l 427 873 q 554 865 505 873 q 647 831 604 856 q 710 758 690 807 q 730 632 730 709 q 693 587 730 587 q 658 632 658 587 q 610 774 658 745 q 427 803 563 803 l 294 803 q 188 755 221 803 q 155 652 155 708 z "},"ș":{"ha":795,"x_min":81,"x_max":713,"o":"m 454 -107 q 448 -133 454 -121 l 392 -245 q 358 -278 378 -278 q 328 -244 328 -278 q 332 -222 328 -239 l 365 -104 q 399 -73 374 -73 q 434 -81 414 -73 q 454 -107 454 -90 m 217 0 q 144 13 174 0 q 102 50 115 26 q 85 96 90 73 q 81 151 81 119 q 117 199 81 199 q 152 155 152 199 q 168 90 152 109 q 227 71 183 71 l 563 71 q 643 171 643 71 q 621 253 643 221 q 563 285 598 285 l 256 285 q 81 461 81 285 q 123 584 81 543 q 270 625 165 625 l 575 625 q 648 612 618 625 q 690 575 677 600 q 707 528 703 551 q 711 473 711 505 q 675 426 711 426 q 640 471 640 426 q 624 536 640 518 q 566 555 608 555 l 232 555 q 152 461 152 555 q 174 382 152 410 q 232 355 197 355 l 540 355 q 674 302 635 355 q 713 171 713 250 q 671 43 713 87 q 526 0 628 0 l 217 0 z "},"Ț":{"ha":652,"x_min":37,"x_max":616,"o":"m 389 -107 q 382 -133 389 -121 l 327 -245 q 293 -278 313 -278 q 263 -244 263 -278 q 267 -222 263 -239 l 300 -104 q 334 -73 309 -73 q 369 -81 349 -73 q 389 -107 389 -90 m 571 863 q 616 826 616 863 q 571 792 616 792 l 365 792 l 365 34 q 326 -9 365 -9 q 290 34 290 -9 l 290 792 l 81 792 q 37 827 37 792 q 81 863 37 863 l 571 863 z "},"ț":{"ha":467,"x_min":64,"x_max":442,"o":"m 302 -107 q 296 -133 302 -121 l 240 -245 q 206 -278 227 -278 q 176 -244 176 -278 q 180 -222 176 -239 l 213 -104 q 247 -73 222 -73 q 282 -81 262 -73 q 302 -107 302 -90 m 176 240 q 223 100 176 130 q 395 71 270 71 q 442 38 442 71 q 395 0 442 0 q 177 49 248 0 q 106 239 106 98 l 106 556 q 64 593 64 559 q 106 625 64 623 l 106 766 q 138 815 106 815 q 176 766 176 815 l 176 625 l 363 625 q 412 587 412 625 q 363 555 412 555 l 176 555 l 176 240 z "},"ȷ":{"ha":274,"x_min":-165,"x_max":172,"o":"m 172 0 q 153 -124 172 -76 q 92 -197 133 -172 q 3 -229 50 -221 q -117 -237 -45 -237 q -165 -201 -165 -237 q -117 -167 -165 -167 q 55 -137 8 -167 q 102 0 102 -107 l 102 586 q 138 635 102 635 q 172 586 172 635 l 172 0 z "},"ˆ":{"ha":545,"x_min":81,"x_max":465,"o":"m 90 741 l 232 920 l 312 920 l 457 741 q 465 716 465 730 q 434 685 465 685 q 421 688 427 685 q 413 692 415 690 q 404 703 411 694 q 396 712 397 711 l 273 842 l 151 712 q 144 704 148 709 q 137 696 140 699 q 131 691 134 694 q 123 686 127 688 q 113 685 118 685 q 81 716 81 685 q 90 741 81 730 z "},"ˇ":{"ha":506,"x_min":68,"x_max":445,"o":"m 294 708 l 218 708 l 77 856 q 68 876 68 865 q 99 903 68 903 q 142 880 115 903 l 256 785 l 370 880 q 414 903 397 903 q 445 876 445 903 q 435 856 445 865 l 294 708 z "},"˘":{"ha":578,"x_min":126,"x_max":452,"o":"m 289 815 q 176 863 227 815 q 126 993 126 911 l 198 993 q 226 911 198 935 q 289 888 254 888 q 352 911 324 888 q 380 993 380 935 l 452 993 q 401 863 452 910 q 289 815 350 815 z "},"˙":{"ha":300,"x_min":81,"x_max":220,"o":"m 151 910 q 196 894 172 910 q 220 854 220 878 q 196 815 220 831 q 151 799 172 799 q 104 815 127 799 q 81 854 81 831 q 104 894 81 878 q 151 910 127 910 z "},"˚":{"ha":382,"x_min":81,"x_max":301,"o":"m 132 811 q 149 769 132 787 q 191 751 167 751 q 233 769 214 751 q 251 811 251 787 q 233 853 251 836 q 191 871 214 871 q 149 852 167 871 q 132 811 132 834 m 113 889 q 129 905 113 889 q 191 921 145 921 q 269 889 237 921 q 301 811 301 857 q 269 733 301 765 q 191 701 237 701 q 113 733 145 701 q 81 811 81 765 q 113 889 81 857 z "},"˛":{"ha":317,"x_min":54,"x_max":292,"o":"m 182 -205 q 233 -193 203 -205 q 271 -182 263 -182 q 292 -205 292 -182 q 255 -256 292 -240 q 184 -273 218 -273 q 92 -233 129 -273 q 54 -132 54 -194 q 92 -35 54 -95 q 163 57 129 24 l 214 7 q 153 -62 180 -14 q 125 -132 125 -110 q 182 -205 125 -205 z "},"˜":{"ha":544,"x_min":81,"x_max":464,"o":"m 346 317 q 357 323 350 317 l 399 361 q 429 373 416 373 q 453 365 442 373 q 464 342 464 357 q 445 305 464 323 l 381 252 q 355 241 370 241 q 350 242 353 241 q 345 243 347 243 q 342 244 343 243 l 339 244 l 206 293 q 198 296 203 296 q 187 290 194 296 l 145 252 q 115 240 127 240 q 92 249 103 240 q 81 273 81 258 q 100 308 81 293 l 163 359 q 189 372 174 372 q 198 370 191 372 q 206 369 205 369 l 339 320 l 346 317 z "},"˝":{"ha":452,"x_min":39,"x_max":412,"o":"m 237 861 l 107 705 q 73 685 90 685 q 51 695 62 685 q 39 719 39 705 q 52 750 39 735 l 182 906 q 216 926 201 926 q 239 916 228 926 q 250 891 250 906 q 237 861 250 876 m 400 861 l 270 705 q 236 685 252 685 q 214 695 225 685 q 202 719 202 705 q 214 750 202 735 l 345 906 q 378 926 363 926 q 401 916 391 926 q 412 891 412 906 q 400 861 412 876 z "},"̀":{"ha":0,"x_min":-509,"x_max":-330,"o":"m -473 863 q -441 845 -457 863 l -346 751 q -330 718 -330 732 q -339 696 -330 707 q -363 685 -349 685 q -397 703 -381 685 l -491 795 q -509 829 -509 815 q -498 851 -509 840 q -473 863 -487 863 z "},"́":{"ha":0,"x_min":-509,"x_max":-330,"o":"m -346 796 l -441 703 q -473 685 -457 685 q -498 695 -487 685 q -509 718 -509 705 q -491 753 -509 732 l -397 845 q -363 863 -381 863 q -339 851 -349 863 q -330 829 -330 840 q -346 796 -330 815 z "},"̂":{"ha":0,"x_min":-601,"x_max":-217,"o":"m -593 741 l -450 920 l -370 920 l -225 741 q -217 716 -217 730 q -248 685 -217 685 q -261 688 -255 685 q -269 692 -267 690 q -278 703 -271 694 q -286 712 -285 711 l -410 842 l -532 712 q -538 704 -534 709 q -545 696 -543 699 q -551 691 -548 694 q -559 686 -555 688 q -570 685 -564 685 q -601 716 -601 685 q -593 741 -601 730 z "},"̃":{"ha":0,"x_min":-576,"x_max":-194,"o":"m -312 741 q -301 746 -308 741 l -259 784 q -229 796 -241 796 q -205 788 -216 796 q -194 765 -194 780 q -213 728 -194 746 l -277 675 q -302 665 -288 665 q -308 665 -305 665 q -313 666 -311 666 q -317 667 -315 666 l -319 667 l -452 716 q -460 719 -454 719 q -471 713 -464 719 l -513 675 q -543 663 -530 663 q -566 672 -555 663 q -576 696 -576 681 q -557 731 -576 716 l -495 783 q -469 795 -486 795 q -460 793 -467 795 q -452 792 -453 792 l -319 743 l -312 741 z "},"̄":{"ha":0,"x_min":-601,"x_max":-180,"o":"m -601 731 q -559 766 -601 766 l -227 766 q -180 728 -180 766 q -193 704 -180 713 q -227 694 -206 694 l -559 694 q -601 731 -601 694 z "},"̆":{"ha":0,"x_min":-576,"x_max":-251,"o":"m -414 677 q -526 725 -476 677 q -576 854 -576 773 l -505 854 q -477 773 -505 796 q -414 750 -449 750 q -351 773 -378 750 q -323 854 -323 796 l -251 854 q -302 724 -251 772 q -414 677 -353 677 z "},"̇":{"ha":0,"x_min":-486,"x_max":-347,"o":"m -416 812 q -371 796 -395 812 q -347 757 -347 780 q -371 718 -347 734 q -416 701 -395 701 q -463 718 -439 701 q -486 757 -486 734 q -463 796 -486 780 q -416 812 -439 812 z "},"̈":{"ha":0,"x_min":-586,"x_max":-250,"o":"m -517 796 q -471 780 -495 796 q -448 741 -448 764 q -471 701 -448 718 q -517 685 -495 685 q -563 701 -540 685 q -586 741 -586 718 q -563 780 -586 764 q -517 796 -540 796 m -319 796 q -273 780 -297 796 q -250 741 -250 764 q -273 701 -250 718 q -319 685 -297 685 q -365 701 -342 685 q -388 741 -388 718 q -365 780 -388 764 q -319 796 -342 796 z "},"̉":{"ha":0,"x_min":-475,"x_max":-296,"o":"m -418 803 q -446 779 -418 779 q -475 803 -475 779 q -445 861 -475 841 q -381 882 -415 882 q -319 856 -342 882 q -296 789 -296 830 q -307 749 -296 765 q -332 726 -319 732 q -357 711 -346 720 q -369 690 -369 703 q -396 665 -369 665 q -420 673 -411 665 q -429 690 -429 681 q -417 734 -429 718 q -392 757 -406 751 q -367 772 -378 762 q -355 796 -355 783 q -365 817 -355 810 q -384 825 -374 825 q -418 803 -418 825 z "},"̊":{"ha":0,"x_min":-526,"x_max":-307,"o":"m -476 795 q -458 753 -476 770 q -416 735 -441 735 q -375 753 -393 735 q -357 795 -357 770 q -375 837 -357 819 q -416 854 -393 854 q -458 836 -441 854 q -476 795 -476 818 m -494 873 q -478 889 -494 873 q -416 905 -463 905 q -338 873 -370 905 q -307 795 -307 841 q -338 717 -307 749 q -416 685 -370 685 q -494 717 -463 685 q -526 795 -526 749 q -494 873 -526 841 z "},"̋":{"ha":0,"x_min":-563,"x_max":-248,"o":"m -264 796 l -359 703 q -392 685 -376 685 q -416 695 -406 685 q -427 718 -427 705 q -410 753 -427 732 l -316 845 q -282 863 -300 863 q -258 851 -267 863 q -248 829 -248 840 q -264 796 -248 815 m -400 796 l -495 703 q -528 685 -511 685 q -552 695 -541 685 q -563 718 -563 705 q -545 753 -563 732 l -452 845 q -418 863 -435 863 q -393 851 -403 863 q -384 829 -384 840 q -400 796 -384 815 z "},"̌":{"ha":0,"x_min":-594,"x_max":-217,"o":"m -368 708 l -444 708 l -585 856 q -594 876 -594 865 q -563 903 -594 903 q -519 880 -547 903 l -406 785 l -292 880 q -248 903 -264 903 q -217 876 -217 903 q -227 856 -217 865 l -368 708 z "},"̑":{"ha":0,"x_min":-576,"x_max":-251,"o":"m -414 854 q -301 806 -351 854 q -251 677 -251 758 l -323 677 q -351 758 -323 735 q -414 781 -378 781 q -477 758 -449 781 q -505 677 -505 735 l -576 677 q -526 807 -576 760 q -414 854 -475 854 z "},"̒":{"ha":0,"x_min":-362,"x_max":-236,"o":"m -362 741 q -355 766 -362 754 l -300 879 q -266 911 -286 911 q -236 878 -236 911 q -240 856 -236 872 l -273 739 q -307 707 -282 707 q -342 715 -321 707 q -362 741 -362 723 z "},"̓":{"ha":0,"x_min":-407,"x_max":-269,"o":"m -407 844 q -384 891 -407 872 q -338 910 -361 910 q -290 890 -312 910 q -269 844 -269 871 q -304 736 -269 799 q -365 673 -340 673 q -388 700 -388 673 q -374 739 -388 712 q -359 785 -359 766 q -393 810 -380 791 q -407 844 -407 829 z "},"̛":{"ha":134,"x_min":-84,"x_max":121,"o":"m -84 749 q 17 763 -14 749 q 47 814 47 777 q 16 861 47 837 q -4 897 -4 876 q 7 921 -4 911 q 30 930 19 930 q 61 916 46 930 q 121 808 121 865 q -84 680 121 680 l -84 749 z "},"̣":{"ha":0,"x_min":-486,"x_max":-347,"o":"m -416 -77 q -371 -94 -395 -77 q -347 -133 -347 -110 q -371 -172 -347 -156 q -416 -189 -395 -189 q -463 -172 -439 -189 q -486 -133 -486 -156 q -463 -94 -486 -110 q -416 -77 -439 -77 z "},"̦":{"ha":0,"x_min":-492,"x_max":-366,"o":"m -366 -99 q -373 -125 -366 -113 l -429 -237 q -463 -270 -442 -270 q -492 -236 -492 -270 q -488 -214 -492 -231 l -456 -96 q -422 -65 -446 -65 q -387 -73 -407 -65 q -366 -99 -366 -81 z "},"̧":{"ha":0,"x_min":-515,"x_max":-278,"o":"m -372 14 q -357 -25 -372 -8 q -325 -52 -342 -42 q -293 -81 -308 -61 q -278 -127 -278 -100 q -316 -207 -278 -176 q -408 -237 -354 -237 q -479 -221 -442 -237 q -515 -170 -515 -205 q -495 -145 -515 -145 q -456 -157 -487 -145 q -406 -170 -425 -170 q -349 -134 -349 -170 q -363 -106 -349 -121 q -395 -80 -378 -92 q -427 -43 -412 -68 q -442 14 -442 -19 l -372 14 z "},"̨":{"ha":0,"x_min":-385,"x_max":-148,"o":"m -258 -205 q -206 -193 -236 -205 q -168 -182 -176 -182 q -148 -205 -148 -182 q -184 -256 -148 -240 q -255 -273 -221 -273 q -348 -233 -311 -273 q -385 -132 -385 -194 q -348 -35 -385 -95 q -277 57 -311 24 l -225 7 q -287 -62 -259 -14 q -315 -132 -315 -110 q -258 -205 -315 -205 z "},"̴":{"ha":544,"x_min":-677,"x_max":-157,"o":"m -203 373 q -172 365 -187 373 q -157 342 -157 357 q -212 278 -157 315 q -304 241 -267 241 q -420 269 -339 241 q -519 296 -500 296 q -580 268 -547 296 q -633 240 -613 240 q -663 248 -648 240 q -677 273 -677 256 q -623 336 -677 300 q -533 372 -568 372 q -416 345 -498 372 q -316 317 -335 317 q -256 345 -289 317 q -203 373 -224 373 z "},"̵":{"ha":0,"x_min":-601,"x_max":-180,"o":"m -601 324 q -559 359 -601 359 l -227 359 q -180 321 -180 359 q -193 297 -180 307 q -227 288 -206 288 l -559 288 q -601 324 -601 288 z "},"̷":{"ha":0,"x_min":-568,"x_max":-248,"o":"m -248 382 q -282 346 -248 363 l -513 232 q -533 228 -524 228 q -560 240 -552 228 q -568 266 -568 252 q -538 298 -568 283 l -308 414 q -285 418 -288 418 q -258 408 -269 418 q -248 382 -248 397 z "},"ͺ":{"ha":361,"x_min":115,"x_max":308,"o":"m 260 -243 l 251 -243 q 144 -203 172 -243 q 115 -68 115 -164 l 115 -15 q 151 26 115 26 q 186 -15 186 26 l 186 -92 q 201 -155 186 -137 q 260 -172 217 -172 q 308 -209 308 -172 q 260 -243 308 -243 z "},";":{"ha":340,"x_min":99,"x_max":237,"o":"m 235 125 q 228 99 235 111 l 172 -14 q 138 -46 159 -46 q 109 -12 109 -46 q 113 9 109 -7 l 145 127 q 179 159 155 159 q 214 151 194 159 q 235 125 235 142 m 168 643 q 214 627 190 643 q 237 587 237 610 q 214 548 237 564 q 168 532 190 532 q 122 548 145 532 q 99 587 99 564 q 122 627 99 610 q 168 643 145 643 z "},"΄":{"ha":338,"x_min":102,"x_max":236,"o":"m 202 879 q 236 842 236 879 q 235 827 236 833 l 174 614 q 140 567 164 567 q 113 581 123 567 q 102 616 102 594 q 104 632 102 624 l 164 845 q 202 879 175 879 z "},"΅":{"ha":519,"x_min":65,"x_max":401,"o":"m 134 796 q 180 780 156 796 q 203 741 203 764 q 180 701 203 718 q 134 685 156 685 q 88 701 111 685 q 65 741 65 718 q 88 780 65 764 q 134 796 111 796 m 332 796 q 378 780 354 796 q 401 741 401 764 q 378 701 401 718 q 332 685 354 685 q 286 701 309 685 q 263 741 263 718 q 286 780 263 764 q 332 796 309 796 m 308 1104 q 342 1067 342 1104 q 340 1053 342 1058 l 279 840 q 245 792 270 792 q 218 806 229 792 q 208 841 208 819 q 210 857 208 849 l 270 1070 q 308 1104 281 1104 z "},"Ά":{"ha":781,"x_min":41,"x_max":749,"o":"m 437 863 l 745 34 q 749 12 749 22 q 736 -14 749 -5 q 713 -22 724 -22 q 677 9 690 -22 l 581 270 l 209 270 l 113 9 q 76 -22 99 -22 q 53 -14 65 -22 q 41 12 41 -5 q 45 34 41 22 l 353 863 l 437 863 m 393 760 l 236 340 l 553 340 l 393 760 m 251 1017 q 285 981 285 1017 q 283 966 285 971 l 222 753 q 189 705 213 705 q 161 719 172 705 q 151 754 151 732 q 153 770 151 762 l 213 983 q 251 1017 224 1017 z "},"·":{"ha":328,"x_min":95,"x_max":233,"o":"m 164 581 q 210 564 186 581 q 233 525 233 548 q 210 486 233 502 q 164 469 186 469 q 118 486 141 469 q 95 525 95 502 q 118 564 95 548 q 164 581 141 581 z "},"Έ":{"ha":869,"x_min":26,"x_max":802,"o":"m 243 450 l 243 71 l 755 71 q 802 33 802 71 q 755 0 802 0 l 205 0 q 172 49 172 0 l 172 814 q 205 863 172 863 l 755 863 q 802 825 802 863 q 755 792 802 792 l 243 792 l 243 521 l 594 521 q 643 483 643 521 q 594 450 643 450 l 243 450 m 126 1017 q 160 981 160 1017 q 159 966 160 971 l 98 753 q 64 705 88 705 q 37 719 47 705 q 26 754 26 732 q 28 770 26 762 l 88 983 q 126 1017 99 1017 z "},"Ή":{"ha":920,"x_min":24,"x_max":806,"o":"m 247 37 q 212 -9 247 -9 q 176 37 176 -9 l 176 825 q 209 872 176 872 q 247 825 247 872 l 247 500 l 735 500 l 735 825 q 769 872 735 872 q 806 825 806 872 l 806 37 q 772 -9 806 -9 q 735 37 735 -9 l 735 430 l 247 430 l 247 37 m 125 1012 q 159 975 159 1012 q 157 960 159 966 l 96 747 q 62 700 87 700 q 35 713 46 700 q 24 749 24 727 q 27 765 24 757 l 87 978 q 125 1012 98 1012 z "},"Ί":{"ha":365,"x_min":23,"x_max":251,"o":"m 251 34 q 214 -9 251 -9 q 180 34 180 -9 l 180 827 q 216 872 180 872 q 251 827 251 872 l 251 34 m 123 1017 q 157 981 157 1017 q 156 966 157 971 l 95 753 q 61 705 85 705 q 34 719 45 705 q 23 754 23 732 q 26 770 23 762 l 85 983 q 123 1017 96 1017 z "},"Ό":{"ha":846,"x_min":42,"x_max":758,"o":"m 670 74 q 626 31 670 74 q 444 -12 582 -12 q 217 73 305 -12 q 129 309 129 159 l 129 553 q 217 789 129 704 q 444 875 305 875 q 670 789 582 875 q 758 553 758 703 l 758 309 q 670 74 758 160 m 624 738 q 592 771 624 738 q 444 804 560 804 q 263 738 327 804 q 199 552 199 671 l 199 311 q 263 125 199 191 q 444 58 327 58 q 624 125 560 58 q 688 311 688 191 l 688 552 q 624 738 688 671 m 142 1017 q 176 981 176 1017 q 175 966 176 971 l 114 753 q 80 705 104 705 q 53 719 64 705 q 42 754 42 732 q 45 770 42 762 l 104 983 q 142 1017 115 1017 z "},"Ύ":{"ha":859,"x_min":34,"x_max":834,"o":"m 469 418 l 186 810 q 175 838 175 826 q 186 863 175 853 q 209 872 197 872 q 243 848 224 872 l 505 486 l 765 848 q 800 872 783 872 q 823 862 811 872 q 834 838 834 852 q 823 810 834 826 l 541 418 l 541 33 q 505 -9 541 -9 q 469 33 469 -9 l 469 418 m 134 1012 q 168 975 168 1012 q 167 960 168 966 l 106 747 q 72 700 96 700 q 45 713 56 700 q 34 749 34 727 q 37 765 34 757 l 96 978 q 134 1012 107 1012 z "},"Ώ":{"ha":844,"x_min":52,"x_max":757,"o":"m 198 442 q 378 195 198 241 l 378 134 q 357 20 378 41 q 252 0 336 0 l 175 0 q 127 35 127 0 q 175 71 127 71 l 243 71 q 296 77 288 71 q 305 114 305 83 l 305 149 q 175 260 222 184 q 127 444 127 335 l 127 553 q 216 789 127 704 q 442 875 304 875 q 669 789 581 875 q 757 553 757 703 l 757 444 q 709 260 757 335 q 579 149 662 184 l 579 113 q 587 76 579 81 q 642 71 595 71 l 709 71 q 757 35 757 71 q 709 0 757 0 l 632 0 q 527 20 548 0 q 506 134 506 41 l 506 197 q 686 442 686 237 l 686 552 q 622 737 686 670 q 442 804 557 804 q 262 737 327 804 q 198 552 198 670 l 198 442 m 152 1017 q 186 981 186 1017 q 184 966 186 971 l 123 753 q 90 705 114 705 q 62 719 73 705 q 52 754 52 732 q 54 770 52 762 l 114 983 q 152 1017 125 1017 z "},"ΐ":{"ha":309,"x_min":-35,"x_max":301,"o":"m 34 804 q 79 788 56 804 q 103 749 103 772 q 79 709 103 726 q 34 693 56 693 q -12 709 11 693 q -35 749 -35 726 q -12 788 -35 772 q 34 804 11 804 m 232 804 q 277 788 254 804 q 301 749 301 772 q 277 709 301 726 q 232 693 254 693 q 186 709 209 693 q 163 749 163 726 q 186 788 163 772 q 232 804 209 804 m 208 1112 q 241 1076 241 1112 q 240 1061 241 1066 l 179 848 q 145 800 170 800 q 118 814 129 800 q 107 849 107 827 q 110 865 107 857 l 170 1078 q 208 1112 180 1112 m 243 0 l 233 0 q 126 38 155 0 q 98 171 98 76 l 98 589 q 133 635 98 635 q 168 589 168 635 l 168 149 q 184 88 168 106 q 243 71 199 71 q 290 34 290 71 q 243 0 290 0 z "},"Α":{"ha":773,"x_min":33,"x_max":741,"o":"m 429 863 l 736 34 q 741 12 741 22 q 728 -14 741 -5 q 705 -22 716 -22 q 669 9 682 -22 l 572 270 l 201 270 l 104 9 q 68 -22 91 -22 q 45 -14 57 -22 q 33 12 33 -5 q 37 34 33 22 l 345 863 l 429 863 m 385 760 l 228 340 l 545 340 l 385 760 z "},"Β":{"ha":821,"x_min":114,"x_max":743,"o":"m 184 450 l 184 71 l 442 71 q 624 101 575 71 q 673 241 673 132 l 673 279 q 625 420 673 389 q 450 450 578 450 l 184 450 m 114 49 l 114 814 q 146 863 114 863 l 391 863 q 614 821 541 863 q 686 659 686 779 q 620 507 686 556 q 713 432 682 484 q 743 283 743 380 l 743 244 q 671 49 743 98 q 442 0 598 0 l 146 0 q 114 49 114 0 m 391 521 q 566 547 515 521 q 616 652 616 572 q 566 762 616 738 q 391 785 517 785 l 184 785 l 184 521 l 391 521 z "},"Γ":{"ha":755,"x_min":111,"x_max":722,"o":"m 256 792 q 197 774 213 792 q 182 712 182 755 l 182 37 q 145 -9 182 -9 q 111 37 111 -9 l 111 690 q 140 824 111 785 q 247 863 168 863 l 674 863 q 722 827 722 863 q 674 792 722 792 l 256 792 z "},"Δ":{"ha":749,"x_min":34,"x_max":715,"o":"m 678 0 l 71 0 q 44 9 54 0 q 34 34 34 19 q 38 54 34 43 l 335 842 q 374 873 346 873 q 414 842 403 873 l 711 54 q 715 34 715 43 q 705 9 715 19 q 678 0 694 0 m 119 72 l 629 72 l 374 751 l 119 72 z "},"Ε":{"ha":811,"x_min":114,"x_max":743,"o":"m 184 450 l 184 71 l 697 71 q 743 33 743 71 q 697 0 743 0 l 146 0 q 114 49 114 0 l 114 814 q 146 863 114 863 l 697 863 q 743 825 743 863 q 697 792 743 792 l 184 792 l 184 521 l 536 521 q 585 483 585 521 q 536 450 585 450 l 184 450 z "},"Ζ":{"ha":753,"x_min":61,"x_max":690,"o":"m 62 0 l 62 69 l 606 806 l 110 806 q 61 841 61 806 q 110 876 61 876 l 690 876 l 690 804 l 149 71 l 643 71 q 690 34 690 71 q 643 0 690 0 l 62 0 z "},"Η":{"ha":857,"x_min":114,"x_max":743,"o":"m 184 37 q 149 -9 184 -9 q 114 37 114 -9 l 114 825 q 146 872 114 872 q 184 825 184 872 l 184 500 l 673 500 l 673 825 q 707 872 673 872 q 743 825 743 872 l 743 37 q 709 -9 743 -9 q 673 37 673 -9 l 673 430 l 184 430 l 184 37 z "},"Θ":{"ha":806,"x_min":88,"x_max":718,"o":"m 283 395 q 251 406 262 395 q 240 431 240 416 q 283 467 240 467 l 518 467 q 566 431 566 467 q 552 405 566 415 q 518 395 538 395 l 283 395 m 629 74 q 585 31 629 74 q 403 -12 541 -12 q 176 73 264 -12 q 88 309 88 159 l 88 553 q 176 789 88 704 q 403 875 264 875 q 629 789 541 875 q 718 553 718 703 l 718 309 q 629 74 718 160 m 583 738 q 551 771 583 738 q 403 804 519 804 q 222 738 286 804 q 159 552 159 671 l 159 311 q 222 125 159 191 q 403 58 286 58 q 583 125 519 58 q 647 311 647 191 l 647 552 q 583 738 647 671 z "},"Ι":{"ha":298,"x_min":114,"x_max":184,"o":"m 184 34 q 148 -9 184 -9 q 114 34 114 -9 l 114 827 q 149 872 114 872 q 184 827 184 872 l 184 34 z "},"Κ":{"ha":703,"x_min":114,"x_max":697,"o":"m 682 56 q 697 24 697 38 q 685 1 697 11 q 662 -9 673 -9 q 628 11 644 -9 l 256 437 l 184 350 l 184 34 q 148 -9 184 -9 q 114 34 114 -9 l 114 827 q 149 872 114 872 q 184 827 184 872 l 184 448 l 538 852 q 572 872 553 872 q 595 863 583 872 q 606 840 606 853 q 593 807 606 825 l 304 483 l 682 56 z "},"Λ":{"ha":773,"x_min":33,"x_max":741,"o":"m 68 -22 q 54 -20 61 -22 q 40 -11 47 -18 q 33 5 33 -4 q 37 30 33 16 l 350 863 l 423 863 l 736 30 q 741 5 741 16 q 733 -11 741 -4 q 719 -20 726 -18 q 705 -22 712 -22 q 669 5 682 -22 l 385 758 l 104 5 q 68 -22 94 -22 z "},"Μ":{"ha":886,"x_min":114,"x_max":772,"o":"m 442 378 q 419 389 427 378 l 184 739 l 184 38 q 149 -9 184 -9 q 114 37 114 -9 l 114 825 q 146 872 114 872 q 187 846 171 872 l 442 469 l 699 846 q 738 872 716 872 q 772 825 772 872 l 772 37 q 735 -9 772 -9 q 701 38 701 -9 l 701 739 l 467 389 q 442 378 458 378 z "},"Ν":{"ha":857,"x_min":114,"x_max":743,"o":"m 709 -9 q 682 0 690 -9 l 184 736 l 184 35 q 149 -9 184 -9 q 114 37 114 -9 l 114 825 q 146 872 114 872 q 187 846 171 872 l 673 130 l 673 823 q 707 872 673 872 q 743 825 743 872 l 743 37 q 709 -9 743 -9 z "},"Ξ":{"ha":826,"x_min":72,"x_max":757,"o":"m 274 395 q 241 406 252 395 q 231 431 231 416 q 274 467 231 467 l 549 467 q 597 431 597 467 q 583 405 597 415 q 549 395 570 395 l 274 395 m 114 807 q 72 842 72 807 q 114 878 72 878 l 711 878 q 757 840 757 878 q 711 807 757 807 l 114 807 m 114 0 q 72 35 72 0 q 114 71 72 71 l 711 71 q 757 33 757 71 q 711 0 757 0 l 114 0 z "},"Ο":{"ha":806,"x_min":88,"x_max":718,"o":"m 629 74 q 585 31 629 74 q 403 -12 541 -12 q 176 73 264 -12 q 88 309 88 159 l 88 553 q 176 789 88 704 q 403 875 264 875 q 629 789 541 875 q 718 553 718 703 l 718 309 q 629 74 718 160 m 583 738 q 551 771 583 738 q 403 804 519 804 q 222 738 286 804 q 159 552 159 671 l 159 311 q 222 125 159 191 q 403 58 286 58 q 583 125 519 58 q 647 311 647 191 l 647 552 q 583 738 647 671 z "},"Π":{"ha":846,"x_min":115,"x_max":731,"o":"m 115 863 l 731 863 l 731 37 q 697 -9 731 -9 q 661 37 661 -9 l 661 792 l 186 792 l 186 37 q 151 -9 186 -9 q 115 37 115 -9 l 115 863 z "},"Ρ":{"ha":732,"x_min":114,"x_max":686,"o":"m 184 34 q 148 -9 184 -9 q 114 34 114 -9 l 114 814 q 146 863 114 863 l 392 863 q 612 818 538 863 q 686 652 686 773 q 625 497 686 551 q 452 444 563 444 l 184 444 l 184 34 m 392 514 q 566 541 517 514 q 616 652 616 568 q 566 766 616 739 q 392 792 515 792 l 184 792 l 184 514 l 392 514 z "},"Σ":{"ha":783,"x_min":41,"x_max":726,"o":"m 41 844 q 83 878 41 878 l 680 878 q 726 840 726 878 q 680 807 726 807 l 152 807 l 454 468 q 469 438 469 449 q 456 408 469 425 l 152 71 l 680 71 q 726 33 726 71 q 680 0 726 0 l 75 0 q 51 9 61 0 q 41 34 41 19 q 54 65 41 49 l 384 438 l 54 812 q 41 844 41 826 z "},"Τ":{"ha":652,"x_min":37,"x_max":616,"o":"m 571 863 q 616 826 616 863 q 571 792 616 792 l 365 792 l 365 34 q 326 -9 365 -9 q 290 34 290 -9 l 290 792 l 81 792 q 37 827 37 792 q 81 863 37 863 l 571 863 z "},"Υ":{"ha":707,"x_min":23,"x_max":682,"o":"m 317 418 l 34 810 q 23 838 23 826 q 34 863 23 853 q 57 872 45 872 q 91 848 72 872 l 353 486 l 613 848 q 648 872 631 872 q 671 862 659 872 q 682 838 682 852 q 671 810 682 826 l 389 418 l 389 33 q 353 -9 389 -9 q 317 33 317 -9 l 317 418 z "},"Φ":{"ha":743,"x_min":57,"x_max":686,"o":"m 411 34 q 373 -9 411 -9 q 338 34 338 -9 l 338 103 q 134 198 212 114 q 57 423 57 282 l 57 439 q 134 665 57 581 q 338 760 212 749 l 338 827 q 374 872 338 872 q 411 827 411 872 l 411 760 q 610 663 534 747 q 686 439 686 579 l 686 423 q 610 199 686 283 q 411 103 534 115 l 411 34 m 411 693 l 411 170 q 562 246 509 179 q 616 423 616 313 l 616 439 q 562 615 616 548 q 411 693 509 682 m 127 423 q 182 244 127 311 q 338 168 237 178 l 338 694 q 182 618 237 685 q 127 439 127 551 l 127 423 z "},"Χ":{"ha":758,"x_min":49,"x_max":709,"o":"m 674 872 q 697 864 685 872 q 709 837 709 856 q 699 808 709 821 l 423 430 l 699 53 q 709 23 709 38 q 698 -1 709 8 q 674 -9 686 -9 q 640 12 656 -9 l 378 376 l 118 12 q 83 -9 102 -9 q 60 0 71 -9 q 49 23 49 9 q 60 53 49 38 l 335 430 l 60 808 q 49 837 49 821 q 61 864 49 856 q 83 872 73 872 q 118 848 100 872 l 378 486 l 640 848 q 674 872 659 872 z "},"Ψ":{"ha":760,"x_min":65,"x_max":694,"o":"m 624 827 q 661 872 624 872 q 694 827 694 872 l 694 620 q 618 396 694 480 q 418 300 541 312 l 418 34 q 380 -9 418 -9 q 345 34 345 -9 l 345 300 q 142 395 218 311 q 65 620 65 479 l 65 827 q 100 872 65 872 q 136 827 136 872 l 136 616 q 190 438 136 505 q 345 361 244 372 l 345 827 q 381 872 345 872 q 418 827 418 872 l 418 362 q 570 438 517 372 q 624 616 624 505 l 624 827 z "},"Ω":{"ha":803,"x_min":87,"x_max":716,"o":"m 157 442 q 338 195 157 241 l 338 134 q 317 20 338 41 q 212 0 296 0 l 134 0 q 87 35 87 0 q 134 71 87 71 l 202 71 q 256 77 247 71 q 264 114 264 83 l 264 149 q 134 260 182 184 q 87 444 87 335 l 87 553 q 175 789 87 704 q 401 875 263 875 q 628 789 540 875 q 716 553 716 703 l 716 444 q 669 260 716 335 q 538 149 621 184 l 538 113 q 547 76 538 81 q 601 71 555 71 l 669 71 q 716 35 716 71 q 669 0 716 0 l 591 0 q 486 20 507 0 q 465 134 465 41 l 465 197 q 646 442 646 237 l 646 552 q 581 737 646 670 q 401 804 517 804 q 222 737 286 804 q 157 552 157 670 l 157 442 z "},"Ϊ":{"ha":298,"x_min":-18,"x_max":319,"o":"m 184 34 q 148 -9 184 -9 q 114 34 114 -9 l 114 827 q 149 872 114 872 q 184 827 184 872 l 184 34 m 52 1063 q 97 1047 73 1063 q 121 1008 121 1031 q 97 968 121 985 q 52 952 73 952 q 5 968 28 952 q -18 1008 -18 985 q 5 1047 -18 1031 q 52 1063 28 1063 m 250 1063 q 295 1047 271 1063 q 319 1008 319 1031 q 295 968 319 985 q 250 952 271 952 q 203 968 227 952 q 180 1008 180 985 q 203 1047 180 1031 q 250 1063 227 1063 z "},"Ϋ":{"ha":707,"x_min":23,"x_max":682,"o":"m 317 418 l 34 810 q 23 838 23 826 q 34 863 23 853 q 57 872 45 872 q 91 848 72 872 l 353 486 l 613 848 q 648 872 631 872 q 671 862 659 872 q 682 838 682 852 q 671 810 682 826 l 389 418 l 389 33 q 353 -9 389 -9 q 317 33 317 -9 l 317 418 m 255 1063 q 300 1047 277 1063 q 324 1008 324 1031 q 300 968 324 985 q 255 952 277 952 q 209 968 232 952 q 186 1008 186 985 q 209 1047 186 1031 q 255 1063 232 1063 m 453 1063 q 498 1047 475 1063 q 522 1008 522 1031 q 498 968 522 985 q 453 952 475 952 q 407 968 430 952 q 384 1008 384 985 q 407 1047 384 1031 q 453 1063 430 1063 z "},"ά":{"ha":793,"x_min":81,"x_max":753,"o":"m 705 0 l 696 0 q 610 19 640 0 q 568 81 581 38 q 353 0 494 0 q 147 60 213 0 q 81 266 81 119 l 81 359 q 147 566 81 506 q 353 625 213 625 q 559 553 483 625 l 559 587 q 595 635 559 635 q 631 589 631 635 l 631 149 q 646 88 631 106 q 705 71 662 71 q 753 34 753 71 q 705 0 753 0 m 353 555 q 195 515 237 555 q 152 359 152 475 l 152 266 q 195 111 152 151 q 353 71 237 71 q 559 266 559 71 l 559 359 q 353 555 559 555 m 418 1016 q 452 979 452 1016 q 450 964 452 970 l 389 751 q 355 704 380 704 q 328 718 339 704 q 317 753 317 731 q 320 769 317 761 l 380 982 q 418 1016 391 1016 z "},"έ":{"ha":804,"x_min":83,"x_max":726,"o":"m 430 288 l 313 288 q 153 155 153 288 q 319 71 153 71 l 486 71 q 527 74 505 71 q 581 86 549 77 q 634 118 613 95 q 655 175 655 141 q 692 222 655 222 q 726 175 726 222 q 660 42 726 84 q 495 0 594 0 l 309 0 q 147 41 212 0 q 83 171 83 81 q 163 321 83 271 q 83 454 83 357 q 147 585 83 544 q 309 625 212 625 l 495 625 q 660 583 594 625 q 726 450 726 541 q 692 403 726 403 q 655 450 655 403 q 635 507 655 484 q 583 539 614 530 q 528 551 551 548 q 486 555 505 555 l 319 555 q 152 471 152 555 q 189 382 152 406 q 313 358 225 358 l 430 358 q 479 320 479 358 q 430 288 479 288 m 442 1006 q 476 970 476 1006 q 475 955 476 960 l 414 742 q 380 694 404 694 q 353 708 363 694 q 342 743 342 722 q 345 760 342 751 l 404 972 q 442 1006 415 1006 z "},"ή":{"ha":840,"x_min":100,"x_max":743,"o":"m 403 555 q 229 493 288 555 q 171 313 171 431 l 171 37 q 136 -9 171 -9 q 100 37 100 -9 l 100 587 q 133 635 100 635 q 171 586 171 635 l 171 540 q 403 625 251 625 l 442 625 q 671 577 598 625 q 743 385 743 529 l 743 -231 q 709 -278 743 -278 q 673 -231 673 -278 l 673 384 q 624 524 673 494 q 442 555 575 555 l 403 555 m 496 1016 q 530 979 530 1016 q 529 964 530 970 l 468 751 q 434 704 458 704 q 407 718 418 704 q 396 753 396 731 q 399 769 396 761 l 458 982 q 496 1016 469 1016 z "},"ί":{"ha":309,"x_min":98,"x_max":290,"o":"m 243 0 l 233 0 q 126 38 155 0 q 98 171 98 76 l 98 589 q 133 635 98 635 q 168 589 168 635 l 168 149 q 184 88 168 106 q 243 71 199 71 q 290 34 290 71 q 243 0 290 0 m 212 1016 q 245 979 245 1016 q 244 964 245 970 l 183 751 q 149 704 174 704 q 122 718 133 704 q 111 753 111 731 q 114 769 111 761 l 174 982 q 212 1016 184 1016 z "},"ΰ":{"ha":818,"x_min":94,"x_max":723,"o":"m 309 829 q 355 812 331 829 q 378 773 378 796 q 355 734 378 750 q 309 718 331 718 q 263 734 286 718 q 240 773 240 750 q 263 812 240 796 q 309 829 286 829 m 507 829 q 553 812 529 829 q 576 773 576 796 q 553 734 576 750 q 507 718 529 718 q 461 734 484 718 q 438 773 438 750 q 461 812 438 796 q 507 829 484 829 m 483 1137 q 517 1100 517 1137 q 515 1085 517 1090 l 454 872 q 420 825 445 825 q 393 838 404 825 q 382 873 382 852 q 385 890 382 882 l 445 1103 q 483 1137 456 1137 m 434 0 l 396 0 q 167 48 240 0 q 94 239 94 96 l 94 589 q 127 635 94 635 q 164 589 164 635 l 164 240 q 213 100 164 130 q 396 71 262 71 l 434 71 q 609 100 566 71 q 652 240 652 130 l 652 589 q 688 635 652 635 q 723 589 723 635 l 723 239 q 656 47 723 95 q 434 0 589 0 z "},"α":{"ha":793,"x_min":81,"x_max":753,"o":"m 705 0 l 696 0 q 610 19 640 0 q 568 81 581 38 q 353 0 494 0 q 147 60 213 0 q 81 266 81 119 l 81 359 q 147 566 81 506 q 353 625 213 625 q 559 553 483 625 l 559 587 q 595 635 559 635 q 631 589 631 635 l 631 149 q 646 88 631 106 q 705 71 662 71 q 753 34 753 71 q 705 0 753 0 m 353 555 q 195 515 237 555 q 152 359 152 475 l 152 266 q 195 111 152 151 q 353 71 237 71 q 559 266 559 71 l 559 359 q 353 555 559 555 z "},"β":{"ha":659,"x_min":102,"x_max":594,"o":"m 172 64 l 172 -151 q 134 -199 172 -199 q 102 -151 102 -199 l 102 625 q 163 813 103 764 q 319 863 224 863 q 473 808 414 863 q 533 667 533 754 q 434 481 533 547 q 536 415 498 463 q 585 327 575 368 q 594 243 594 286 q 362 -9 594 -9 q 172 64 248 -9 m 172 625 l 172 168 q 359 58 263 58 q 408 62 388 58 q 458 81 427 65 q 507 138 490 96 q 524 244 524 179 q 465 387 524 331 q 267 442 407 442 l 267 511 q 463 670 463 511 q 420 760 463 727 q 319 792 377 792 q 207 762 241 792 q 172 625 172 731 z "},"γ":{"ha":712,"x_min":31,"x_max":675,"o":"m 76 555 q 31 590 31 555 q 76 625 31 625 q 192 557 156 625 q 315 202 228 488 q 357 62 342 114 l 605 606 q 643 635 618 635 q 665 626 655 635 q 675 604 675 617 q 671 587 675 597 l 387 -35 l 387 -199 q 347 -247 387 -247 q 313 -199 313 -247 l 313 -37 q 159 440 203 326 q 76 555 115 555 z "},"δ":{"ha":766,"x_min":61,"x_max":697,"o":"m 151 795 q 129 829 129 804 q 171 864 129 864 l 609 864 q 655 826 655 864 q 609 792 655 792 l 334 792 q 697 278 697 656 q 612 68 697 145 q 382 -9 526 -9 q 239 20 302 -9 q 138 100 175 50 q 81 206 100 149 q 61 323 61 263 q 83 434 61 382 q 140 520 104 486 q 219 579 175 555 q 307 614 263 604 q 391 625 350 625 q 502 605 453 625 q 271 749 426 690 l 151 795 m 388 62 q 564 121 503 62 q 625 282 625 180 q 564 479 625 404 q 393 555 502 555 q 281 532 338 555 q 178 451 224 509 q 133 315 133 393 q 201 137 133 212 q 388 62 270 62 z "},"ε":{"ha":804,"x_min":83,"x_max":726,"o":"m 430 288 l 313 288 q 153 155 153 288 q 319 71 153 71 l 486 71 q 527 74 505 71 q 581 86 549 77 q 634 118 613 95 q 655 175 655 141 q 692 222 655 222 q 726 175 726 222 q 660 42 726 84 q 495 0 594 0 l 309 0 q 147 41 212 0 q 83 171 83 81 q 163 321 83 271 q 83 454 83 357 q 147 585 83 544 q 309 625 212 625 l 495 625 q 660 583 594 625 q 726 450 726 541 q 692 403 726 403 q 655 450 655 403 q 635 507 655 484 q 583 539 614 530 q 528 551 551 548 q 486 555 505 555 l 319 555 q 152 471 152 555 q 189 382 152 406 q 313 358 225 358 l 430 358 q 479 320 479 358 q 430 288 479 288 z "},"ζ":{"ha":682,"x_min":71,"x_max":666,"o":"m 387 -9 q 157 68 243 -9 q 71 278 71 145 q 437 792 71 655 l 159 792 q 113 826 113 792 q 159 864 113 864 l 597 864 q 639 829 639 864 q 617 788 639 796 q 566 770 612 785 q 495 744 521 754 q 419 709 469 734 q 337 660 369 684 q 264 597 305 636 q 200 514 224 557 q 159 411 176 471 q 142 283 142 351 q 204 122 142 182 q 382 62 266 62 q 480 60 444 62 q 557 49 517 58 q 618 21 597 39 q 652 -30 639 3 q 666 -111 666 -62 q 631 -204 666 -165 q 564 -243 597 -243 q 542 -232 551 -243 q 533 -208 533 -221 q 564 -167 533 -191 q 595 -117 595 -142 q 555 -28 595 -46 q 387 -9 514 -9 z "},"η":{"ha":840,"x_min":100,"x_max":743,"o":"m 403 555 q 229 493 288 555 q 171 313 171 431 l 171 37 q 136 -9 171 -9 q 100 37 100 -9 l 100 587 q 133 635 100 635 q 171 586 171 635 l 171 540 q 403 625 251 625 l 442 625 q 671 577 598 625 q 743 385 743 529 l 743 -231 q 709 -278 743 -278 q 673 -231 673 -278 l 673 384 q 624 524 673 494 q 442 555 575 555 l 403 555 z "},"θ":{"ha":711,"x_min":88,"x_max":623,"o":"m 552 553 q 355 804 552 804 q 159 553 159 804 l 159 467 l 552 467 l 552 553 m 355 -12 q 88 309 88 -12 l 88 553 q 355 875 88 875 q 555 792 488 875 q 623 553 623 709 l 623 309 q 555 71 623 153 q 355 -12 488 -12 m 552 309 l 552 395 l 159 395 l 159 309 q 355 58 159 58 q 552 309 552 58 z "},"ι":{"ha":309,"x_min":98,"x_max":290,"o":"m 243 0 l 233 0 q 126 38 155 0 q 98 171 98 76 l 98 589 q 133 635 98 635 q 168 589 168 635 l 168 149 q 184 88 168 106 q 243 71 199 71 q 290 34 290 71 q 243 0 290 0 z "},"κ":{"ha":623,"x_min":100,"x_max":581,"o":"m 581 26 q 571 2 581 14 q 548 -9 562 -9 q 517 3 532 -9 l 171 281 l 171 33 q 134 -9 171 -9 q 100 33 100 -9 l 100 591 q 136 635 100 635 q 171 591 171 635 l 171 349 l 515 625 q 548 639 532 639 q 571 627 562 639 q 581 604 581 614 q 560 571 581 585 l 235 315 l 562 57 q 581 26 581 43 z "},"λ":{"ha":783,"x_min":37,"x_max":765,"o":"m 562 98 l 357 567 l 107 19 q 69 -9 95 -9 q 47 -1 57 -9 q 37 22 37 8 q 41 38 37 27 l 316 643 l 288 712 q 241 770 271 749 q 182 792 212 792 q 136 826 136 792 q 182 864 136 864 q 277 836 233 864 q 342 758 321 807 l 617 142 q 661 85 632 107 q 719 64 689 64 q 765 30 765 64 q 719 -8 765 -8 q 625 20 669 -8 q 562 98 582 49 z "},"μ":{"ha":779,"x_min":102,"x_max":680,"o":"m 609 309 l 609 594 q 643 642 609 642 q 680 594 680 642 l 680 33 q 646 -16 680 -16 q 609 33 609 -16 l 609 79 q 391 -7 529 -7 q 172 79 252 -7 l 172 -229 q 134 -278 172 -278 q 102 -229 102 -278 l 102 594 q 136 642 102 642 q 172 594 172 642 l 172 309 q 229 127 172 190 q 391 64 285 64 q 552 127 495 64 q 609 309 609 190 z "},"ν":{"ha":690,"x_min":38,"x_max":654,"o":"m 342 69 l 583 613 q 621 642 595 642 q 654 614 654 642 q 648 591 654 604 l 385 -7 l 290 -7 l 43 591 q 38 613 38 604 q 71 642 38 642 q 109 612 95 642 l 342 69 z "},"ξ":{"ha":681,"x_min":54,"x_max":673,"o":"m 389 62 q 487 60 450 62 q 564 49 524 58 q 625 21 604 39 q 659 -30 646 3 q 673 -111 673 -62 q 638 -204 673 -165 q 571 -243 604 -243 q 549 -232 557 -243 q 540 -208 540 -221 q 571 -167 540 -191 q 602 -117 602 -142 q 562 -28 602 -46 q 393 -9 521 -9 q 301 -5 340 -9 q 218 14 262 -1 q 146 54 174 28 q 99 125 118 79 q 80 235 80 171 q 110 354 80 293 q 175 441 140 415 q 110 517 140 461 q 80 633 80 574 q 163 792 80 735 l 96 792 q 54 829 54 792 q 96 863 54 863 l 532 863 q 578 826 578 863 q 532 792 578 792 q 149 633 149 792 q 189 523 149 562 q 301 484 229 484 l 423 484 q 475 446 475 484 q 423 415 475 415 l 301 415 q 193 356 235 415 q 151 218 151 297 q 176 134 151 168 q 244 86 202 100 q 320 67 286 72 q 389 62 354 62 z "},"ο":{"ha":811,"x_min":84,"x_max":727,"o":"m 426 0 l 387 0 q 157 48 231 0 q 84 239 84 96 l 84 387 q 157 577 84 529 q 387 625 231 625 l 426 625 q 654 577 582 625 q 727 387 727 529 l 727 239 q 654 48 727 96 q 426 0 582 0 m 387 71 l 426 71 q 532 75 495 71 q 602 97 570 80 q 645 148 633 114 q 656 240 656 182 l 656 385 q 645 477 656 444 q 602 528 633 511 q 532 550 570 545 q 426 555 495 555 l 387 555 q 280 550 317 555 q 210 528 243 545 q 166 477 178 511 q 155 385 155 444 l 155 240 q 166 148 155 182 q 210 97 178 114 q 280 75 243 80 q 387 71 317 71 z "},"π":{"ha":822,"x_min":56,"x_max":777,"o":"m 583 555 l 191 555 l 191 37 q 156 -9 191 -9 q 121 37 121 -9 l 121 555 l 100 555 q 56 590 56 555 q 100 625 56 625 l 675 625 q 720 589 720 625 q 675 555 720 555 l 655 555 l 655 148 q 671 87 655 104 q 730 71 686 71 q 777 34 777 71 q 730 0 777 0 l 719 0 q 612 38 640 0 q 583 171 583 76 l 583 555 z "},"ρ":{"ha":814,"x_min":87,"x_max":730,"o":"m 659 385 q 648 477 659 444 q 604 528 636 511 q 535 550 572 545 q 429 555 498 555 l 389 555 q 157 315 157 555 l 157 71 l 430 71 q 611 100 563 71 q 659 240 659 130 l 659 385 m 389 625 l 429 625 q 657 577 585 625 q 730 387 730 529 l 730 239 q 657 48 730 96 q 430 0 585 0 l 157 0 l 157 -199 q 119 -247 157 -247 q 87 -199 87 -247 l 87 292 q 389 625 87 625 z "},"ς":{"ha":663,"x_min":64,"x_max":614,"o":"m 136 311 q 330 62 136 62 q 428 60 392 62 q 505 49 464 58 q 566 21 545 39 q 601 -30 587 3 q 614 -111 614 -62 q 580 -204 614 -165 q 513 -243 545 -243 q 490 -232 499 -243 q 481 -208 481 -221 q 513 -167 481 -191 q 544 -117 544 -142 q 503 -28 544 -46 q 334 -9 461 -9 q 131 78 198 -9 q 64 307 64 165 q 191 546 64 457 q 567 635 319 635 q 613 601 613 635 q 567 563 613 563 q 352 541 441 563 q 218 479 263 518 q 155 400 174 441 q 136 311 136 359 z "},"σ":{"ha":844,"x_min":84,"x_max":798,"o":"m 750 625 q 798 590 798 625 q 750 555 798 555 l 628 555 q 713 342 713 477 l 713 239 q 646 47 713 95 q 426 0 578 0 l 387 0 q 157 48 231 0 q 84 239 84 96 l 84 387 q 157 577 84 529 q 387 625 231 625 l 750 625 m 387 555 q 280 550 317 555 q 210 528 243 545 q 166 477 178 511 q 155 385 155 444 l 155 240 q 166 148 155 182 q 210 97 178 114 q 280 75 243 80 q 387 71 317 71 l 426 71 q 599 100 555 71 q 643 240 643 129 l 643 342 q 579 500 643 445 q 396 555 515 555 l 387 555 z "},"τ":{"ha":648,"x_min":27,"x_max":606,"o":"m 355 148 q 372 87 355 104 q 434 71 388 71 q 481 63 467 71 q 495 34 495 56 q 434 0 495 0 l 423 0 q 311 38 340 0 q 281 171 281 76 l 281 555 l 72 555 q 27 590 27 555 q 72 625 27 625 l 562 625 q 606 589 606 625 q 562 555 606 555 l 355 555 l 355 148 z "},"υ":{"ha":821,"x_min":95,"x_max":724,"o":"m 435 0 l 397 0 q 168 48 241 0 q 95 239 95 96 l 95 589 q 129 635 95 635 q 165 589 165 635 l 165 240 q 214 100 165 130 q 397 71 263 71 l 435 71 q 610 100 567 71 q 654 240 654 130 l 654 589 q 689 635 654 635 q 724 589 724 635 l 724 239 q 657 47 724 95 q 435 0 590 0 z "}}}
